<mxfile host="65bd71144e" scale="1" border="10">
    <diagram id="49NymEoOp8IOT5Ll5Ka7" name="flow">
        <mxGraphModel dx="826" dy="557" grid="0" gridSize="10" guides="1" tooltips="1" connect="1" arrows="1" fold="1" page="1" pageScale="1" pageWidth="850" pageHeight="1100" background="#ffffff" math="0" shadow="0">
            <root>
                <mxCell id="0"/>
                <mxCell id="1" parent="0"/>
                <mxCell id="43" value="" style="rounded=0;whiteSpace=wrap;html=1;fillColor=#dae8fc;strokeColor=#6c8ebf;" vertex="1" parent="1">
                    <mxGeometry x="230.75" y="218" width="395" height="227" as="geometry"/>
                </mxCell>
                <mxCell id="42" value="" style="group" vertex="1" connectable="0" parent="1">
                    <mxGeometry x="41" y="163" width="175" height="311" as="geometry"/>
                </mxCell>
                <mxCell id="17" value="" style="rounded=0;whiteSpace=wrap;html=1;fillColor=#f5f5f5;strokeColor=#666666;fontColor=#333333;" parent="42" vertex="1">
                    <mxGeometry width="175" height="311" as="geometry"/>
                </mxCell>
                <mxCell id="18" value="Fonte de Dados" style="text;strokeColor=none;align=center;fillColor=none;html=1;verticalAlign=middle;whiteSpace=wrap;rounded=0;fontColor=#000000;" parent="42" vertex="1">
                    <mxGeometry x="39" width="97" height="30" as="geometry"/>
                </mxCell>
                <mxCell id="23" value="" style="shape=image;imageAspect=0;aspect=fixed;verticalLabelPosition=bottom;verticalAlign=top;image=data:image/png,UklGRgojAABXRUJQVlA4TP0iAAAvXQFREE1IbiTJkSR4RC6N0F/hqqZH3hH9nwBOO9s2bebOUz8H+6eEfSYPFWyfyBvsdwRYfJA8xeIk2r7C9gxJwu0X/AkB+ghHnnkBR54Bcld3HHnpa/z5gmPbn3NblvYosv2ZR5JCC9XipwIp5B1AACQ9oV2ghUh+R/JcT7RQSS/oCb8ACMCGF2wT275Ny0nvb+sF4BFd8jNzZVXv4hb7tv905QG72Oe0MaOc6aKuhjGMITIMAoVxGUMSg6SumlZTJKmFYRSkohYUIc3UlVSNpNkNWpEgaiPDzNB2aId2sDK0DG2Iph3aYegMF90Mt18Z+sjCaSRJjpTxWK3/Vp0Jr/Gij+MrbmbhIyiSJDmSHO6ptjiJ8/+vOnhQC+hEkiTHSXhIcUghuFDebpzR/x/gDWwoeE/o/wRgWjMVtBYAUDgi9yR3BBAIug62OXXLOgIZCBZtpLnP/ibDGGPQ70AkQQDADAgAVHavOAAiaEWgeYMzcQIZANDfbeO2cQsA4RZ11BNPPxADuNySRDqoUk0wgEtSREaoJk1IEEgXY01vLxgTFaqbsaSokJHoCKAUkiITXgkAo6SAogqoU4WowYoq2hOo01VEy8ZkUXQE1KkD1ClINR1xOofDZUEBRGCAShggEBR0BlR0hHEGCDIEbak4Z0B75wNowJK71gI4LWTbsIQLVUB0BlR7kqKuCEREABBPFRCDeIEM0RVBuOCoSIaH1xFplft/ovS5f9+mpO/hdfeKwtfv7jch/d/Lb3v/4a9RHJLbSJIkiaa/2Hl0R87M7jciJsB1kSiN223NEYQM2RaCMlikyr5Za07yYKVF373JWuXBtlTRkHJs/V4LqsUyuES082wPntoakNtKhotKGr0jGPh4GcxlHPr+0l4q4xvyesMKrTKeP77tRZtGfdqLp/714c4+3+2To4ff+l/0r///ayfVtn1X36G1a+zX+ee5QecGnDvQ5/dXxpgzmUP/+tDhMLYDhzMJElrORefMEodBqXFKLzGCWWCoOeGk2gY90su0RmJAMSwMnVDF0BGnBUWYtNOWJWdkwUJaLKEZ26LoIJIkRcpjcHji6H1+dLOOJKlKAz7yD8w/w1FGAiRJpm3Ns23btm3btm3btm3btm2/922bktg2kiRJ2YWu7aPGeUVGRNbO/O3a/6c4lvOvhkvLzEwZU8q7z7FPt6+wGUPEzMxMM5qRuqsWBP8u6fZfu2v4mxSZ7TqyEpnm3Mjcp30uKDMzPYPDpTKGuBS5QzPPKXPEISkzM7X5LSaRHNuWIjn3/Z9ZMyNmaTk2aMUmkCmyRqG1fGDyg23gLsjKfBQi23ZtKz3WOT9HJd/H14A8PKGAQkHm3ruXHG3bjs05n7Ftxza7lGlnAdlAsoDhAmbKOCltV7Zt27b9wqJtp4pzMjQMKIZGEMQ+PwkERJVy0vNfyy5/9NsgGO+a4nrlAVILS0jAvgembj/owIApIR8ohNkKFUpBVwgcNYrgvD/r3Wk/4CMTLwd/Nvqyh7/P9vpzhiyGAFsPLu81pjn/BkgBr+aOZkVwxdl+K1/bAoXai/BSsf5d/YCe15DOQT9ngn+4O0CP7oidWSNxjzSFMorV3GtNFX0mx5gGW+TlJS1VQPwBccuiWwC6QPV9inAOeVXBOl+0q/Jqj7ctrhyo/ItkKQGEmQ1i/35LU5o2IWUvFthqPSx3opkM0Ck4/eC6ySaKUy5jJ0VUPL1RbUgfDEqdEQIwLnwJCiFwFbBYCghEwKyYTsXV9xqiicudAaiOO9UxHhZKKVjNbXFcn6pYnhfMGbCdRPMPvxcLPG/VQI28g5nf1tF1G9btJzmJZP7xftLmVCAMdzz9OgbzGARz4MtfvoGb+EsD4oQfshhIv3qAXABPRZmaeNlsW29d9FVKr1xBLZs8+/nQ8w6WDfj+syu9tOAFYoNUAM/W/eVzFZkgFC1vMBiN3tNzjKHSjVL2PP1xwKtlqZah6xUDZNp5MBmTXkMnr7n+9J+9spadAbjSM5Pg7LcddESxPhKdvCKs9w5PCpy2ptAZoeGgfnmHTABP4ksf1gsJ3PDaNWL7NfVp1sxc44HMV3h4E1K0+OB1t8W8Ts59FV5/BJFM/f3w1yXxRtbcHBc+ZbkMO8mFRiK4x+D9VKC/ObgmijTM9jUk4piNF+2L612bJVVimsXxxRARiQkkMeVSIHG8OzKnzm4XrS8E43rFOhltXVhArUzUO8AF+TGTyNmuUdHUwIzB8TYRL+T50THn8w7gs5Hka0jvgfYAPh+fq5BaYCncF2vmO4aUiSaRiYm9YTqrWSrjn2wQ7TudmBGtvR7S5NX/EB9zvCXcIMrSHy1e+YD47TU8vM6TB2lzZIFow00+9L13TRk795BfQoHEOdT83rx0voz+U19AgY/nmGyh9kVzAagW0L73AUNVsHxPeGaRWZhXXwOMfttQ17vqv3QRheR4bXszDzD2CzR50eEd4mIYd/Zdln5Odisx4f0Ee7smHfXWDfsU32E2WtK0jPVMqqQMieSVETMSHkm06VNUrHQBKU5nV1SeCPq28KJS2zdWH79L3UKew7QhH/g3MzvFFaRwj9U1iinwttNj8q1DfjRWNMcrMfTsrZwSDf9/vx0rOlqv+eRQX+Afz3T6y4tZ/RzX5DXmV/z3rykO7xvyjA2/WXOVooTOFNskn9sltBOUOBIJp7v+AYLIFmJ7oR44nVedKY853ZV4ifKF2AJd7+qH4BeTO6Xuob0ZCi9SC3S8+Wwzv9nbuWGNVHS3P8N9FSVCC3S9Hpt4cPPMLcITejUb5qHqUpdQuNNRg7l4y+V9uDbU2/o5aIy5BiIaMzMb4cY1/3ID8cELd8Xnte2JwHJdH6lO/8fzb7DSJZTDrL9S/zaIJxKi+060vZWtc0VMi9SXPrEWLLi0AmLacWr9gvho/hEw9cxgNzKrDBRLJl5GRkBpR3skxbfxy1lm05+ZrRnITCUyDc/J29Ar/mvFEYnW4GyP0YXWLnVjcG40Vyu/9RUP9DfqX1RctPaINlLp1jJnbw4at+ycp1yUmQgg4hnmQdJBtoKEf6u4v/ud6/rKmUM8KRH25W3rysZJjGM11oRVxJf8iG+Szb7VC9IvBkFErr+w8L5fIWGCthYsBAsTC6qgcqiML+puJpnjE9nALwW/sIcJnegRs9PpvrjZsZSHzFFFFgo7kB62SHBvigTyihbcf3McDfOP3wzFrdYSnI6WPB+DVh5VJqFgy7dTYAekOQF1tQuszvaItPsESzjDiplk1W2iHPRo31VXPMf2j69Yzf52SWZNf6sAc5GxPpADK5PncDS6r/zbJ+dmdQYELI0h0uq+skL+NqtnvGSo7OJdX4PLivO3BNqvQAG2z7vfjq7lyabM/0occbbWkePvbsY0fxwXmJFwdRIc8a4Wjdov5jm82OwJSsEBwPGUzBaaquCrZt4xtqr8wgCnV0JCgm1r0DllKb4ziBN0dmL2JHieHQ16SND+UWObqyUcNG3qd993veF8e+/+7a49Mh2HsjF2nOsl79sYvTMgQ6Kfsf3zVRTt68v1cF0Hjgaddw0xh3VFgiHjV+BIajhorruzLVCgOFwALUYIJUE+eJAV82o/69IG3id6f9sHnwEeK8JuBVnJxqgkLw9zW3XIu821idO2fsNcb587rjKfRFGw7Si4rOo6furXiB1y275fr4ChSmb0xmz7S3fUNUtw8LiO3/28bUuDcsYN42/JnXvD9nbeLmDyqhM5kRayrnaBnzLxpu2S+FIVY6hBiSHO7uqHFk9fzzc72g5TLzKofOBtv+mVuD7vjf5WAkYDcX7Sw3ONqrZJDuT01b0XD7QszliB7b2A18bO+3sUB9fLs63A3D/2oCIOQU5vDLb3DIdj3Di9I3Yo1a6vB+RjVH1GTV6K9AlMMe9Vn/K3pUOhdn0zk+SY5LSM6l8DQ5c3DbxiXGbAN+p034gI7cIx167YUcfnH91HQ1ogwY3CyeUxwqgWLzNgUiUzxcAEjMaQemXpAA4vNOa1KWYMk3SmY53/vMFKW8zsQ8NFOs2P3wPkQufwrXO2lK+QuvCZI3HN4vzy3rMLLxyuhixd2vGb3zURqTfIduEDr3LWZ+ZMEqdxtkPebXvjBWucQ2QCsOHamofRDU5bs7IPLiI2SaBW/jUDfncGv7+C3x3gX/8gADi+5J+F9YNNbhOt6DEvAZjuD/P2jwR87hc0DMxQ0xM+BX4xueys9L3KSGKxwSG2f3KjvsvQy48kQKPgeM20XMl7WbL3EqfR58mocWipt+2n/gJOasRt+NuSjxO0OC22KdNkhKfJYWMml1iZxROwxjpsC+oaw9KU8ZeOZ1wOASC7jEHg7JGs9IdRPX86KXOR8ydkz2I9ZfenrA5WhEBA9qh41Rg5sjvOIFkJPK2snndM7amZd7QMLbi2Z610Gb9iPV5RyfhIrjLoa93/YaTRAhHJ8ddE2XOP/jJCfV7icYTpAi3AFQK+01W29TBCpoTOZh6Wozct41kg4J3QDh1TAXILq1jcLjdAU8h04bqOFIv3qi1h+M04I0nLXxU5kMA+qgZZk1PdLmWDgM65FYlp3RxcK/CeLVUxn7USKwiak0MNxO7xMw9mjbbNgz+ZIbTeVeKrHjFmHI7yX0ylt/15pBmjO+nQGTUQBTssbAIvQLsmFD0TDkP69+gyZYKZsWI1W+F8B9426EtF/Oq7i+MpS2owJn2GOHtgEYsDF5a22LAmfOnBDE3vJ4085yN4YrHU6liS68irhcC2gQfXhj81uKy8gUwSrG0ZxFoL5g0szm6pl5cj/o8L2ggBeZtPOUsO4PBIHNSz5BjlnJ4lyH7HerBvOeYsyW6pK5sao34dsETTeBfgXwokv7LsURHB9ulqIArjzIqk3XK89v8QLE0u08xo0sfPioKkZwSjjTM4qe4/O8BMhn3izBnjrIDPPWBjfTMOMez0mlpgFUM829XOnm1XNKLJ2nZD7yfc1YrbJd1EGkdJ9fioKdin2aOde97cgBjEpHq8WtpmI65+Bl44Ew/HL8fiqq8NtbYjX8LONnwS1Dyx8SsM1ytrO+VLyPhSocyHh63IeVNb0g2ys82ESDL0hSDuq2hgZsuJP2StkPxq5A8v9fuH4Waf0fIIz3c1NT+TKORYvj2LfkZvk7Cvi+6pWY1LaTlH3LB7O498k2C3mZ80WuCdxJuODM0vllobCkad1Z6uMW/McCz149j+AotAinr8M5z94l+Xv+E+o6mt3H6sVYy1IWHO5cEFPITthu1rRIxNjo55O7Yer+aKj9z45cnjgkwyQmsjWLBgdRbgYGTecnkq2qTfykSMNAySgxPGMB1O12pFkVlY2ZKxs7T0u4+VftuX7tG0jZ4XZE9yosCZFfouNdhjtCoaZ5ZqirhwTHnVotkc1/v1y7Eyt2JZyiRVASWQBowB+e+qTUCBVj8mBBRHAg2B1Xm0drtKvq+YDHG/GsEIV9RGGaCfnB9VYHECcNn4ZwNu1r/nfcGFPLHBhPJGqIygn3l3a2qFxOJcY9bA/9fI4obV8fUavaUah7UsXXUoirvCUvu2I1mqLfjBv/tYdGaqIX+93LWst6FaxeXMNFvad0vCPlr7GjHbbOtwG817emeJ05LjvrPmrWT8apvwT254A5ahlBGcyFCB74xtO4df6VeCC7Z1SOmNA9Exn/4cM9VahDyT7bNxi1U489nDtlifBXJgoc7s6xa/pyjHSr1nWQ8bFvXMjkrJY9taLZs5FmeiWLuzgCGLECXPbAvlLVvcfdDrHK/Y19ueWadXrouc2Zb2uvb1fXbIq69er/P5iBSLdZ5tGr9Nb0bpWG6R3lTh/4vtp9ho5QXpzTQ+S/Wr1HvyRtWUYFXzNr2Z4u2T6piXenuFKHo4vSrXtfQG8Mrnn5uxho7uNsrnsicp7XL0x/kU3zGqj51VRoK3RVqsExRT41xdnT//pjjh4fv2Cl5Jj1beK1JnDaacglWwiVMcwIPqfi+viPLhekmr9a3YY8KerLR+3stpLv5yL5hkHnwv5dYObwHV77kp/w8lioZegTYP0ixWTnpMsDtW5bWY010Aa4VmhEAMUmvJu+QJZ8JuKMwB/OSUF0+TKUKZZMxwmU6hd9PILX3uCjUL8JBTXwD/peepxM9p8Vku2aZLilB49N6agOi5tM9MgQCSH50Bd36aVFivCBieKNPkac3iuzWOf8T0Xgz7vfLmJRMh4fr2tJKlkj1SwU/gypvP4TFEkHdaQosAvMP/efTZ3wqdx0JWeMx6wFcmQwDfwvrcGE6nc+X2z/Tr+DxOhIGAvNd01P5NvSpacr1aKR7XApybnDoOuMmkyPOYo/3OABUdpSkbvLqbtBTwj7tcebz/PN5/Hu8/19UoByvBTrAQ0gRhEATCCWKNOCKeEdshi0k5OAmDQ2kErkQF8Zu4IUaJTmIjilEOJQInBBCIQ4nn/olyyBHBhHKJUkqEWCDSiakoBVGWBgBEEJHrjygHPZFFGIX19BC9RAhxi6hWCGR/dJTDhiglsLUVES8Ir/FR7j+MewOCiJAhtAksgiIr+FwiMUysEq+k5BGYQYSJT8T3qE850P9CeBhS1YaI55QTQC2gg7AmSEUNxHuimcgmHkkgMgn3tSDwCD+iNsoTJqgAEcAlwDnALcDJGdQmBAhOgo8QLuMQcWsJjpSjOmHRVqqCICBs7pJpyDsP5CGqQ/zJggDgE2AFYBkgu9GGQoJxDeHG+5xgjuaOcQS5UgiBT/CGEZ2UVOKNaGhP/beVRTOIiggQDkVzR6nQhWuJz8SvwkyhiULRCl+DM4wYIx4QwwZCrZRABaI3iK1SeCCuiJLxu8MoITyJaa6GsPT9eUqUE2ihJsQJ4WsKxFKpMPgmAq0hJj8kBIdFcxBnRB88EHlEFHdIiA9EBzE0zAORTBD7OtnVkYXCB4NmtAsxA0YTTYnEMbEY3T0TYcQ7tjQRPjIlxHUmAIKBMPV1IiCQgFxTBBKVYLQl6BAtl90/AwCh1XWb3HVJRq3h4xFNFGLiJU4zRM8Q7XcD6E+kKbScTyPsjhIRnaMLCCFClV+mAaLpkgwArRF9FcIqzCByou9fs+ahRjQ25rrDQzGxZ3qC5+khhFQegRGJ7UzMEvvEEz0yK3RvVrIyN3Y0MUecEq/1OP89oTkjM5X4NvTgRONOAcFNKKWtLDxRSowf761JogdCLjPfhPatMKNDyEn8UK+NCLYaBA1BvTepdFeMnt6ns9t2cHYPm5hhTm8QPB92ndyIeDpsYqxABUKEURHm8qi7r26ZmE/oOI9YUfPht2skMfthon/eaDUdiCRCP1sIoIjB7T0IicWRIPI2fafFjElrCHpBwlqim0g5o8Ui4ieAyWOJQEOEgEzClnBsxhpq5tj5SuLnEAphHij3IAYWquOMqoQTYbKZx8zXKj6ZInDo6dRcgisZwHoiOj8LKNxwjbOeiK3TkVUueI0YKV/soRyEB8C4YC7dG9uKVrswZ7eCW+5W5EPyiYKxiiFdtoYwZ2fCydTQBgDoDx2WEa6XpSpK28zToQexDABEAFG0ItcAxFtMJhq+EkWcJOyHyCkhwg/Ja7YuWdWAhP84mYjclkTMWsbrhKw4eLdzHTd6CH/z7VdlshqM7Qdg82ucW01lyGa1klo9pWTetUOtqy9hKNfVYaVC1LBdhKhuujM8/7JSSb/BjBAhw7/r+Qap2owm1GfKE0i1P5SRrk7bEeK1paKqj1OJmkjoEZeshTSXnFnpKjXlJwVR9iijUURFFsGkE9NkJRGPeatAp2SUyNAzqROzZH2Vbt46qVWBv2AYIGrJ+W7kYT2S5n/hOWJLM4WvFuVIjPn7QhWTUj8UEg15qSIx4tmw/HRhHBYTKp5HWD36ACRtEybW7tyVM/hlFycgzJt7N1TU7qZlIIpviQGQKAmTNiZix3qxC7YJxMZCVODEhJd0FUWKcjIklmNaMUoI1kIjSFaJzsWR5BFCE6MKO/uUxPR1bHFE54X0v5YBzTflHM6OH0U4MCVTVgumqjOv16YfphWdX0LoEsZsvC7IECrh8OWsW02ntO0SQt5lFe9bPQMo7p0fqjEOQGRQTBiovU1i0XtXOehkpHdoOIeNloEDLmdDd5KFwzq58W2pQPWBQqU3XUkEUu8YIPbBXo4YCt96Y8VUBIP1c0S73JlDpIKzt9/Bw0huRhTm69NnsVCBdVuASGz7LqylSrvP1pFIHCZKJMQR+aMeVc/1MuCPz3MNkxt5eK07J2GUh4VCBXETUXwRwN86cd7d4eGJR9igH4T3v2Ajosp2oKwMsczEnmn2fRZ4IF6J9fkQIkNYV4ketupiWD7MLsOFTrqbj7qlA+cI/lPNUg/z13A6cstca6EtGow9PGbqw5n3OZ/537ZfoM17hdyJeoRPsG6nNjGvpcWzWhqJ+RZusmgP3z1H6Gjomt5GVHBoDAA05D+IOThPLZK5YETXywCIqEc9HF0BACP3SzeGqgD4ieDvzadSBEDRMNEA5NkeGhMvJY5ub7xTqTFOZDBqh01DGFB9P5coabkml9G6POslMEYSVZLLnD3LeWIkAAgi1hGRksQlodFZk+q85d+RWPhPBvyfh8jcoXrWa/PdnSShzFc916to0AYie1mD3MUgXLIBVGwgtwqLADQ7LWngM+fk8g9OANB4HrRKYR6AtSkyIT2rX9wpSWrGpylncVibnxknzspTDEIPD18A7JjLF8918hWwnTAJAHx2D6OdNGZKIbw1Icz4VBkMgc++ETLx90/S1BnOPv3yhKqCiHuaKYiT9zAb4o8CyJ4KIPKeQuHrANDLA5v7YyHnrpsB/PCBHjEZANIny6i5JQZArR6MvMsq8hc9WiTVvP6AwNNH+TxRiGzJr/FMHHALoNMaVU5wI/QM8Aiv1WK5rJ0P6nVSd3l/ZNk/fy8q6t0hEdql68WtGYKCUfLk7RS5iOUARiwBUCFeJ3rL3gZgwofA/BoAru1VkDl0MpBU4Tkt1rKJfGMFpZxLQo1HKcfAHMWidZUZg5/KEA/GXxXE3s9N4KtiFjXlmoKJAxjEZmNgFV8MVJVsp8Xkpz0EG7CmfvZViZ7c5i13xhhLM6/i9vGpHdr1SqoMIK+quABunHxUSiQ9DOByJsCqvXZzVXmwFixfF8AdSzVzhB42r15VrVEjuZwFvRkXDb7xPrfYwDHG0GSVrL4RbqIXCA14XCn7CABg+SiUOIylKqac0OHDJiy8ngi8HbgoUdO62irjeRinzmgPadNllCqEhUTfrKuHOfcpnwA0qQAwy9mnpVbF5rTUYw8br3mvYljK7CMbZ4cEpg1lHJtljA/EOHIuoxgqejh83qWs5PZtgBLBG/gmKf0wY5CK3tt04A7q7lAlwnkGIAlTTNqfWcBs6dQlJtzYYkDR40AHXVEGPoieC6VG5EzHAkEC0cSvdOEdI+xrLW6qJmt65TEZjJUZj5ZxHfo3TvGJWXSrisgJ/SaftVxSxYwGdUzLHld+NZFtuBmniQGygCwD6BuX5LsfmiHtqsEjGDdf4jqIGiPNNJ2bg0EGqpRlyo1RMtFlmUo9ZTrkM44uEecB0XobTCw9WMA216RtuWKttEqm6C53Hn1GgxpJBirRtv7/ErTpkiHc5ygP9oT0y3EDfyRoo8RqL2CUKBmxnvc+Skt5sKWkK2PtYYRS2eg6qZxLR7VGklRD6tff9TU29terlTDeNuXvF+DE97WS9bZCkerh0zRVC5oxdvsfm9s9voZgSXaz624UEsBjdNl2ULicZF38QNmOk9lUzB0mph/uUFKJRxobkehwnSr67NDhhITOO/8EQ+XDrffuDCthFq/QOD8BSN9aTVfUbBZIIwJvlPgDz1Ziia8rnpoliY78Gd06OMKSOAZAZ96SE1Rs5ZOuBNjLqPu2gtpc5mEgWI/xY6aC09Bh4mhO81VDjW70X3vh2LGrML3IfILtVXTZyxvEa2X+bWze72STYaYgZsmHWqb8Q2EKsrDvXr5B9G0TOYTYVMZqADVDzEasUFD/aYkreoSR9rCcJQ9rMYzYZUT2ycVkn5+tptk4AGeV3MOmhHFGspG8OVHVzCEh/vDI7n7SVB7NlK4EaZMBBHn0u09srCV/VnN+c1j2GhAzk7elPO6vcX8TxkIAKfyOl7/Vlzc8jxifewlA8xSezekgZXo2tMqfGMnTqwRlDB84c6USog4Alt2nwvWwxTgprLV/fkvO5u17NrBuHjQUQNVJCmp8t/qF3QLhsOru8RlTb8i/miEbHERLbQC8SmMeFrt7/puzyqSsv+GqaCEE370OXxQav5clGcgb+BbOSzz7wMVskl14yJVsxqrWAPIfY1RdGpLd2lsfehzhi/uzy/aJVXh0OEAkvnyPioOrWej7jSLOaM9CK+NkvMCm1tW9MsIt/v+2Wt3eWgCAqGbN22mnlEnoc3rnvGt8Tm8DUJWgFPn0lXTgoeESko/Xlc7lozK/8viRpSc2FiH5ZPrmWyRL9YLXRQXiVtyALp8EAZQ8K+xThsYK9QM3JV9+0YhFl/UFo7nxFPfFA1xG0tjH1rI82mRol4F1hQomsHmWNWQ7GyP3b1inkDeqD+uOfU0l7KvAUnljYLzUYZmKROm7bwE4uXX8JQDJrEuGvTpewsP9gexOG6cIQeH7ANocFnjo3H8S7CzhqwiAGMk+e5F8VyQ1ZVg4WT73F9wgGw3LBAG5fe+9veTq46KeLuCcFPcl19a7eXl2Q8nWyrfCD+gjZgFrHT+ytgKh+AYMlAni2D4+JSX85z4h0RSENOWN/6963L19RJiKMIHneFsdbV9bMBhfSG0vPuCO+uIvWjMuf57OfPhPwGk6F8CJwy2AGsNCyPyR35GZmc/o8BGbtTKP+VIjI9W/9qbcSrXVk1ZNElW/rRnZyvLQfyiBWWWl5nR6bDdUlAg2qujS8S01ut8k2K+PzKnZlzw0qnq2SqvUsqO38Kiut5ioF4bn7qUHc7MKX+O51PyzEJgVYIPIyS+p3WkvcOwAG3KBLycW57V947+Pso6XVjFp5Db9yqsc3awYHf5nilRXhg6D5bqLVASLtOtbO6TDjZd0ohit22AGmHW/2IsXhImeUCiZSDLvSGf4FUldpzmq/80SLyrPTU4W/AFFe8Zs6DZMi080dtcT6ykZ9oqiI3fNVjJon8rBvVVO+ME3oV3Wro4kq2r8ip680k8SVYT+ngOTiN2akqpScvtDUhHT1qrofQNk7EgTGc1urV6rnMwfTVHHVovnufMV5Dffr7V7Pu2F5oSktKlnPqDuxVW7Osho/VYLpa5F47d1FclwyvdSI3GXchtMv9pE1gjt+mn3zviZ0sCo6J3pgAzNSiVLds6P/BCSNuh3NRUan1l6qERW7duaqobYFnEw9RrJ3JB3UqU1+KNWrqvWox/3WZZ3YCXTcLjylWvQLc98vLVufFUAZ3qPPKgjK7Ln6poDBzKB0K5bqx3XGuUPTD0Ufx4o2vVkU4x8V5Zbui89ApTJR/zmH6/+YRyA4uKDG2CgnJn/7B2f3ekRcHiAvB3Kz09F4e0KVsyIhIPSnbctzz/Zt5Rpr9VOI7Pa6On67ftfBtD5zIMtNGzHvE9fWBIpO3yh4q280849Wa//DACjB7X7Gvql8KbsEMKpqTBaTo4IhSO5RjJxT1cNhTNCBnRdnh/MSrrmAFcCfCQwt1lP4bj+QDAVxsu4+GA4opSn9ZN+0FDy9aQfBwbDMfo1u3MJgFhNSYP2KOP2bz2dEbNrLaKRsoqb2GJYxZI2v6ac4VPYc3NrSHL1FzsVDdko312PZctPyBKypvHjAC5UishMMneJ37GGzw/wSHzhw5JHZzCuWEPGLeL5rOYrvmbE7xAiH6v4yRc3CfHD7Ttjw4W9hFxUh7GW8dvr9KLoq7CMhJtoJXsehHUsweJh6iW2IyxlufneYFgaAE+H1SwTu3wzt24ojGBWj0XVUmE9SwR3Tk4uCWZgJfxaAQA=;" parent="42" vertex="1">
                    <mxGeometry x="50.35000000000001" y="127" width="74.31" height="69" as="geometry"/>
                </mxCell>
                <mxCell id="9" style="edgeStyle=none;html=1;entryX=0;entryY=0.5;entryDx=0;entryDy=0;fontColor=#000000;strokeColor=#000000;exitX=1;exitY=0.5;exitDx=0;exitDy=0;" parent="1" source="23" target="35" edge="1">
                    <mxGeometry relative="1" as="geometry">
                        <mxPoint x="159.75" y="324" as="sourcePoint"/>
                        <mxPoint x="292" y="324" as="targetPoint"/>
                    </mxGeometry>
                </mxCell>
                <mxCell id="39" style="edgeStyle=none;html=1;entryX=0;entryY=0.5;entryDx=0;entryDy=0;strokeColor=#000000;" edge="1" parent="1" source="35" target="38">
                    <mxGeometry relative="1" as="geometry"/>
                </mxCell>
                <mxCell id="35" value="Cloud Storage&#10;Raw" style="shape=image;imageAspect=0;aspect=fixed;verticalLabelPosition=bottom;verticalAlign=top;image=data:image/png,iVBORw0KGgoAAAANSUhEUgAABLAAAASwCAYAAADrIbPPAAAABGdBTUEAALGPC/xhBQAAACBjSFJNAAB6JgAAgIQAAPoAAACA6AAAdTAAAOpgAAA6mAAAF3CculE8AAAABmJLR0QA/wD/AP+gvaeTAAAAB3RJTUUH4wEUEwMyQ4U1ngAAgABJREFUeNrs3Xm4ZHV9J/7P91Tde3tf2FGRRQUBjSJJFEFtelPHaEwiZptsk8XJJEFEkN7AUnrDBRoTJzpJJtsvkwlkkhhNkF6gI6hx30EQN1RQhO6ml9t3qTrf3x9IwtLL7e6qe6tOvV7Pk+eJdPe9p97nW1Xf865PVUUAAAAAAAAAAAAAAAAAAAAAAAAAAAAAAAAAAAAAAAAAAAAAAAAAAAAAAAAAAAAAAAAAAAAAAAAAAAAAAAAAAAAAAAAAAAAAAAAAAAAAAAAAAAAAAAAAAAAAAAAAAAAAAAAAAAAAAAAAAAAAAAAAAAAAAAAAAAAAAAAAAAAAAAAAAAAAAAAAAAAAAAAAAAAAAAAAAAAAAAAAAAAAAAAAAAAAAAAAAAAAAAAAAAAAAAAAAAAAAAAAAAAAAAAAAAAAAAAAAAAAAAAAAAAAAAAAAAAAAAAAAAAAAAAAAAAAAAAAAAAAAAAAAAAAAAAAAAAAAAAAAAAAAAAAAAAAAAAAAAAAAAAAAAAAAAAAAAAAAAAAAAAAAAAAAAAAAAAAAAAAAAAAAAAAAAAAAAAAAAAAANBVkggAps7i9XnuSI5CEgDQ3aalKDcvSw9LAmBqKLAA2mDRmnx8UY+TWrl1Yor0lJTjxDLFU1JOJ0aUx0ekoyMiIse8lCLliHkegwGgJ+UUsSPnyJFixyP/JT8YqXggp3x/keO+iLivTPn+nGv3DdTjOxsvTw+IDeDIuHgCOAQXrMvzp6U4O3J5Vo44OyKdFZGfExEnSAcA2M9V146U4+sRcUcZ8ZVI+Y4i176yeXn6hnAAJvpQCsA+LWjkehqMc4soz48ivSRyfnFEHCcZAKBNfhCRPpYi35ajuL01Gp/b2khNsQA8mQIL4EcWNHK9PtS8IOfiwkjpgoj8woiYKRkAYJLsySn9e5Hz7SkXt857Ztx+4+tTSywACiygz726kWfsmdZalHL6qYj46Yg4XioAQFfIsS2ltCVS+aGI2gd8iDzQzxRYQN9Z8I58QtEqX5dyek2k/LKIGJQKANDlRiOnrZHyP9fqxd/7YHig3yiwgL5w0Q25tv3rzQsjar+TI782IgakAgD0qFZEujVH+b8ePqr2T595QxoXCVB1Ciyg0hatzWelVP5qjviN8AHsAED1Lui254gbUxTv27w8fU4iQIUf7wCqZUEj14uh1kUpx6WR0o9LBADoCzl/MhXx7vmn1f6fD38HqkaBBVTGgkaeVZtW/mbkeFNEnCwRAKBPfStHvK9Ixft88DtQFQosoOctWpOPT0X5uznHH0SKoyQCABARETsj4i9aRfHOrVek74oD6GUKLKBnLX1nPq45Xq5KKd4QvkkQAGB/RnPE/ywHirVbL0sPigPoRQosoOcsfWee2WyWv58ilkfEXIkAAEzI7hTx3oHRYu1NjbRTHEAvUWABPePc9+eB+dvK38gRb4uIEyQCAHBYHswR7xqaWWy46eI0Kg6gFyiwgJ6waG3ztZHSuyPiNGkAALTlYvCeMuVLb1lW/6A0gB54zALoXkuuyU8pc74+cn6dNAAAOnJZ+KGU0u9tXpbulQXQtY9UIgC60YJGrtemlb8XOa6OiNkSAQDoqOEc8fZytHj31kZqigPoNgosoOtcuC6fW+TW+yKlH5cGAMCk+kIqiv+++Yr076IAuokCC+gaFzXy4LahcnVEvDkiCokAAEyJVuS4ZsfRReMzb0jj4gC6gQIL6AoXXpPPKHL5fyLHC6QBANAFcv50Ua/90qa3pK8JA5hqJhyAKbd4ffNXi7L8tPIKAKCLpPTjZav8wqL1rTcKA5jyhyQRAFNl8fo8N5fl+yLFL0gDAKCrLx3/X30o/c7Nl6ZtsgCm5FFIBMBUWLgmvyAV5T9GxNOlAQDQE75VpuK1ty5LXxAFMNm8hRCYdIvXN1+fivK2UF4BAPSSU4pcfnTR2ubrRAFMNhNYwOTJOS1cX74lRazz+AMA0Lu7uhTxjgtGixWNRirFAUwGF5DApDj/mjx7Ws5/FTm/VhoAAJW4nPyXwdH0Szc10k5ZAB1/xBEB0GlLr86nturlhyLiLGkAAFTKl2qt4lUbV6XviALoJAUW0FGLr8ln5rLcGBFPkwYAQCXdWxbF0luvSHeJAugUBRbQMReuGzs3RXFTijhWGgAAlfZAivIVm5cPfk4UQCf4FkKgIxauH39pEcUtyisAgL5wXI7iI0vWjC8SBdAJCiyg7Ravb74q5fThiJgjDQCAvjGrLNK/LFrbfK0ogHZTYAFttWht83U5xz9GxHRpAAD0naFIccPCdc2fEQXQTj4DC2ibRdeML4kyfTAihqQBANDXxnKK196yrH6TKIB2UGABbbFw/fiLU04bI2KmNAAAiIjhyPkVW1YM3CYK4EgpsIAjtmTN2PPLWnFr5JgnDQAAHuPhMspFty4f/IwogCOhwAKOyKK1+fRIrY9ExPHSAADgiXLED4ui9rLNV6Q7pQEcLgUWcNgWr89Pz7n18Yh4ijQAADiA7+RW7bxbVqXviQI4HL6FEDgs512bp+ey9f9CeQUAwMGdlGrlB1/dyDNEARwOBRZw6HJOM0Zbfx4pflwYAABMcBN5zvC01l9Gzt4JBBwyBRZwyBavb741In5eEgAAHJIcr1u0vlwmCOBQab6BQ7JwXfNnUsTfhwIcAIDDU6YUP7t5Wf0DogAmSoEFTNiF68eeV+TioxExUxoAAByBXbWy9eKNK4e+LApgIhRYwIQsfWee2Wo2PxuRTpcGAABtuBi9Z29Re8FHr0i7pAEcjLcAARPSarbeq7wCAKBdcsQzp5WtayUBTIQJLOCgFq1tvi5S3CgJAAA64Be2LK//nRiAA1FgAQe0dHU+qay1vpAj5ksDAIAOXJXuyM3a829Zlb4tDGB/vIUQ2K9GIxfNWuuvlVcAAHRMjnmp1vrri27INWEA+6PAAvbrI0PllSniZZIAAKDDXvLQ18tlYgD2x1sIgX26cP3o2UWufS4iBqQBAMAkGEtF7fmbr0h3igJ4IhNYwJPlnIpc+6NQXgEAMHkGc9l6X+Rs0AJ4EgUW8CQL17d+MyIWSAIAgEn20kXrWr8qBuCJNNvA4yxam4+O1PpqRBwjDQAApsBDg7l25k0r0g9FATzKBBbwOCm1rgvlFQAAU+fo8aJ1jRiAx12rigB41KI14xdGkbZ4bAAAYIrlIucLN60Y+DdRABEmsIAfueiGXIuiuD6UVwAATL1UpvifCxq5LgogQoEF/Mj2b5T/IyI/VxIAAHSHdFZtqPwdOQARJi2AiLhgXZ4/FK2vRcTR0gAAoGvk2BZRO33LivSQMKC/mcACYii3rg7lFQAA3SbFUZGaVwkCMIEFfW7R2nxWpNYXIsLnCwAA0I2aKbVesHnZ0JdEAf3LBBb0uZRa14XyCgCA7lUvo3adGKC/KbCgjy1a23xtjlgqCQAAulnKsWjh+uarJQF9/DggAuhPFzXy4Lah5pcj0rOkAQBA18vx9cFZtbNvujiNCgP6jwks6FPbp5WXKq8AAOgZKZ4xvqe8WBDQrw8BQN9ZtCYfH0Xr7oiYIw0AAHrIrnpZO+Pmlel+UUB/MYEFfXnPb60P5RUAAL1ndrPWuloM0H9MYEGfWbhm7AWpKD4VCmwAAHpTGVG+aMvywU+JAvqHC1joJzmnVBQb3PcBAOjt69hiQ+RsIAP6644P9ItF61u/FBEvkQQAAD3uxYuuaf28GKB/aKyhT5x3bZ4+Y7T11Yh4ujQAAKiA79bqtWdvvDztEQVUnwks6BMzRpvLQ3kFAEB1PK1sNi8XA/QHE1jQB5auzie1aq2vRsQMaQAAUCF7c6t25i2r0rdFAdVmAgv6QLNovSuUVwAAVM/0otZaJwaoPhNYUHFL1o6fX6Z0m/s7AABVlVN+2S3LBj4iCaguE1hQYY1GLspIG0J5BQBAhaVcbGg0sutbqDB3cKiw2wdbvxkpflwSAABUWz7ntsHWb8gBqstUBlTU+dfk2dPK1t0RcYI0AADoAw+kVDt987L0sCigekxgQUVNK5tvDeUVAAD947gczRVigGoygQUVtGBdfmYtWl+OiCFpAADQR8Yi1567ZUW6WxRQLSawoIJq0doQyisAAPrPYEqtd4oBqscEFlTM4nXji3OkTZIAAKB/5VduWT7wYTlAdZjAggpZ0Mj1MorrJAEAQJ+79tz35wExQHUosKBKd+jB8vdT5OdIAgCA/pbOnL+9/O9ygArdq0UA1fDya/NRzdHW3RFxtDQAAHCxG9ubA7XTt16WHpQG9D4TWFARrdHWmlBeAQBARETkiPm1sVZDElANJrCgAi5cP3p2kYvPR0RdGgAA8B9aUZYv2LJy6IuigN5mAguqcEcui+tCeQUAAE9Ui8KXHEElrntFAL1t8brmz0WKJZIAAIB9WrhobfO1YoDe5i2E0MNe+Z48NL6n9eUc+ZnSAACA/V76fqM1Wjt7ayONyAJ6kwks6GGje5qXKa8AAOBg8mn1ac1L5AC9ywQW9KhFa/LxUTTvjog50gAAgIPaXRT1MzZdke4TBfQeE1jQs/fe8XeE8goAACZqVlm21ogBepMJLOhBF64bO7eI9MlQQgMAwKEoc5HPu+WKwU+KAnqLi1/oNTmnFOl6918AADj0a+BUpg2Rs2EO6LU7rwigtyy+pvUrKeJ8SQAAwGE5b9H61i+JAXqL1hl6yKsbecbw0PhXI9JJ0gAAgMP2vVq9fsbGy9MeUUBvMIEFPWTvUHOF8goAAI7YU1vN5hVigN5hAgt6xNKr957aqtfviIhp0gAAgCO2txXNs7Yun/4tUUD3M4EFPaJVr78zlFcAANAu04tcu0YM0BtMYEEPWLRm/MIo4hZJAABAexU5FmxaMfBvkoAuv6+KALrbRTfkWhRxnSQAAKD9yiI2XHRDrkkCupsCC7rcQ18f/+2IeJ4kAACgA3I8f/s94/9NENDdvIUQutiCRp5XDDXvThHHSgMAADrmgdZo/YytjbRDFNCdTGBBF6tPa75VeQUAAB13XG2ouUoM0L1MYEGXWrp29NmtVHwxIgakAQAAHTdeFq3n3nrFtLtEAd3HBBZ0qVYqrg3lFQAATJaBoqy9WwzQnRRY0IUWr2++KiJeKQkAAJhUr1q4vmkfDl1IgQVd5tz354Gcs1d+AABgKuR87bnvz94JAV1GgQVdZt625sURcYYkAABg8qWIZ899aPz3JAFdd98EusXSd+bjWq3mXZFjnjQAAGDKrpR3DJb1029akX4oDOgOJrCgizRbrdXKKwAAmGI55o2n1tsFAd3DBBZ0iSVrxp5fFunTEVGTBgAATLlWmfK5ty4b/IIoYOqZwIJueXYs0oZQXgEAQLeoFZGuEwN0BwUWdIHF65uvTxEvkwQAAHSRHBcuXtf8OUHA1PMWQphi512bp88Ybd0RkU+RBgAAdJt874zRgTM/2EjDsoCpYwILptiM0eZlyisAAOhW6el7hppvkgNM8T1RBDB1Fq7OT0215l0RMVMaAADQtYZrrfqzN65K3xEFTA0TWDCFUm38mlBeAQBAt5vRqo2vFgNM4fWzCGBqLFo7fl6k+Kj7IQAA9IScUrx087KB20UBk88EFkyBRiMXEbEhlFcAANArUuTY8KO9PDDJ3PFgCnxkaPxXI8VPSgIAAHpHjjj39mmt/yoJmHymP2CSLWjkWbWh5l0R8RRpAABAz/nB4Gj99JsaaacoYPKYwILJvtMNNleG8goAAHrV8eNDzbeIASaXCSyYRIvXjZyWo/aViJgmDQAA6FmjrWg9Z+vyafeIAiaHCSyYRDnV3h3KKwAA6HVDtaitFwNMHhNYMEkWrhtfmCK2SAIAACqiiKVbrhjYJAiYjLsb0HEX3ZBrKeI6SQAAQIWUcd2CRq4LAjpPgQWTYNs3xv97RPyYJAAAoFLOLobGf0sM0HneQggddsG6PH8omndHxDHSAACAismxLaJ++pYV6SFhQOeYwIIOG8ytt4XyCgAAqinFUalorhIEdPquBnTM4mtGz8xl8YWIGJAGAABUVrNWludsXDn0ZVFAZ5jAgg7KZXFtKK8AAKDq6q2i8KVN0EEKLOiQC9c2XxMRr5AEAAD0hcWL1zdfJQboDG8hhA64qJEHtw01vxQRp0sDAAD65QI73TMws/acmy5Oo9KA9qqLANpv22DzksjKKwAA6Cc58jPHdjV/PyLeLQ1oLxNY0GZL35mPa403746IudIAAIC+s6tVr5++9S3p+6KA9vEZWNBmrfHW2lBeAQBAv5pdNFtvFwO0lwksaKPF68bOyTl9OpTDAADQz8qizC/ctGrw06KA9nCRDW2Uy7TB/QoAAFxrt4q0IXI2NALtulOJANpj4brmL0aKl0oCAABIEecvXtu6SBLQtvsUcKTOuzZPnzEyfmdEOlkaAADAI/J3ZowNPPuDjTQsCzgydRHAkZu5d+yKnNLJEVkYAADAo04aHmq+OSKuFgUcGRNYcIQWXDP8tFqr/tWImCkNAADgCfamovXszcum3ysKOHw+AwuOUK1Vf2corwAAgH2bnsvaWjHAkTGBBUdg4erxF6ci3+6+BAAAHECOSC/bsmLgNlHA4TGBBYep0chFKvKGUF4BAAAHliLyhkYjuwaHw+TOA4fptsHx34iIn5AEAAAwAS/4yOD4r4kBDo/JETgM51+TZ09rjd0VkU6UBgAAMEE/GBwbOP2mRtopCjg0JrDgMEwrx65UXgEAAIfo+NHBseVigENnAgsO0cKrR56RasVXImJIGgAAwCEaK1rlczZdOe1rooCJM4EFhyjVa9eF8goAADg8g2Wt9g4xwCFei4sAJm7JmvFFZcqbJQEAABzRxXhOr9i8cuBmScAE7zMigIlZ0Mj12uD4ZyPiudIAAACO0B2tsYHnbW2kpijg4LyFECaoNjj+P0J5BQAAtMdZtYHxN4gBJsYEFkzAyxv5qObg+N0RcbQ0AACANl2Qb88x8KwtK9JD0oADM4EFE9AcGL86lFcAAEAb5Yj5OcbfKgk4OBNYcBCL1o6eFZG+EBF1aQAAAG3WSkU+Z/OyoS+JAvbPBBYcRIq4LpRXAABAZ9RymTaIAQ5MgQUHsHDd6M/kSEslAQAAdPLS48K1I68RA+yftxDCflzUyIPbhsa/HDmeJQ0AAKDDvj44a+Dsmy5Oo6KAJzOBBfuxfbB5qfIKAACYJM8Y2918oxhg30xgwT4sWpOPjzR+d0TMkQYAADBJdtXzwBk3r0z3iwIezwQW7POeMb4+lFcAAMDkmt0sxleLAZ7MBBY8wcI1Yy9IKT4VCl4AAGDylZHiRVuWD35KFPCfXKDDY+WcUsT17hsAAMCUXafnuD5yNnACj7tjAP9h0fqxX4oUF0gCAACYQuctXD/2C2KA/6TRhUefIa7N02eMjH81Ip4uDQAAYIov179bG6g/e+PlaY8swAQW/IcZe8eWh/IKAADoCvlp5djY5XKAR5jAgohYunr4pFZR/2pEzJAGAADQJfbmsnXmLaumf1sU9DsTWBARZTHw7lBeAQAA3WV6KmrrxQAmsCCWrB0/v4x8m/sDAADQjXKRXnbLsoGPSIJ+ZgKLvtZo5KKMvCGUVwAAQJdKZd5w0Q25Jgn6mQKLvnb70PhvRcSPSwIAAOhi52y7Z/zXxUA/M3VC33plI88ZGxy7KyKdIA0AAKDLPZCKgdM3L0sPi4J+ZAKLvjU2OP5W5RUAANAjjst5bKUY6FcmsOhLC9aNPLOWiy9HxJA0AACAHjEWUT53y4ppd4uCfmMCi75Ui7QhlFcAAEBvGYxUe5cY6EcmsOg7i9eNL845b5IEAADQm1fy6ZVblg98WBD0ExNY9JUFjVzPOW+QBAAA0LPKfO25788DgqCf1EVAXy34gfE/iIizJQEAAPSsFGfOe2j8dyPiPcKgf5Y99ImXN/JRrcHxr0XEUdIAAAB63Pbm4MDpWy9LD4qCfuAthPSN1sD4mlBeAQAA1TC/Pjr+NjHQL0xg0RcuXD96dq1Mnw9vmwUAAKqjlXN+wZaVQ18UBVVnAou+UC/TdaG8AgAAqqUWKV0nBvqBAovKW7R29HU5YokkAACAqkkRC5esG/0ZSdAHax2q65XvyUPju8e/HBHPlAYAAFBR32iODZy9tZFGREFVmcCi0sb3NC8L5RUAAFBtp9WGmm8SA1VmAovKWvCOfEK9OX5XRMyRBgAAUHG7U238jE1XzLxPFFSRCSwqq94cf0corwAAgP4wqywH1oiBqjKBRSUtXj32oijiY9Y4AADQR3JZxotuWTX4SVFQNSawqOBDdk5RxIZQXgEAAP0lFbW4PnJ2LUTlKLConMVrx38lIl4oCQAAoO/keNGStWO/LAiqRitLpSxo5Fn1weZdEfkp0gAAAPr0Uv97xUD9jI2Xpz2yoCpMYFEptcGx5corAACgv+Wn5rGxK+RAlZjAojKWXr331LJWuyMipkkDAADocyP11Drzw8unf0sUVIEJLCqjrNXfFcorAACAiIhpzVx/hxioChNYVMKiNeMXppRvkQQAAMBjr/rThZuXD2wVBD2/lEVAr7vohlzbds/YZ1LE86QBAADwn3LEF4565uC5N74+taRBL/MWQnre9nvGf0d5BQAA8GQp4nnbvz7+m5KgAmsZeter1uX5o+Xo3ZHSMdIAAADYl/zD5tjQ6VsbaYcs6FUmsOhpIzH+VuUVAADAgaRjBwbHr5QDPb2KRUCvWrp29NllxBcjYkAaAAAABzTeauXn3nrltLtEQS8ygUXPyimuDeUVAADARAzUaulaMdCrFFj0pEVrR34q53ilJAAAACbsvyxcM+I6ip7kLYT0nIsaeXD70NgXI8cZ0gAAADgk98wfGzz7xkYaEwW9xAQWPWf74OjFyisAAIDD8sztA6O/JwZ6jQksesrSd+46rhwfvDsi5koDAADgsOxs1sfP2PqWWd8XBb3CBBY9pRwfWB3KKwAAgCMxZ6BZb4iBXmICi56xZM3Y83PKn46ImjQAAACOSFmk9JMblw9+RhT0AhNY9Iycyg2hvAIAAGiHoizLDZGzwRZ6Y8GKgF6waN3oz0ekl0kCAACgTVK6YNG6sZ8TBD2xXEVAtzvv2jx9xsjYHSniFGkAAAC01Xemjw0++4ONNCwKupkJLLrerJGxy5VXAAAAHXHS3qGxN4mBbmcCi662cPXwU4uidldEzJQGAABARwxHUZ65edn0e0VBtzKBRXcv0KL2jlBeAQAAdNKMKIvVYqCbmcCiay1aO35eivKj1ikAAEDH5SiKl25eNnC7KOhGJrDoSo1GLoooN4TyCgAAYDKkKMsNjUbWE9CVLEy60u2D47+WI35SEgAAAJPm3NsHxv+rGOhGplvoOudfk2dPb43dFREnSgMAAGAypR8MjA2cflMj7ZQF3cQEFl1nenNsZSivAAAApkA+fmxw7Ao50G1MYNFVFq8bOS1yuiMihqQBAAAwJcZSKz9n05XTviYKuoUJLLpLma4N5RUAAMBUGsy1tF4MdBMTWHSNpev2LixzsUUSAAAAUy+l/PJNy6dtlATdwAQWXeGiG3KtzMUGSQAAAHSHnNN1Cxq5Lgm6gQKLrrD966O/GxHPlQQAAEDXOKs+OP7bYqAbeAshU+5V6/L80XL07kjpGGkAAAB0lW05Bk/fsiI9JAqmkgksptxoHn+78goAAKArHRVp/EoxMNVMYDGlFl8zema04gsRMSANAACArtQscpyzceXQl0XBVDGBxdRqxXWhvAIAAOhm9TKlDWJgKimwmDKL14/+dES8XBIAAADdLi9atHbkp+TAVPEWQqbERY08uH1w7EsRcbo0AAAAesLXB2YNnn3TxWlUFEw2E1hMiW2DY5eE8goAAKCXPGN89+gfiIGpYAKLSbf0nbuOK8cH746IudIAAADoKbtquXnGzStn3i8KJpMJLCZd2RxcF8orAACAXjS7GbW3i4HJZgKLSbV43dg5kfOnQ3kKAADQq8pUphduWjX4aVEwWZQITJ6cU+TyeusOAACgpxVRy9dHzoZimMRFB5NkyfqxX4hIL5EEAABAb8s5Xrxo/djrJcFk0ZYyKc67Nk+fOTJ2Z0ScLA0AAIDelyK+mwYGn73x8rRHGnSaCSwmxcy9Y1eE8goAAKAycsTT8vjYmyXBZDCBRcctuGb4afVW7asRMVMaAAAAlbK3LMszb1k1/duioJNMYNFx9VbtXaG8AgAAqKLpRVGsFQOdZgKLjlq4evzFRVHebq0BAABUVs5RvGzLioHbREGnmMCiYxqNXBRFuSGUVwAAAFWWUpTXNxpZx0DHWFx0zEeHxv9bRPyEJAAAACrvnNsHx39NDHSKyRg64vxr8uzprbG7IuJEaQAAAPSD9IMoBs7YvCw9LAvazQQWHTG9NXZVKK8AAAD6SD4+WmPL5UAnmMCi7RZePfKMopa+EhFD0gAAAOgrYznyc7esmHa3KGgnE1i0Xaqn60J5BQAA0I8GU07vEAPtZgKLtlqyZu+inIrNkgAAAOhjOb9i88ppNwuCdjGBRdssaOR6TsUGSQAAAPS5lK499/15QBC0iwKLthkYGP29iHiOJAAAAPreWfO3jb5BDLSLtxDSFi9v5KNag2N3R8TR0gAAACAitjcHB0/fell6UBQcKRNYtEVrYPTqUF4BAADwn+bXx8bfKgbawQQWR2zR2tGzUsQXIqIuDQAAAB6jFUWcs3nZ0JdEwZFQOHDEUuTrrCUAAAD2oZbL2BARi0TBkfAWQo7I4rWjPxsRSyUBAADAvqSIhYvXj/60JDjCdQSH56JGHtw+NPrlyPEsaQAAAHAA3xiYNXTWTRenUVFwOExgcdi2DY29WXkFAADABJzW3DN2iRg4XCawOCyL1uw+PqX63RExRxoAAABMwK5abp1x88qZ94uCQ2UCi8NbOGngmlBeAQAAMHGzW0V9tRg4HCawOGRL142dW+byk6EABQAA4NCUZVmcd8uqwU+KgkOhgODQ5JzKstxg7QAAAHAYiqLIGyJnAzUc2sIRAYdiydqRX44UF0gCAACAw5PPW7x27BflwKHQeDJhr27kGXsHR++MiKdLAwAAgCPwvWJg6IyNl6c9omAiTGAxYXsHR5aH8goAAIAj99RybORyMTBRJrCYkKWrh08qi+KrETFDGgAAALTB3nrKZ314+fRviYKDMYHFhOSiuDaUVwAAALTP9GaO9WJgIkxgcVBL1g6fn6O4zXoBAACg3VLkBZtWTP83SXAgJrA4oEYjFzmK60N5BQAAQAfkSBsuuiHXJMGBKLA4oNsGR387Is6VBAAAAB3y/B1fH/kNMXAgpmrYr1c28pzxwdG7IuIEaQAAANBBD0QxdPrmZelhUbAvJrDYr/Gh0UYorwAAAOi846IcXSUG9scEFvv08nUjz2zl+HJEDEkDAACASTDWasWP3XrltLtEwROZwGKfWjmuD+UVAAAAk2ewVot3iYF9MYHFkyxaM7IkpdgoCQAAACZbTvHKLcunfVgSPJYJLB5nQSPXixTXSQIAAICpkMq49tz35wFJ8FgKLB6nPjD6BznibEkAAAAwJVKcedSDo/9DEDx+WcCPvLyRj2oNjnwtIh0lDQAAAKbQ9ubg2OlbL5vzoCiIMIHFY5SDo2uVVwAAAHSB+fWxwbeLgUeZwCIiIi5cP3p2rcyfj4i6NAAAAOgCrZzTC7asHPqiKDCBRURE1Mr8R6G8AgAAoIsuVVPKG8RAhAKLiFi0dvR1EbFAEgAAAHSZCxevHf1ZMeAthH1uQSNPqw+O3hERp0oDAACALvTN5tjQWVsbaUQU/csEVp+rD45dFsorAAAAuteptaGxN4mhv5nA6mMLVw8/tSiKr0bELGkAAADQxXanWuuMTVfMvE8U/ckEVh9Ltdr6UF4BAADQ/WZFq75WDP3LBFafWrx6+EVRFB+zBgAAAOgRuYjyvI0rZnxCFP3HBFZf3uVziqK2IZRXAAAA9I5UptqGyNm1bB9SYPWhRetGfjUiv1ASAAAA9JScX7Rk7cgvC6L/aC37zIJGnlUfHL0rIp4iDQAAAHrQ95pjQ8/e2ki7RdE/TGD1mYGBkRWhvAIAAKB3PbU+OHKFGPqLCaw+svTqvaeWtXRHREyTBgAAAD1spGjlszZeOf2bougPJrD6SFlL7wrlFQAAAL1vWq6ld4ihf5jA6hOL1uy9MKV0iyQAAACojBRLNi+ftlkQ1WcCqw9cdEOupZQ2SAIAAIAqSTk2LGjkuiSqT4HVB7Z9ffQNEfFjkgAAAKBKcsTZtcHR35RE9XkLYcW9al2eP1qO3h0pjpEGAAAA1ZO31camPevmRtomi+oygVVxIzH6VuUVAAAA1ZWOag2NrpJDxc+yCKpr8TWjZ0YrfyEiBqQBAABAhTVbRXr+rcuGviKKajKBVWWtfG0orwAAAKi+er3M14mhuhRYFbV09cirI+IVkgAAAKAf5IglS9aO/BdJVJO3EFbQRY08uH1w9EsRcbo0AAAA6CP3DMwaes5NF6dRUVSLCawK2j44enEorwAAAOg/zxzbPfp7YqgeE1gVs/Sdu44rxwfujoi50gAAAKAP7WzWm2dsfcus74uiOkxgVUxrbGBNKK8AAADoX3Pq4/W3iaFaTGBVyOJ1Y+dELj8VETVpAAAA0MfKIhU/uXH54GdEUQ0msCokl+WGUF4BAABAUeby+sjZ4E5VTqgIqmHRutGfTyleKgkAAACIiIjzl6wfe50YqkETWQHnXZunzxgZvSNFnCINAAAA+A/fmT429OwPNtKwKHqbCawKmDk69hblFQAAADzJSXsHxy4VQ+8zgdXjFlwz/LR6K301ImZKAwAAAJ5kOIo4c/Oy6feKoneZwOpx9VZ6RyivAAAAYH9m5BxrxNDbTGD1sEVrh89LkT7qPAIAAMAB5SjipZuXTb9dFL3JBFaPajRyUUTaEMorAAAAOJgUZbq+0ch6kB7lxPWo2wdGfj1H/KQkAAAAYCLyC24bHPkVOfQm0zs96Pxr8uzprZG7IuJEaQAAAMCE/WBgbNrpNzXSTlH0FhNYPWhGa3RVKK8AAADgUB3fHBhZJobeYwKrxyxeN3Ja5HxHRAxJAwAAAA7ZWGql52y6ctrXRNE7TGD1mrK8NpRXAAAAcLgGyyKuEUNvMYHVQ5au27uwzLFFEgAAAHBkUkov37R82kZJ9AYTWD3iohtyrcyxQRIAAABw5HLO1y1o5LokeoMCq0ds//ro70bEcyUBAAAAbXFWbWj0d8TQG7yFsAe8at2O+aPl0N2R4hhpAAAAQNtsyzF++pYVcx4SRXczgdUDRvPg25VXAAAA0HZHFVG/SgzdzwRWl1u0dvSsFOXnI2JAGgAAANB2zSIX52xcOfRlUXQvE1hdLkV5bSivAAAAoFPqZSo3iKG7KbC62OL1oz8dES+XBAAAAHTUoqWrR14thu7lLYRd6qJGHtw+OPKliDhdGgAAANBxXx+YNe3smy5Oo6LoPiawutSOob1vCuUVAAAATJZnjO/ae7EYupMJrC60aM3u41Oq3RURc6UBAAAAk2ZXLZdn3Lxy5v2i6C4msLpQSrV1obwCAACAyTa7GcXbxdB9TGB1mcXr9pwTufh0KBcBAABgKpQ5lS/asnzmp0TRPZQk3STnFLm43nkBAACAKVMUUWyInA39dNNJEUH3WLx25Bcj4iWSAAAAgKmTc7x40dq9Py+J7qFN7BLnXZunzxwZuTMiTpYGAAAATK0U8d00MO3ZGy9Pe6Qx9UxgdYkZIyPLQnkFAAAAXSFHPK1sjlwmie5gAqsLLLhm+Gn1VrorImZIAwAAALrG3rKMM29ZNf3bophaJrC6QL2V3hXKKwAAAOg204si1olh6pnAmmILVw+/uCjS7c4FAAAAdKeiiJdtXDb9I5KYwnMggqnTaOSiKNL1obwCAACArlWWaUOjkXUoU0j4U+j2wZHfjIgflwQAAAB0s3zO7QMjvy6HqWPyZ4qcf02ePb01cndEnCANAAAA6HoPRDHt9M3L0sOimHwmsKbI9NboVaG8AgAAgF5xXCpHV4hhapjAmgILrx55RlHLX4mIIWkAAABAzxjLkZ67ZcW0u0UxuUxgTUXotXJDKK8AAACg1wymKN8phslnAmuSLV43sjhy3iQJAAAA6FE5vWLzymk3C2LymMCaRAsauR45XycJAAAA6GX5unPfnwfkMHkUWJNoYGD09yLiOZIAAACAHpbizPkPjv53QUxm5EyKlzcePqo1OHh3RBwtDQAAAOh1aXtzcOz0rZfNeVAWnWcCa5K0BgdXh/IKAAAAKiLPr43VG3KYHCawJsGF60fPrpXl5yOiLg0AAACojFYUxTmblw19SRSdZQJrEtTL8rpQXgEAAEDV1HJZbhBD5ymwOmzx2uGfzRFLJAEAAADVkyIWLlq757WS6HjOdMpFjTy4fWjky5HjWdIAAACAyvpGc2za2VsbaUQUnWECq4N2DI5cprwCAACAyjttYGjvG8XQOSawOmTRmt3Hp1S7OyLmSAMAAAAqb1ctl2fcvHLm/aJoPxNYHZKK2jtCeQUAAAD9YnYrFWvE0BkmsDpg6bo955a5+GQoCAEAAKCflGWZz7tl1YxPiqK9FCztlnMqy2KDbAEAAKDvFEWRNkTOBobaHawI2mvJupH/GikukAQAAAD0pfMWrx35RTG0l0awjV7dyDP2Do7cGRFPlwYAAAD0re8VA9PO2Hh52iOK9jCB1UZ7B0ZWhPIKAAAA+t1TW+MjbxFD+5jAapOlq4dPKov01YiYIQ0AAADoe3vrKc768PLp3xLFkTOB1Sa5KK4N5RUAAADwiOnNHNeIoT1MYLXB4vV7L4gyPiJPAAAA4LFSxIJNK6b/mySOjAmsI9Ro5CLKtCGUVwAAAMAT5EgbLroh1yRxZOoiODK3DQ7/dop0riQAAACAJ8vP337P8H+LiD+RxeEzNXQEXtnIc8YH994VESdIAwAAANiPB5pjo2dsbczfIYrD4y2ER2B8aG8jlFcAAADAgR1XGxpaJYbDZwLrML183cgzW7n8SkQMSgMAAAA4iPFWq3jurVdOu0sUh84E1mEqI78nlFcAAADAxAzUauW7xHB4FFiHYcnaPf8l5/xKSQAAAACH4KcWrtmjTzgMCqxDdO7780BO6VpJAAAAAIeqSOnac9+fByRxiLmJ4NDMe2jvH0SOMyQBAAAAHIZnz39o7++J4dD4EPdD8Mq1u44dj9rdETFPGgAAAMBh2tEcbD5r62VzHhTFxJjAOgTjub46lFcAAADAkZlXHxt4uxgmzgTWBL18/e7ntcriMxFRkwYAAABwhFq1ojz35mWzviCKgzOBNdFVVRYbQnkFAAAAtEetVRbXiWFiFFgTsGTd8EURsUASAAAAQBtduHjd8M+J4eC8hfAgFjTytNrg3jtTxCnSAAAAANrsm82x6WdtbaQRUeyfCayDqA2NXK68AgAAADrk1IHBkUvFcGAmsA5g4erhpxZF3BURM6UBAAAAdMjuVMtnbLpi5n2i2DcTWAeQarE+lFcAAABAZ83KZawTw/6ZwNqPxauHXxRFfExGAAAAwCTIUaSXbl42/XZRPJkJrH0umZxSEdeH8goAAACYHCnKvKHRyLqafRDKPixZO/JrOeInJQEAAABMonM/Ojjyy2J4MhNGT7CgkWfVB/feFRFPkQYAAAAwyb4/MDb9jJsaaaco/pMJrCcYGBheEcorAAAAYGqcMD4w/BYxPJ4JrMdYvG7ktMjlVyJimjQAAACAKTJaS8Vzbl4+7R5RPMIE1mPksnxXKK8AAACAqTXUKsv1YvhPJrB+ZOm6vQvLnLdIAgAAAOgGORdLt6yctkkSJrAiIuKiG3KtzPk6SQAAAADdokj5ugWNXJeEAisiIrZ9ffgNEfFjkgAAAAC6RY589sDQ8G9JwlsI41XrdswfLQfvjhTHWA4AAABAl9mWo3n6lhVzHurnEPp+AmssDzaUVwAAAECXOipFfVW/h9DXE1iLrxk9M1qtL0TEgPsDAAAA0KWaraL1/FuXzf5KvwbQ3xNYrfLaUF4BAAAA3a1eK4sN/RxA3xZYS1fveXVEfoX7AAAAAND90uLFa/a8qm9vfT/e6IsaeXD74N4vRcTp7gAAAABAj7hnYNb059x0cRrttxvelxNY2wf2vjGUVwAAAEBveWZz197f78cb3ncTWEvfueu4crx+d0Sea90DAAAAPWZXs16evvUts77fTze63m9nOY8WayMprwAAAICeNLs+XntbRLyhn250X01gLV6355wo06cioma9AwAAAD2qTDm/cNOqmZ/ulxvcV5+Blcu0IZRXAAAAQG8rckobIue+GUzqmwJr0ZrhX0gRL7XGAQAAgAo4f/HavRf1y43ti6buvGvz9Jl7994ZESdb3wAAAEBFfGf6+PRnf7CRhqt+Q/viQ9xn7h15SyivANquSBFnPa2Ic04p4tjZKebPSjFYS4IBIPaO53hwZ477duT4+N2tuH9HFgpA+500PDDy5oi4uuo3tPJXGQuuGX5avRlfjYiZ1jVAewzWI3763Hpc9KJ6zJ+psALg4L56Xxl/8W/j8ZlvlsIAaK+9UUvP3rxs+r1VvpGV/wyseiveEcorgLZ51glF/O83TIvfWTSgvAJgwp79lCLW/+JQXPWzgzF9wDQWQBtNjzKvrfqNrPSVx6K1w+elHB+NPvmsL4BOO+9ZtVj52sEYGpAFAIfvGz9oxrK/HY3tw4UwANoj55RetmXF9NuqegMr+4zRaOQi5bg+lFcAbfHM4wvlFQBtcdrx9Vj9+sEYLFrCAGiPlHLe0GjkyvY8lb1htw+M/HpE/IQ1DHDkhgYi3n6R8gqA9jn9KQPxmwuKyKUSC6BNXvDRgZFfreqNq2SBdf41eXZEXm3tArTH636yHsfOMdAKQHu95iemx4mz9yqxANokR17/ykaeU8XbVskCa8b43lURcaKlC3Dk6rWI172wLggAOvAck+L158+M1thuJRZAexw/Xt+7vIo3rHIF1sKrR56RU7zRmgVoj3NOrsWsaaavAOiMC86cFimVSiyAdklx6ZKrR55VtZtVuQKrKMprI2LIigVoj3NO8Q1RAHTO/JlFnHb8QOSsxAJok8FclO+o2o2q1FXJ0qv3LoyI11irAO1z3FzTVwB01vFzaxERSiyA9nntknUjS6t0gypTYF10Q66VtdhgjQK01/yZCiwAOuuoWf95WaLEAmiPXLauW9DIlfkw28oUWNu/tvd/RM7PtUQB2qvmHYQAdFi99vgXS5RYAO2QzhoYGH5DVW5NJS5LXrVux/yIeKvFCQAA1aDEAmjDY2mkqxet3Xl0FW5LJQqskXLw6og42tIEAIAKXXgpsQCO1PyU65UY+On5AmvR2tGzUsQbrEkAAKgeJRbAEfvdxW/f3fMfudTzH+aVcvPaKtwOAADoX/lH/7efP82taI3titrgrEhFTVwAh6YeteK6iFjcyzeipyewFq3d89qIeLm1CAAA1WYSC+CIHkUXLVm75zW9fAt6tsC6qJEHU87vsAgBAKBPLr+UWABH8Bga177yPXmoV4+/Zwus7YN7Lo1Iz7IEAQCgny7AlFgAh+kZ47v2XNyrB9+TBdaiNbuPj5yWW3sAANB/lFgAh6u48uVr9pzYk0feiwedcloXEXMsPAAA6E9KLIDDevScXea4uhePvOcKrIVr9rwgUvyaRQcAAH1+GabEAjj0x84Uv7Fo3Z6f6LXj7q0CK+dURN4QPf7tiQAAQLsuEZRYAIeoSGVcHzmnnjroXjrYRWv2/FJEeom1BgAAPEqJBXDIzlu0du/P99IB90yBdd61eXpKaa01BgAAPJESC+DQFJHfufSdeWbvHG+PmDE8vCwinm6JAQAA+6LEAjiEx8yIp5Vjw5f3yvH2RIG1dPXwSSnFZZYXAABwwAsyJRbAoXjLwtV7T+6FA633wkGWqXxXRJphXQEA0AvGWznu39aK7z7UjD2jZYyM54iImDlUxOzpKZ529EAcP68WRZJVJzxaYtUGZ0UqagIB2L/ptdRaHxG/2O0H2vUF1pK1w+fnnC+ypgAA6GZ3fncsbr9zJD73zdG463tj0SoP/PenDaQ4++mD8YLThuKlZ02Pk46pC7GNlFgAE3y8jPQLS1fv/eONq6Z/pJuPs6tf82k0cnH7wPAnIuLHLSmAqbHhV6fF2U8rBAGwDyNjOT706T3xgU/tie882Dyin3XWSYPxMy+cGYueOyOKPnvYvf5DO+IfP7GnMxc8qVBiARxMjs9d0Jzx441GKrv1ELv6ZZ7bB4d/M7LyCgCA7tIqI/7h33fH//dvu+Lh4fbs9e/4zljc8Z2x+PNbdsUbls6Jl509XdDtuCYziQVwcCnOuW1w+Dci4s+69RC79rWd86/54ewo4+1WEQAA3eTu+8bjd/74gXjvTQ+3rbx6rPu2NeOt/3dbXP6XD8YPd/og8nbwwe4AB5ci1i5ev21utx5f1xZY05oz3xopTrCEAADoFv/4iT3xe3/yw/j698c7/rs+dc9o/OZ7H4h/v2tE8G2gxAI42ANlHBetaSu79fC6ssB6+bqRZ6bIv2/1AADQFXv6HPHHH344rv/Qjhhv5kn7vTuHy1j+Nw/FDR/d7SS05TwqsQAO8kj5xkVrR07vxiPrygKrVbY2RMSQhQMAwFQrc8T6f9gefzdFJVLOEf/zww/H//nILiejLXkqsQAOYDDl1ju78cC6rsBafPXuxRHxKmsGAIBu8L6bH46bPz885cfxvzbtjH/4d5NY7aDEAjig1yxat/sV3XZQXVVgLWjkehTpOmsFAIBu8KFP7+mqt++996aH44vfHnNi2kCJBbB/qUzXnvv+PNBNx9RVBVa9vvf3I+I5lgoAAFPtGz8Yjz/814e76phaZcTVN2zryLcf9iMlFsB+nTnvh3t/t5sOqGsKrJc3Hj4qUl5ljQAAMNXKHPHuD+yI0fHcdcf2w52teP/NDztJbaLEAti3lHJjQWPnMd1yPF1TYLUG6msi4mhLBACAqXbTZ/fEV77TvW/Vu+lzw119fL1GiQWwT/NrA7VGtxxMVxRYF75919kR8VvWBgAAU63ZyvFXW7v7G/9yjvjzLTudrLZmqsQCeKIU8d8Xrdn9Y91wLF1RYNVrxXURUbc0AACYapu/uDd+sKP7S4xPf3007vyuKax2UmIBPEktUtEVX7Y35QXW4tXDP5cjllgTAAB0gw99ek/PHOu/fGbYCWszJRbA46WcFy5ZPfwzU30cU1pgvfI9eShSXm85AADQDb63rdlTny219ct7Y6yZnbg2U2IBPOFxMeV3LWjkaVN5DFNaYDV3D785Ip5pKQAA0A0+/tWRyD3UB+0eKeNL3/Y2wo5crCmxAB7rtPrgnkum8gCmrMBatGb38TnHFdYAAADd4nPfHHXM/AclFsBjHxTTyiXX7HnKVP36KSuwUqR3RMQcKwAAgG5xRw9+KPod3zGB1dHrNSUWwKNmlc1YM1W/fEoKrKXr9pwbEf/VuQcAoFvsHilj++6y5477Ow82nbwOU2IBPCJF/NrC1cM/ORW/e/ILrJxTWcb10QXfgAgAAI+6b1tvlhMP7mrFuA9yn4TLGCUWQESkIuXrI+c02b940kukJev2/NeION85BwCgm+weKXvyuHOO2DOqwJqcrJVYABHxokVr9vzSZP/SSS2wXt3IM3JOq51rAAC6zchY75ZAw2OlEzhJlFgAESmla5a+M8+czN85qQXW3oHhFRHxdKcaAIBuU+vhD7ioF8kJnERKLIB4ah4bvmIyf+GkPU0vXr/36RHxJucYAIBuNGOodxusmUMKrMmmxAL6/nEw4vJXrNt7ymT9vsl7lm6V10bEDKcYoNc26DIA+sO8mb1ZYA3WU0wf8v1IU/McqcQC+tq0Zi7fMVm/bFKe6Rav3ntBRPyscwvQe5IX9YE+8ZSj6lGv9d6D3tOOrod3EE4dJRbQ3w+CcdGStXtfNhm/quMF1kU35FqO8o8iwtMqQE9uzGUA9IdaEXHSMfWeO+5Tjqs7eVP+XKnEAvr6MXDDRTfkWqd/T8cLrB13D/92SvE8pxSgN5nAAvrJ808Z7L1jPnXIieuOCzglFtC3T5/bvzb8m53+JR0tsBY0ts/LKd7uXAL08oZcBkD/OPcZ03rumF9wmgKre54zlVhA31q9oLF9Xid/QUcLrPrgwFsj4ljnEaB3mcAC+slPPmsoZk3rnQ9Ef9aJA/G0o72FsJsosYA+dezA4MCVnfwFHXt2Xrp257Mjp99zDgF6fSMuA6B/DNZTLHjO9J453qXP9yXf3fncqcQC+vGxL/3BhVfvPKNTP7/o3IHXro2IAacQoLeZwAL6zUUvntUT3+o3c1oRr3yBAqt7L+SUWEDfGagVtXd36od3pMBavGbPq3LEK507gCpswGUA9JeTj63HBWd2/xTWz75oZk+93bE/n0OVWEDfedXCNXs60ge1/Rnv3PfngYj0bucMoBpMYAH96A0vnxOD9e59ADxqVi1+4fxZTlQPUGIB/aaIdO0j3VC7f267n0wf3HNxRD7DKQOoysZbBkD/eepR9fill3RvQfT7/2VuzDR91UPPpUosoK8e9Z49/8G9v9/un9rWZ71Xrt11bI60yskCqA4TWEC/+pUFc+I5Tx/suuNa+NzpsfC5052gXrucU2IB/fWo11i0Zvfx7fyJbS2wxnOxOiLmOVEAVdpwywDoT7Ui4sqLjor5M7tn0unU4wfi8tfOd3J69jlViQX0jTkpUqOdP7Btz8ZL1ux+fkT8pnMEAEBVHD+vFu/69WO64u16x8ypxfpfOTqmDxqN7WVKLKCP/M7SdXvObdcPa9szcY7YEBE15wcAgCp5xgkDsfaXj5rSEuv4ebW47jeOiePn2m5XgRIL6BNFWcaGyLktr7y05Vl48Zrh10eklzk3AABU0fNOGYrr/9sxccycyS+QnnHCQLz3t4+Nk46pOxEVosQC+sQFi9bt/bl2/KAjLrAWNPK0HPka5wQAgCp75okD8We/d1y88FnTJu13vvz5M+K9v33slBRndJ4SC+gHKedrX93IM4705xxxgVUbGL48RZzilAAAUHVzZxSx7leOjktfMy/mTO/cWwpPnF+Ltb98dCz/ufkxzWdeVZoSC+gDJ+0dGH7Tkf6QI3o2XLh6+KlFKu+KiJnOB0A1Xfcr0+I5J3nlH+CJHh4u4//evis+8MndMTzanq9sPWpWLX7+/Fnx2hfOiqGB/imurv/QjvjHT+zu6/WUUhG1wVmRCs+5QCUNR6125uZl0+893B9wRG+kL4rymsjKKwAA+s/cGUW8Yenc+MWXzI5Nnx+Omz8/HHffN3boe+oU8fxTh2Lp82fGhc+Z3lfFFf/p0UksJRZQUTOi2VodEb96uD/gsJ8dF60dPi/l8qNxhFNcAHQ3E1gAE/fAw6347DdG48v3jsZ3HmzGdx9qxu6RMkbHH5nQmj6YYs6MIk46eiBOPq4ezzt5KJ5/6lDMmVH0dW4msB5zgWYSC6iuHLl86eZVc24/nH982BNYKbfeHZGUVwAA8CPHza3FK86ZEa845/GfVVuWEUUhHyZwdWcSC6iulFLtmog4/3D+8WE9jS5ZPfwzEek82QMAwAQ23corDoEPdgcq+/gW+cVL1u55zWE9lx7qP7johlzLqVwtdgAAgA5d5CmxgMo+vuVrFjTyIb8j8JALrG33DP96RJwlcgAAgE5e5CmxgEp6dm1wzy8f6j86pAJrQSNPSzm/VdYAAACdp8QCqijleNsr35OHDuXfHFKBVR/Y8wcRcZKoAQAAJocSC6igk8d37vndQ/kHEy6wFjQemBURV8gYAABgcimxgMpJsWLpO/PMif71CRdY9fqM34qIoyUMAAAw+ZRYQMUcm8d2//pE//KECqyLbsi1SPkPZAsAADB1lFhApR7TIr35ohtybSJ/d0IF1ra7d78uIp0mWgAAgCm+4FNiAdVx6va7d792In9xQgVWSulNMgUAAOgOSiygMlKa0OetH7TAWrp610sj4oUSBQAA6B5KLKAifmLh6p0vPthfOmiBVaa4VJYAAADdR4kFVEGRam8+6N850B8uXD381Ij0U6IEAADoTkosoAKPZD/98jV7TjzQ3zhggVUr8q9FRE2QAAAAXXzpp8QCelutFfm/HugvFAd+EMy/IkMAAIDup8QCetyvH+gP91tg/egDtJ4tP4A+3wyLAAB653lbiQX0rrOWrN7z4/v7w/0WWEVKvyY7APaOyQCAztozWgqhjZRYQM8+fhWx3y5qnwXWgkaeFpFeLzoAHtplBguAznpwp6Kl7ReBSiygNx+8fumV78lD+/qjfRZYtfrun46IeZID4N6HvCoOQCevVSLu/WFTEB3JVokF9JyjxnfvftW+/mCfBVaR0mtlBkBExMfutukFoHO++r2xeHCX55pOUWIBPafcdyf1pAJrQSPXc8TLJQZARMR928v46n2msADojC1fHBZChymxgJ6S4lULGrn+xP/8pAKrNrD7JRExX2IAPOpPbvFJ7gC03/d3NOMDn9ojiEmgxAJ6yFH1+q4XPfE/PqnASpFeLSsAHuuL97Ziy5d9PgkA7VPmiOs/tCPGm74sZLIosYBekaJ4Uje1r8/A+ilRAfBE7/7QcNz5XZNYALTHn21+OD5+14ggJpkSC+iJx6oUBy6wlq7d+eyIeJaoAHii8bIWy/9mV3zm66PCAODwL0pyxF/cujP+5iO7hDFl50CJBXS9M5dc/fDj+qnHFVhlWbxCRgDsz57WtFj+f3bFX9yyM0bGvOUDgENz7w+bcflfPhh/cctOYUwxJRbQ9Y9TxeM7qsd/qntKF0S4IAHgAE8ktenx17ftjQ9++vvxMy+cFRecOS1OOW5AMADs03grx+e/ORpbvrg3Nn1hT7R8sW33PKf/qMSqDc6KVNQEAnSXlM6PiD/8j//52D9bvGb3fRFxopQAOJhyfG+0mo98dsnRs2tx3NxaHDW7FgP2vwBExPBojh/ubMUPdjRjeNSL5N19jVgosYBu9L3NK2c97T8eqx79fxZeveMZRVG/Rz4ATNRjSywAoHcpsYCuVKudvHnZ9HsjHvMZWEVRP18yAByKYmB61OrTBAEAPc5nYgHdKDVb/9FVPeZD3LMCC4BDpsQCgGpQYgHdpnzkc7Aeue74z/+cLhANAIdDiQUA1aDEArpJesywVYqIWPrOPLMc27MzHldoAcCh8ZlYAFCRi0afiQV0h1ZzfOasrY00UkRE5NHhM0N5BcARMokFANVgEgvoErXawJ7TIx4trYp8pkwAaAclFgBUgxIL6JJHo7MiHi2wciiwAGgbJRYAVOSyUYkFTPkD0SOd1SNvIfxRmwUA7aLEAoCKXDsqsYCpvK5IxWMmsCIpsABo/5ONEgsAKkGJBUzZ48+Phq7SK9+Th8Z37dkdEXWxANAJvp0QAKrBtxMCU2B8/vjMWcXY7l0nh/IKgA4yiQUA1WASC5gCAw/VHj6pKCKdKAsAOk2JBQDVoMQCJlutVpxQRJmeIgoAJoMSCwCqQYkFTKYy0olFGWECC4BJo8QCgGpQYgGTJeU4sUgKLAAmmRILAKpBiQVMzmNNnFBEocACYPIpsQCgKheWSiygs1KkE4tsAguAKaLEAoBqUGIBHXZikXLMkwMAU0WJBQDVoMQCOibleUVEuGoAYEopsQCgGpRYQGekaUVEdsUAwJRTYgFANSixgA6YXkQkVwsAdAUlFgBUgxILaLNp3kIIQFdRYgFANSixgLZJMV2BBUDXUWIBQDUosYD2PJjEtHryGVgAdKHawLRIkaPVHBEGAPT0hWcryrFdURucFamoyQM4HNMLGQDQrUxiAUA1mMQCjvjaICK8tA1A9z5RKbEAoBKUWMAR2KvAAqDrKbEAoBqUWMBhSTGiwAKgJyixAKAalFjAYTxwmMACoHcosQCgKteiSizgEB4zIpnAAqC3KLEAoCIXpEosYILSjz4Da68oAOglSiwAqAYlFjBBI0VKsV0OAPQaJRYAVIMSC5jAA8W2Ipf5fkkA0IuUWABQlWtTJRZwwJ3//UVEocACoHefypRYAFAJSixgf1LK3y9yhAILgJ6mxAKAalBiAft8bIi4vyjCWwgB6H1KLACoyIWqEgt40uNCfL8IE1gAVIQSCwCqcrGqxAIes8+PfH+Rc6nAAqA6T25KLACoBCUW8KiyVn6/mNea8+2IaIoDgKpQYgFANSixgIgY337U3O8UNzbSWER8Qx4AVIkSCwCqQYkFfS7F3Z95QxovIiJyxB0SAaBqlFgAUA1KLOhrd0REFBERKSuwAKgmJRYAVIMSC/rTo51V8cj/SneKBICqUmIBQDUosaAf7/hxZ8SjE1iFAguAalNiAUBFrmWVWNBXyjL95wTW0OiMOyOiFAsAVabEAoBqUGJB32gOzJt5d8SPCqwPNtJw+CB3APqAEgsAqkGJBX1wP4/44k0Xp9GIRz8D6xG3iwaAfqDEAoCKXNwqsaDa+/aIjz7m/39U+qhoAOibJ0MlFgBUghILqnwH30eBlcqmAguAvqLEAoCKXOMqsaCiah979P9Lj/3PS9bs+m5EPFVAAByK4+akOGZOEfNnpqgVPbjpbY5FWY47kQBtNNbM8dCuVty3rRm79vq+KCZHSkXUBmdFKmrCgN5376aVs09+9H/Un/CHH4+I18kIgIM5ZnaK1/7EQFxwRj2eMr/o8VtjCgugU8oy4kv3jsYtXxyOf/3snmi2slDomEcnsZRYUAEpHvdOwScUWOn2iKzAAmC/6kXEr7x0MH72JwdjqC4PAA6sKCKed8pQPO+Uofj5C2bHH/3rjvj4XXsFQ8cosaAi9+UyPva455PH/o9W2fyQiADYn9nTU6z9henxiy9WXgFw6J5yVD3W/PIx8TtL50ZK8qCDF74+Ewt6Xq1Wfvix//txBdYtV877ekTcLSYAnmioHrH2F6bH80/xSiYAhy+liF98yZz41QVzhEFHKbGgl58s4is3L597z2P/0z4+tCR/UFIAPNFlr54WZ5xYCAKAtvi1C+fG+WdOFwQdpcSC3pTK9KRu6slXIikpsAB4nHNPrcXLzvSeQQDaeHGSIi75qfkxNOC9hHSWEgt6UXnwAmveM2fdHhEPCQuAR/23C4eEAEDbHTOnFq/5iVmCoOOUWNBTfjj39NmfeOJ/fFKBdePrUytF3CwvACIinn5MEc86wVsHAeiMxc+bIQQmhRILekX6lxtfn550Ry32fceOfxIYABERL3ymtw4C0DnPOnEwjpnjC0KYHEos6H4plR/Y13/fZ4E13pz1wYjYLjYATj7GZ5MA0MkLlYiTjx0QBJNGiQVd7aHarNk37esP9llgbW2kkYj4O7kBcNQsbx8EoLOOnm0Ci8mlxIIuleJvbro4je7rj4oD3KH/UnIAzBiUAQCdNXPItC+TT4kF3afIxX67qP0WWJtXzf33iLhTfAAAAFSREgu6SIqv3Lxy5mf398cHfF9ITvmvJAgAAEBVKbGgW+6M6c8P9McHLLBSrfZXEeFeDAAAQHWvm5VYMNWaRaT/c6C/cMACa9MVM++LiH+WIwAAAFWmxIIp9U83r5x5/4H+wsG/Wirld8sRAACAqlNiwZTd9w7aPR20wNq0Ys5HU8THxQkAAEAfXEgrsWBy3f6jLxI8oGJCPyrFtfIEAACgHyixYPKkCb7zb0IF1txnzvrHFPF1sQIAANAPlFgwKb724rHZE/rs9QkVWDe+PrXKiOvlCgAAQL9QYkGn72RxbaORyon81WKiP7MY3PO/I+JB6QIAANA319dKLOiMFA9Ma876q4n+9QkXWBsvP2FP5LROwgAAAPQTJRa0XypjzQcbaXiif784lB8+rznzjyLSN8UMAABAP1FiQTulb9XmzHr/ofyLQyqwbmyksYjy7YIGAACg3yixoE1SXHXTxWn0UP5Jcai/Y96zZv91pPiKtAEAAOg3Siw4Yl8+f2zm3xzqPzrkAuvG16dWLvNKeQMAANCPlFhw+FLKyyf6zYOPVRzOL9u8as4HIuJjYgfogw2aCACOWLOVoyzlAJXaIymx4HB8dOOKOR86nH9YP4I765tTKj4WEUn+AAAQ8d2HmvH5b47EHd8Zi3t/OB73bW/Frr1lNFuPvBwwWE8xZ0YRJx1dj6cfOxDPPXkozjltKI6aVRMe9KBHS6za4KxIhfsxHOwuk1L55sP9x4ddYG1eNfffl6ze+f9Fil9xDgAA6Ffbd7fiw5/bExs/vye+9cD4Af/uWDPHgzvLeHBnMz73zZH4wCd3RUoRz336UCx5/sxY/GMzY9pgv74+bOaXHl25uRWtsV1KLDj4w/xfbVw59xOH+8/rR/K7W1FfXovmz0TELGcCAIB+8uDOVvzNR3bGTZ/dHaPjh1++5BzxxW+Pxhe/PRp/umlH/Ox5s+N1582OGUOFkKFXrstNYsHB7I6B2ooj+QFH9Kx4y6oZ30spXeM8AADQL1plxN/dvjN+9fr74p8+seuIyqsneni4jD/f8nD82nvuj61fHhY29BCfiQUHkGLdpitm3nckP+KIX9YZG5v1roj4prMBUNXnGgAe9cOdrXjT//5BvO/mHbF3rHNveXtwZyve9ncPxlv/74Oxe8Snv0OvUGLBPn1zfGz2tUf6Q464wNraSCMppbc4HwAV3YiJACAiIr5y72j81nvvjy99e3TSfudHvjIc/+P9P4j7tzedAOiVvZMSCx5/n0jpsq2NNHKkP6ctb6zfuGL230ekTU4LAABV9Im798ab/+KB2Dk8+dNQ33lwPP7gT34Q3/jBuBMBvXLBrsSCR+4LEbduXjH7H9rxs9r2yZBFK94UEV4aAqgYbyEE+t0XvjUaV/3tg239rKtD9dCuVrz5z38Q333Qdht65sJdiQWtHMUl7fphbSuwbr5q9lci4s+cH4CKbb5EAPSxe384Hiv/5ocx1pz6R8Mde8pY9tcP+Ews6KV9lBKLPpYi/68tK2d9sV0/r63fzVuM5xURsc1pAqjSEw9Afxpr5rj6xodiTxcVRt/b1ox1/++hyF5dgJ6hxKJPbR8bT1e18we2tcC6uTF3W4q82nkCqNCmSwRAn/rTTTvinvvHuu64PvbVvfHhz+1xgqCX9lNKLPpv1b9ta2POg+38iUW7D3FsfM4fRoqvOFkAAPSqb/5gPP7xE7u79vjed/P2eHjYWwmhpy7nlVj0jzu3HTPnf7b7h7a9wNraSM3cat+HdAEAwGR7383bo9nq3hnUncNl/O1tO50o6DFKLPpBWeRLP/OG1Pavzi06cbCbr5y1OXL8q9MGAECvuef+sfjUPSNdf5wf+OQuU1jQg5RYVHt9x4e2LJ/74U787KJTB13U8hsjYtTpAwCgl9z4sV098SHpI2M5bvrMbicMevIiX4lFJY3Vc1zWqR/esQLr5uVz74kU73X+AADoFSNjOW67Y7hnjvfDn/dh7tCrlFhUTcrxng9fOeeuTv38opMHXx8bf1vK8X2nEQCAXvDvd++NvWO98/2r335gPL79wLgTBz1KiUVlpHigrDdXd/JXdLTAuqlx9M5I6a3OJAAAveCz3xjpvWP+5ogTBz1MiUU1FnKs3LzsqIc7+SuKTt+GF4/P+tOI9BlnEwCAbvfFb406ZmDyr/2VWPT2Cv78vGfN/vNO/5aOF1iNRioj5TdGRHZSAQDoVs1Wju8+1Htvx/uWtxBCNSoAJRa9KhWX3Pj61PGFW0zGbdm0Ys5HI8XfO6sAAHSr+7Y1o1X23nF/b1szSi8VQyUosei5NZvy321aMfvfJuN3FZN1o1JZf3NEGnZ6AQDoRjuGy5487vFmjuHR0gmEqhQCSix6x956KpdN1i+btAJr46oZ38m5vNb5BQCgK3fhPVwCDY8awYIqUWLRIwv1nR9ePv9bk/Xrism8bdObe9ZFpHudZYBeel6SAdAfWmUvH7sHa6jeHkyJRVf7Xhra+47J/IWTWmB9sPGU4YhypfMM0DtSkgHQH6YP9e4D3oyhwgmEClJi0bVrM/JbNl5+wp7J/J2T/ky3acWcv4mI251ugF7ZOMkA6A+zpvVmCZRSxMwhrzZAdfdiSiy67Hkn4uObV8z528n+vZP/LJ1SLqJ8Y0T4pEmAHrkwAugHTz2q3pPHfeycetRrHqyhypRYdJEy5XxJpDTpL3NPyctMN6+c99nI8dfOO0AvbJhkAPSHGUNFHD271nPH/fRj6k4e9MWeTIlFNyzE+MubV8395FT86imbky5TcUVE7HT2AbqbCSygn5x10lDvHfPTh5w46BNKLKZ0/UXsKlJtyj7XfMoKrC0rZ/0gRay3BAAA6BbnnNZ7ZdA5pyqwoJ8osZgqKWLNzStn3j9Vv39KP6ly7vjsd0fE1ywDgG7eJMkA6B8vPmN6T02ezplRxHNMYEEf7s+UWEy6b9Rnz94wlQcwpQXWjY00FjmusA4Aupe3EAL95Ph59XjeKdN65ngvfM4MH+AOfUqJxeSut7j0povT6FQew5R/V/CmVXP+MXLaaDkAdO2TFUBfec1PzOqJ40wp4qd+fJYTBn29T1NiMRlPOHHL5lVzPjDVh1F0QxZlEW+KiKZVAdCdF0gA/eRlZ8+Ip/XAN/udd8b0eOaJg04Y9DklFh3Wys3ikm44kK4osLasmH1Hjvy/rAuAbtwUyQDoL0UR8RsL53X9Mf76wrlOFvCj/ZoSiw5J6Y83XzXrS13x3NctmdTG48qIeMjqAOi25ywZAP1n4XNnxAtO697PwnrNT8yOZ5m+Ah5DiUUHbB8fy2/rloPpmgLr5sbcbSnnt1sfAN22GZIB0J/e/NNHxYyhouuO68T59fitxaavgH3t25RYtHM95au2NuY82C3H01XPyGPNOf8zIr5smQAAMNWeclQ9Ln/tUV11TAP1FG/9+WNi5rTCCQL2SYlFm9yx/dg57++mA+qqZ76tjdSM6I4PBwMAgAXPmdE1nzWVUsRlP31UnPFUbx0EDkyJxRGvociXfuYNabybjqnrXrrZtHLWloj4oOUCAEA3+LUL58bPvHD2lB5DShG//8r5sfT5M50QYEKUWBz2c07EBzavnHtztx1XV84et8ryTRExatkAANANLv6p+fE7S+dNzYa9iLj0NUfFz54324kADokSi8Mw1krxlm48sK4ssG65ct7Xc8R7rBsAALrFL75kTiz/uaNj+uDkfT3rUbNq8a5fPy5+6sdnOQHAYVFicYiu27Jizt3deGBd++mPM+qjV0fE/dYOAADdYunzZ8Yf//cT4qyThjr+uy44c3r86e+dEOecOk3wwBFRYjFBP8i15rpuPbiuLbD++Ypjd0XEVdYPAADd5ORjB+IPf/v4uOy1R8Uxc2pt//mnHDcQ63/l2Lj6l46N+bNqAgfaQonFQddIiuWblx31cLceX72bwzt/fPb//ujArt+JiJ+wlAAA6BZFinjVubNi6fNmxoc/tyc+8Mnd8fXvjx32z0sp4rknD8Xrzpsd5585I4okY6D9Hi2xaoOzIhUKch63OD53wficv9zcxYfY9U+NS1fvfHFOcXsvHCtAFV37KzPiOSfZ4AAczDe+Px633zkcn/3GSNz53bEYa+YD/v0ZQ0X82ClD8YJTp8VLz54ex8+r92127/nQ9vjHT+yyiGCyioBUKLF4rFykeNnNK+bc1s0H2fXPkhtXzfnYkjUP/11E+gVrCgCAbnXaCQNx2glz41cvnBtlGfGDh5vx3YeasWekjN0jZaQUMXOoiLkzi3ja0QNx7BwXjsDUMInFY6VIf3vzitm3dftx9sTLPPX6wOXNZvPVETHT0gIAoNsVRcSJ8+tx4vy6MICupMTiR/Y2c3NFTzy39sJB3nTFjO+myO+yrgAAAKA9fLA7kdL6W1bN/3YvHGrRK5numj7nmoj4ttUFAAAA7aHE6mvfTQN73t0rB9szBdbHL017I+fl1hcAAAC0jxKrP6WcLtt4+Ql7euV4i14Kd9OquX8bER+xzAAAAKB9lFh952MbV866oZcOuOi5O1VRuyQiSmsNAAAA2ni9rcTqF2Xk8o2RUu6lg+65Amvz8pmfyxF/Yb0BAABAeymx+sL/3rRq3qd77aCLXky6GE/LI+Jhaw4AAADaS4lV4XMbsauI2lW9eOw9WWBtbMx+IFKstfQAAACg/ZRYFZXi7TevnHl/Lx560auZzxubvSEi7rb6AAAAoP2UWNWSIr4+MGv2H/bq8dd79cBvbKSxJWt3Xh45f8AyBACAnr5M/tH/AV1378ytaI3titrgrEhFTSC9LKVLbro4jfbq4Re9nP2mFXP+OSJutgoBAACgM0xiVcKWjSvmfKiXb0DR83eksnhTRIxbiwAAANCha28lVi9rpigu6fUb0fMF1uYrZ9+ZIt5nPQIAAEDnKLF61ns3rpz95V6/EUUVzsRAkd8aEQ9akwAAANA5Sqyes61M6eoq3JBKFFj/snze9ohoWJcAAADQWUqsHjpXKa/asmLOQ1W4LUVVTsq8Z815X6T8JcsToL2aLd8KBUBnjXuugZ6jxOoJdzTH5v5JVW5MZQqsG1+fWqkVl1ifAO21bY+LCgA666FdLoChFymxulyR37S1kZqVuTlVOjcbr5x3S478T1YpQPs8sLMUAgCdfa552MUv9ColVrdK/7Bp+byNVbpFReXOURFvjogRixWgPT77TZsRADpn++5WfOMHY4KAHqbE6jpjUeZlVbtRlSuwNi+f942IdL31CtAeX7q3GTv3ehshAJ1x253DkT3NQM9TYnXTyUjv2nTl3K9V7WYVVTxX0+ujayLifqsW4Mi1yogbPj4qCADartnKccPtOwUBFaHE6go/qDfHr6niDatkgfXPVxy7K6e00roFaI8PfHosvr/DZ2EB0F7/+O+74nvbmoKAClFiTa2U0hU3NY6u5CsDRVVP2gVjs/8yIj5p+QIcudFmROPv98bImPd4ANAeX7l3NP5k8w5BQAUpsabMZ148Nvuvq3rjUpXP3KK1O88rcv5o1W8nwGT5iVOLWPVzM2P6oIdVAA7f1+4bi7f81QOxY4+LW6iylIqoDc6KVNSE0Xk55/TSzavm3F7VG1hU+extWTHn4ynib61jgPb41DfLuOQvvN0DgCPYo39xT/zBn35feQV9wCTWZIYd/1+Vy6uIPphMWrh6+Km1NH5XRMy0ogHao5Za8VPPT/ELF8yOo2d7RQ2Ag13ERnz53tH408074ovfGhEI9BmTWB03nGutMzcvO+reSq+jfjiTS9Y+fFXkeJs1DdDGi5GyFeX47jjzqQPxgmdMi+Pm1uPo2bUYrHt7IQARu/aW8dCuVnznwfH4+F1744GHTe9CP1NidTLbuHLjirmrK387++Fknndtnj5r7847IuIUSxugfXLZemQsPPuGQgAADkyJ1RHfmTa+59kfbDxluOo3tOiHs/nxS9PeHPkK6xqgzZuQovbIJiQVwgAA4IB8JlYH9uMpX9oP5VVEn30735I1O7ZGpJdZ4gBt3oyYxAIAYIJMYrXN7ZtWzHlppJT74cbW++wS65LI6dMR4V4C0NZNSC1qA7OUWAAAHPzKPJfRGt2txDoyZSrzJf1SXkX0yVsIH7Vp5fzPp0j/2zoHaD9vJwQAYKK8nfBIN9/pTzZeNe8z/XST++8qo5lWRcQOqx2gA8+jSiwAACZIiXXYdo6PF41+u9F9d4WxsTH7gUhptfUO0BlKLAAAJkqJdRj77RyNrY1Z3++3292XVxfbjpn9nhxxl2UP0KEnVSUWAAATpMQ6JPfMbc15bz/e8L68svjMG9J4kdNl1j1A5yixAACYKCXWBPfYKS6+sZHG+vK29/OJX7L64X+NiFe6CwB0cDNStnw7IQAAE5JS4dsJ92/TplVzl/brje/rl8VTkS6NiHH3AYBOPtaaxAIAYGJMYu3XeC2nP+jnAPr6amLjijlfTRHvdT8A6CwlFgAAE6XE2qc//PCVc/r6s7z7/kpirFm+LSIedF8A6CwlFgAAE6XEepwfjjfLq/s9hL6/itjamL8j53yV+wNA5ymxAACYKCXWj/bQKa/a2pi/o9/XgyuIiJh/xtz/FZG+IAmASXgCVmIBADBBSqz0hbnPmvtnVoICKyIibnx9ahWp9SZJAEzS07ASCwCACernEivn1iU3vj55H2UosP7DzSvn35oi/T9JAEwOJRYAABPVnyVWunHzlfO3OvuPcNXwuHtEeXlEjAgCYJKekpVYAABM9JK9v0qskVqt9RZn/T+5YniMjVfO+2ZEulYSAJNHiQUAwET1S4mVI9714eXzv+WM/ydXC08w3hxZFynukwTA5FFiAQAwUdUvsfL3ms3Ra5zpx3Ol8ARbG8ftzhHLJQEwuZRYAABMVKVLrJSWbW0ct9tZfkIsItjnPSEtWb3ztkhxvjAAJvkhuGw9shnJpTAAADiglIpHXgQtalW5Sf++aeWcF0dK2dl9PC9z7/sekFPOb4wIV08Ak/0QbBILAIAJqtgkVi4i3qi82jdXB/ux8ap5n4mIv5EEwORTYgEAMFEVKrH+6uZVcz/pjO6bK4MDGG/W3hIROyUBMPmUWAAATFQFSqzd0ayvcCb3z1XBAWxtzPp+TvkdkgCYGkosAAAmqpdLrJTy2k2Nmfc5i/vniuAgBmbPfVdE3CMJgCl6MldiAQAwQT1aYn1jbHzudc7egbkaOIibLk6jOfIySQBMHSUWAAAT1XslVrpsayONOHMHSUkEE7Nk9cMbI2KJJACmcDNSth7ZjGRfEgsAwIGlVDzyImhR6979baRbN6+as9DZOjgvZU80qLJ4U0Q0JQEwhZsQk1gAAExQD0xitXJqXuJMTYwrgAm6+arZX4mIP5UEwNRSYgEAMFHdXGLliPdvWXnUF52libH7P5SwmrEyIh6SBMDUUmIBADBRXVpibW8201udnYmz8z8ENzfmbssRqyUBMPWUWAAATFS3lVgporG1MedBZ2bi7PoPUbM5548i4iuSAOiCJ34lFgAAE9RFJdadDx0754+dkUNjx3+ItjZSM+d8iSQAuoMSCwCAieqGEqvMceln3pDGnY1DY7d/GDZfOW9zRPyLJAC6gxILAICJmuIS64Nbrpz7YWfh0NnpH25wtbgkIkYlAdAdlFgAAEzUFJVYY2WRLpP+4bHLP0w3L597T0S8VxIA3UOJBQDARE12iZVzvn7Lijl3S/7w2OEfgXqz+bYU8X1JAHQPJRYAABM1iSXWAzFQrpH4EezzRXBklq7Z8Ts5x/slAdBlm5Gy9chmJJfCAADggFIqHnkRtKh15ufn+K2NV877M0kfPi9PH6EXj8/904j4tCQAumwTYhILAIAJ6vAk1ufmnjH3L6R8ZOzqj1CjkcooiksiIksDoLsosQAAmKhOlVgp8iU3vj61JHxk7OjbYNOKOR+NiL+XBED3UWIBADBRbS+xcvzfjavmf0SyR85uvl0XSNF6c0QMSwKgCx+jlVgAAExQG0usva2Ul0m0Pezk22TjqqO/Ezm/WxIA3UmJBQDARLWjxEo5v+OWVfO/Lc32sItvo90zd6+LHPdKAqA7KbEAAJioIyqxUnw3po2+U4rtYwffRh+/9KS9KaUVkgDoXkosAAAm6rBLrJzesvHyE/ZIsI37eBG0fXWnJWt2fiQiXyAMgC5+uC5bj2xGcikMAAAOKKXikRdBi9rB/26Oj29cNff8SClLrn28/Nz+VZ2LlN8YEa6IALr54dokFgAAE3QIk1hlK6c3Kq/az669A25eOe+zEemvJAHQ3ZRYAABM1ERKrBzxF1uumvspabWfHXuHlKm2LCJ2SgKguymxAACYqAOVWDliVy0NrJJSZ9itd8iWlbN+kCPWSQKg+ymxAACYqP2VWCli9c0rZ94voc6wU++g+c2510bE1yQB0P2UWAAATNQTS6wU8fX6nLnXS6Zz7NI76MZGGovIV0gCoDcosQAAmKjHllg550tvujiNSqWDe3URdN6S1TtujoilkgDokc1I2XpkM5J9oSwAAAeWUu3fbl399AWS6CwvMU+Csqi9KSKakgDokU2ISSwAACYiRytS8UZBdJ6d+STYsmL2HZHy+yUB0DuUWAAAHHzPmP7XrVc/7QuS6Dy78kkyWKQrI+IhSQD00oZEiQUAwH7tyPXBq8QwOezIJ8m/LJ+3PUV6uyQAeosSCwCAfSrjbVsbT3lQEJPDbnwSjTXn/M+I+JIkAHqLEgsAgMftDyO+GkOn/JEkJo+d+CTa2kjNSPEmSQD04CZFiQUAwKNyumxrI/mytklkFz7JNq2ctyVS+mdJAPQeJRYAAJHSh25de8q/CGJy2YFPgVaZL42IUUkA9OB+RYkFANC3cuSxaOXLJTH57L6nwC1Xzvt6zvEeSQD0JiUWAEB/quX4w63rTv2qJCafnfcUmTE4fnVEvl8SAL1JiQUA0Gf7v4gHila+WhJTw657ivzzFcfuSjldKQmAHt7EKLEAAPpGmYpVm695xsOSmBp23FPoxa25fx4pPiUJgN6lxAIA6AtfuLD+9D8TwxTuu0UwtRat3XleUZYfdS4AelsuW9Ea2x05l8IAAKjURi9yvYiFm1efulUYU8fLxVNsy4o5H48cfycJgN5mEgsAoKobvbhBeTX17LK7QL3Vujwi9kgCoMf3NkosAIBq7e8ijcRALJPE1LPD7gI3NY7+bsr5XZIAqMAmR4kFAFAZOeJdWxunfksSU8/uukvsmrn7moj4tiQAep8SCwCgEru67w2OPrxeDt3BzrpLfPzSk/amlIwlAlRlu6PEAgDoaWURb9n4ruf5uJ9u2V+LoLssWb3j3yLipZIAqAbfTggA0IubuPj3rWtOeXGklIXRHbws3HUXOvmSiHCVA1ARJrEAAHrsujyiTLW4RHnVXeymu8zmq+Z/LiL+XBIA1aHEAgDoHUVKf3nr1ad+QhJddl5E0IUXOs3aioh4WBIAFXpsV2IBAPTCrm332FixSg7dxy66C21szH4gpVgjCYCKbYeUWAAAXb5hS6s/+o6n3yeI7mMH3aXmjs+9PiLulgRAxfZESiwAgK6Uc3xj+nFP3yCJ7mT33KVubKSxyPlySQBUjxILAKD7FKl26U0Xp1FJdOkeWgTdbenqHTfliFdIAqB6ctmK1tjuyNmXzwIATK1069Y1pyyUQ/fy0m+XK3Pt0ogYlwRABbdJJrEAALpAbtYGapfIobvZMXe5zVfOvjOl/D5JAFSTEgsAYKrV37elcdIX5dDd7JZ7wECR3hoRD0oCoJqUWAAAU2Z7DNTfJobuZ6fcA/5l+bztkVNDEgDVpcQCAJgCRbpqa+MpBkZ64VSJoDfMO2PO+1KEkUaAClNiAQBMqq9G7WQf2dMj7JB7xI2vT63I8SZJAFSbEgsAYHIUOV26tZGakuiR8yWC3rHxynm35BT/JAmAalNiAQB0eL8V8YFb1p5ykyR6h51x752xN0fEiCAAKr6pUmIBAHRGjtFI+QpB9Ba74h6zefm8b6SIDZIAqD4lFgBAB/ZYteL6W1efdpckeosdcQ8aa46tiZTukwRAH2ywlFgAAO3bW0U8UBtrrpVE77Eb7kFbG8ftjihXSgKgTzZaSiwAgLZoFWn55mue8bAkeo+dcI/atGLeX0bEJyUB0B+UWAAAR+zzC2sn/4UYepNdcM9eyaRcFsUlEZGFAdAnD/1KLACAw5MjpyIuaTRSKYzeZAfcw7asmPPxHPn/SAKgfyixAAAOYw+V4v/eevWp/yaJ3lUXQW8ro3VFLWqvjYiZ0gDokw1YUURtcGa0xnZHzl5EBAA4yO5pbx6IFXLobV6+7XG3rDrme5HiGkkA9Nk2zCQWAMAEN07lO7Y2Tv2WIHqbXW8FjI/veGdEuDMC9NteTIkFAHBgOb47OLL7nYLofXa8FbC1cepITukKSQD0HyUWAMD+lSldtvFdz9sjiQrse0VQHUuu3r41UrxMEgD9J5ctn4kFAPD4HdLtW9c84yVyqAYv11brbF4SES1BAPQfk1gAAI+Ro1Xk8o2CqA673ArZtHL+53PkP5MEQH9SYgEA/MfG6M9vWfuszwqiOuxwK2agGFgVETskAdCvezUlFgDQ5/uhiIdruVwliWqxu62Ym1bM/mGkWC0JgD7etCmxAIA+lqNYvWXtaT+QRLXY2VbQtmPmvSdHvksSAP1LiQUA9OUeKKe7dz395OslUT12tRX0mTek8UjxZkkA9PkGTokFAPTb/iflyz7zhjQuiQqeWxFU15LVO/41Ir9SEgD9LZetaI3tjpxLYQAAlZVy3Hzr2tNeIYlq8pJsle+8RfPSiNA8A/T984FJLACg4nIeL3LtUkFUl51shW1cccxXU8R7JQGAEgsAqPReJ6c/3rLu5DskUV12sRU31oy3RcQPJQGAEgsAqKb84HiuNeRQbXawFbe1MX9HRL5KEgBEKLEAgErub956+/qTt0ui2uxe+8C80+f/SUR8QRIA/GiTp8QCAKriS8c89+T3i6H67Fz7wI2vT60c+fcjIksDgAglFgBQDUUqLrnx9akliT441yLoD5tXHXV7ivgHSQDwKCUWANDTe5mc/uGW1afcIon+YMfaR8p6vjQihiUBwH9s/JRYAEAv7mFyGq0NFpdLon/YrfaRzcuOujfldJ0kAHjcBlCJBQD0mqK4dnPj5G8Ioo9OuQj6y1BreG3kuFcSADyWEgsA6KGdy/25vnutHPqLXWqf+WDjKcORYpUkAHjSVlCJBQD0huVbG2fvFkOf7VVF0IdyTktW77gtUpwvDACe9DRRtqI1tjtyLoUBAHSVlNMnb11zyosipSyN/uIl1r68x6eccnpjRLgyAeDJTxMmsQCALpQjyqKWLlFe9Sc70z618ap5n0k5/j9JALAvSiwAoOv2J7n4P1uuPuXjkuhPdqV9rFUMvCUidkoCgH1uEpVYAEC37Esi7Ynm+HJJ9C870j62ZeWsH0TkayQBwH43i0osAKAL5Mjrt77jWd+VRP+yG+1z9Tnz3x0R90gCgP1RYgEAUyrHt0aHv/9uQfQ3O9E+d9PFaTRHWiYJAA5EiQUATJkcl3/8uhfvFUSf70dFQETEktXbN0bEEkkAcMD9Y9mK1tjuyNkX2QIAkyClf9u6+tQFgsDLqDyyEMryTRHRlAQAB9xDmsQCACZLjlbU4xJBEKHA4kduvuror0SkP5UEAAejxAIAJkNO8WdbG6d+XhJEKLB47GJoppUR8ZAkADgYJRYA0GE7ynL6KjHwKLtO/sPNjbnbcsRqSQAwEUosAKBTcpmvvm3diT+UBI+y4+Rxms15fxQRX5YEABOhxAIA2r6/iHTX7lNO+0NJ8Fh2mzzO1kZq5pzeJAkAJrzJVGIBAG2Uy/Kyz7whjUuCx7LT5Ek2Xzlvc0T8iyQAmCglFgDQlj1FpH/duu4ZH5IET2SXyb4XRq24JCJGJQHAhDecSiwA4AjkiLFWSpdJgn2xw2Sfbl4+957I8UeSAOBQKLEAgMNV5Pzej6w+5U5JsM/1IQL2Z/pg820p0vclAcChUGIBAIfhh3mweLsY2B87S/brn684dleZ4ypJAHColFgAwKFtHtKVWxun7hAE+2NXyQFd0Jr7ZxHxaUkAcMj7UCUWADCRPUPEFxfUT/kTSXCQdQIHtmTttvOjTLdZLwAcjly2ojW2O3IuhQEAPEktFwu3rD3lVklwIF4S5aA2rTjqo5HzjZIA4HCYxAIA9rtPiOJG5RUTYSfJxB5UUr4sIoYlAcBhPY8osQCAJ+4PIo20UlwhCSbCLpIJ2bjq6O9ExLskAcBhb1KVWADAY/cGKb37I6tP+aYkmAg7SCZs94zd6yPHvZIA4LA3qkosACAickr3lfU96yXBRNk9MmEfv/SkvSnlFZIA4EgosQCAlPIVWxtn75YEE14zIuCQ5JwWr97xbynFS4QBwBE9pfh2QgDo001A+sTWNaecFyllYTBRXvrk0Pz/7d17lJ1lfejx37P3TBKKlsAkQClUAkxg1bWKbddqBa0ipwRdPctzurpkrZ6unp7bKr0dCBEChCRsnJkEAorWKqK1aq09PaQeLYqBMMkMVAT1UAS8gFbFclFy4ZYBkpnZ73P+0GOlEkhm9uV99/58/uH/b979XH77ZXZKuV5LKyPCbQOA+W0p3sQCgL6TI4pIsdLwioPlxMhBu+Wyxf8UER9TAoD5MsQCgD7b+1P6+OTYsruU4GA5LTInRRq8NCKeUQKAeR9kDbEAoF9M1fL0ZTIwF06KzMm2y17xeI68UQkAWsEQCwD6YL9P9Q3bx05+VAnmwimROTt89vB3RcS3lACgJYdaQywA6GXfXXTkL7xLBubKCZE529xI0ynHaiUAaBVDLADoTbUo3r7lvLRPCeZ8TpSA+Tpr9ImbI+JsJQBolVw0ozk9FTn70VsAqL40OTl2wpt0YD58vcm8FbW8KiJmlQCgZcdcb2IBQI/Is6m2YKUOzJdTIfO2bc3Q1yPF9UoA0EqGWABQfTlqH5wYOfZeJZgvJ0JaYkGtti4idisBQCsZYgFApT2ZBhddLgOt4DRIS9x06eInc05XKAFAqxliAUBF5bhisnHMLiFoBSdBWubwkxe/PyLuVwKAVjPEAoCK7d2RHogFJ7xPCVrFKZCW2XxOaqZcW6kEAG05CBtiAUB1FPntk43kx75oGSdAWmrrusXbI8WNSgDQDoZYAFAJn5nYeOLnZKCVnP5ouWZRWxUR+5QAoB0MsQCgvHLEdBS11UrQak5+tNz2dYu/HRHvUQKAdjHEAoByquf83smNyx5QglZz6qMtDhlsjkbE95UAoF0MsQCgZHtzpB21ZhpRgnZw4qMtbrx46Z6U8lolAGjrQdkQCwBKI9dql41fdeLTStAOTnu0zekzR3w0UvqyEgC0kyEWAJRiR773jPqr/koH2vaESUA7/bsNu0+rFekOzxoA7ZaLZjSnpyLnQgwA6OgmHDnVa2+aGFl2mxi0i68qaatta4bujIi/UwKAdvMmFgB0axNONxhe0W5OeLTdwGxeHRHPKgFA28/PhlgA0Nm9N9LeGEyXKEG7Od3RdlsaQ4/klK5WAoCOHKQNsQCggxtvXD3ZWPaQELSbkx0d8ewhU5si4ntKANCRs7QhFgB0wqODe/dcJQOd4FRHR9y56rjnUwqvlQLQMYZYANBeOeKirdec6s/F0JmznQR00lmjT9wWEW9QAoCOHa79OiEAtGGDTXdNji07PVLKYtAJvpKkw5eItDIimkoA0CnexAKAFt/rIopUTysNr+gkJzk6anz94fdEpI8qAUAnGWIBQCvVPjoxsuyLOtDRp04COn6JmB1YExFPKwFAR/cfQywAaIU9szP71slApznB0XFbG6/ckVKMKQFApxliAcA899Kojd6x6ZTHlKDTnN7oisNmDn9PRPqmEgB0/OBtiAUAc9tDc/rOoqOOf48SdIOTG12xuZGmU+QLlQCgKwdwQywAmMMGmlZtOS/tE4KuPH4S0E0rRp/YkiPerAQA3ZCLZjSnpyLnQgwAeEm1icmxZWfqQNeeQAnopiIXqyJiRgkAusGbWABwIPLsQG3gfB3oJqc1ump83ZJvROTrlACgWwyxAOBl9so0cN34yHH3K0E3OanRdQvq9UZE7FICgK4dzA2xAGB/nqw1B66QgW5zSqPrbrp08ZMp4nIlAOgmQywAeBG1tH7bxmN3C0HXH0UJKIPDlh9+fYq4TwkAuskQCwBe4IGoL/uADJSB0xmlsPmc1Ixcu0AJALrNEAsAfqiW86rJRppVglI8jxJQFlvXLd4ekT+lBADdZogFgM0wPr19w0lbhKAsnMoolVyvXxgRe5UAoOvndkMsAPr2Yhb7UqRLhKBMnMgolfFLF38nclyrBABlYIgFQD+q1Wrvnhg94UElKNVzKQFlM9Oc3RApHlMCgDIwxAKgr/a9iB21mWKjEpSNkxilM9k4cioiXaYEAKU5zBtiAdAnilS7ZPyqE59WgtKdxySglHJOZ409dVdE/jUxACjN9lQ0ozk9FTkXYgDQgxtd+vLk2LJfj5SyGJSNrxEpp5RyjuL8iLBwAlCe7cmbWAD0qhy5loqVhleUldMXpTW+duiuyPEJJQAoE0MsAHpyf4va/9o+dtIXlKCsnLwotWYqLomIZ5UAoFSHfEMsAHppX4v0bJ6dvVgJysypi1LbvnbJo5HSVUoAULrDviEWAD0i53z15KbhR5SgzJy4KL2ZmaeujoiHlACgbAyxAOgB39v3/OObZKDsnLYovcnGsr0RebUSAJSRIRYAVVbktPrOa09/XglKf+aSgKo4a/SJiYg4QwkAyigXzWhOT0XOhRgAVGPvinT7bWMnvFEJqsBXhVTnYS3SyohoKgFAGXkTC4BKydEcrNVWCkFlZgISUBW3rD/83hzxYSUAKCtDLACqs2nlj4yPHH+PEFSF0xWVMlgbXBsRTykBQGnvA4ZYAJTfU83i0DUyUCVOVlTKljWv3BmRR5QAoMwMsQAotSKN/ePGn9spBFXiVEXlPLH0iPfmiAeVAKDMDLEAKOX+lNM39xy/7D1KUDVOVFTO3eemmZRjlRIAlP6SYIgFQNn2phQX3n1umlGCyj27ElBVZ40+8bmIeIsSAJRdLprRnJ6KnAsxAOjmjnTz5NhJ7lBUkq8Dqe7DW6+fFxHTSgBQdt7EAqDbcsR0vchvV4LKzgAkoKpuufSwf84pvU8JAKrAEAuAbqrnuG7bxuGvK0FVOUFRaYMzRSNF/EAJAKrAEAuALtlZLKg1ZKDS5ygJqLqzRp44N1L+gBIAVIW/iQVAR/edlP7kttETr1OCKvP1H5X3uubhH4qU7lYCgKrwJhYAHXT/kb90wgdloOqcmqi8RiMVOcfKiMhqAFAVhlgAdOTSnwZWbj4nNZWg8s+yBPSC8bVHfD5SfFIJAKrEEAuANu80n9w+evx2HegFTkv0ztKcY1VEPKcEAJXavwyxAGjH/hJp78DgwGol6BVOSvSMrWuHHk45XasEAJW7ZBhiAdDy235613jjVd8Rgp55pCWglyxs7t0QOf5FCQCqxhALgBbuKt/P9ec36kAvcUKip3ymccxzkfJaJQCo5HXDEAuAFihq6ZLJxqunlKCnzkkS0HNyTmeNPXF7RLxeDAAquZUVzWhOT0XOhRgAHNwlP6cvTYyd8NpIya+001N8vUcPrtgpp6JYGRFO/QBUcyvzJhYAc5Ajilq9WGl4RS9yKqInbV2/9O6U098oAUBVGWIBcPAX/Nonto0M36kEvfl8Q49q1mZWR8QzSgBQVYZYAByEqRQzl8pAr3Iaomdtu+yoxyPyVUoAUGWGWAAc2IYxcOX2sZMfFYJe5SRET1s8O3RNRHxLCQAqfScxxALgpeR4KAbyO4WglzkF0dM2N9J0zvkSJQCoOkMsAPa7R6TiwsnGsr1K0NPPuQT0g7NGd2+NiLOUAKDqctGM5vRU5OzHdgGIiFS7bXL0hDOEoNf5Co/+eNCLuCAiZpUAoPr3FG9iAfAjOZopLThfCPriXi8B/eCW9UNfSyl/SAkAeoEhFgA/3BDqH5oYOfZeIegHTj30z9o+M7g2InYrAUBP7GuGWAD97qlmsWi9DPTN2UcC+slZI7vPTynerQQAvcLfxALo1w0gr5rYMHytEPQLX9nRV2aaR7wvIr6qBAC9wptYAH249kd68JlXnfQXStBPnHToK5ONNJtyvkAJAHrqImOIBdBXco63331umlGCfuKUQ9+5Zd2S8Yj8WSUA6CWGWAB9s+LfNLHhxJt0oN844dCX6nlgZUTepwQAPXWlMcQC6HXTzdS8SAb6kdMNfWnLusXfjkjvVQKAXmOIBdDDa3zO77t9dPk3lKAfOdnQtxYNFu+IiB8oAUDPXXAMsQB6cXXfWSwYeIcO9CunGvrWjRcv3ZNyrFcCgJ685hhiAfTY7b22drKx7Ckh6NuPgAT0s9OaR3w4Iv6vEgD0IkMsgB5ZzyPue2P9+L9Ugj7/HEB/WzG6+/SI+LzPAwC9KhfNaE5PRc6FGACVW8Qj12v1M8dHl02KQT/zdRx9b+vaoS9ExA1KANCrvIkFUOE1PKW/N7wCAyyIiIj6bFwYEc8pAUDPXoAMsQCquHrvHUj1i3UAAyyIiIgtjaFHcsQ1SgDQ09cgQyyAaq3bKb9z6+jx31UCDLDgx6Z+5rkrc8T3lACgpy9DhlgAFVmw47FiYN+VQsAPObnAj9y56rjnaymtUQKAnr8TGWIBlF7OafVk49VTSsCPzi8SwAt3iRWjT9wWKX5DDAB6ftvz64QAJV2g0xcnxk44LVLKYsAP+doNflJKuci18yPCSR6A3t/2vIkFUEZFPRUrDa/ghZxW4N8YX3/4PTniY0oA0A8MsQBKti5H+uvxseG7lIAXclKBF1Gk2Usj4mklAOiLy5IhFkBZTEXMrpUBfppTCryIbZcd9XhKaaMSAPQLQyyAEqzFUR/bPnbyo0rAT3NCgf342ZnDr00R31QCgL65OBliAXRNjvzdhUcdf60S8OKcTmA/NjfSdERerQQA/cQQC6A76mnhqi3npX1KwH7OKBLASzt7dPfNOeJsJQDoJ7loRnN6KnL2w7wA7VebnBg74U06wEt8SiSAl/mQ1GJVRMwoAUA/8SYWQMfM1gYHz5cBXuZuLgG8tC1rhr6eI12vBAD9xhALoCOL7fXbGsfdJwS8NKcROAAL6rX1KWKXEgD0373KEAugjZ7MA4saMsDLcxKBA3DTpYufjMhXKAFAPzLEAmiXemOycYwvyuEAOIXAAfrZ5UPXRcT9SgDQjwyxAFq+sj6QB49/vw5wYJxA4ABtPic1I+eVSgDQt1ctQyyA1ini7ZONNCsEHBinDzgIW9ct2R6R/kEJAPqVIRZAKxbTuHFi44mfEwIOnJMHHKSiXlsVkfcpAUDf3rsMsQDmYzo3mxfLAAfHqQMO0vili7+TIt6jBAD9zBALYI7rZxF/Prnx5AeUgIPjxAFzsHAwj0bE95UAoK8vYYZYAAe3bkbaUSvSqBJw8Jw2YA5uvHjpnkixVgkA+v4yZogFcMCKlNaMX3Xi00rAwXPSgDk6feaIj0bEl5QAoN8ZYgEc0PX7K2cMLPuIDjDH84YEMHdv3rD7tKKIO3yWACAiF81oTk9FzoUYAC9YICNHvf6miZFlt4kBc+NrMpiHm9cM3Zki/k4JAPAmFsB+18eI/214BfMzIAHMT202VjcH8lsj4lA1AOj7S1qtFvUFh3oTC+BfV8bniwX1S3WAed69JYD52dIYeiRSuloJAPjRVc2bWAA/IV892Vj2kA4wP04V0AJ7DnluU0TYlADgRwyxACIi4tHBfc9tkgHmz4kCWuDOVcc9H5EuUQIA/pUhFtDvck4Xbr3m1GeVgBacKySA1lkxuvu2iPwGJQDgJy5wfp0Q6MvFL+6aGDvp9EgpiwHz5+swaKGiaK6MiKYSAPCvvIkF9OPVIKXifMMraB2nCGih8fVH3pMif0QJAHghQyygzxa9j2wfO/lLQkDrDEgArZVnm5dFfeBtEXGYGgDwE/e5VI/64Cv874RAr9szMDOzXgZoLV+BQYttbRy9I1IeVQIAfpo3sYDeVx+5ddMpj+kAreXkAG1w2OySP085vqkEAPw0Qyygh1e47yxZsOw9OkDrOTVAG2xupOlcyxcqAQD7ueIZYgG9KOcLNjfStBDQhrODBNA+K0Z2bolIb1YCAPZz1yua/iYW0BvrWcTE5IbhM5WA9vCVF7RREWlVRMwoAQAvzptYQI+YHagvOl8GaB8nBWij8XVLvpEi3q8EAOyfIRZQeTm9f3zkuPuFgPZxSoA2GxgYuCJF3qUEAOyfIRZQYU/WYtE7ZICzS4GEAAATH0lEQVT2ckKANrvp0sVP5pwuVwIAXpohFlBFuRbrtm08drcS0F5OB9ABh50ydH1Evk8JAHhphlhAxVatry79pZM+oAO0n5MBdMDmc1IzFbFSCQA4gOugIRZQEfWiuGDzOampBLSfUwF0yC2XL53IEf9HCQB4eYZYQOnXqUifGr9y+bgS0BlOBNDRTW7gwojYqwQAHMC+aYgFlFWOfTGTLxICOsdpADpo67rF342Ia5UAgANjiAWUc22qXbv96uFvKwGd4yQAHTbdLDZExGNKAMCBXhQNsYBSrUrf3zczs0EH6CynAOiwycaRU5FijRIAcBDXRUMsoCRyxJo7Np2yRwno8FlAAujGrpfTitHdd0bEr4sBAAexhRbNaE5PRc6FGEDnL9A5fXn7hhN/PVLKakBn+QoLurLzpVyktDIibHwAcDBbqDexgG7JkdNAPt/wCrrDzg9dMr526K6I+IQSAHBwDLGALl2f/3bbyPCdOkCXPoESQPfMprgkIqaUAICDY4gFdHTNiXg2N4tLlIDuseNDF21fu+TRSHGVEgAwhwulIRbQITnHpslNw48oAd1jt4cum57dc01E/q4SAHDwDLGADqw0D+3du/NqHaC77PTQZZONZXsjaquVAIA5Xi0NsYA2KlJefee1pz+vBHR5v5cAyuGskV0TKeIMJQBgbnLRjOb0VORciAG06MZcu31i7MQ3CgHd52sqKMuHMac/i4hZJQBgrvdMb2IBLZRTc2Cwdr4QUJI7swRQDresH/paRPqwEgAwd4ZYQOtuy/mvbm0s+4oQUJKPpARQokN3c2BNRDyhBADMYz81xALm76nZ4hWXyQDlYVeHErmlcdgTEWlUCQCYH0MsYD5ypNF/3PhzO5WA8rCjQ8lMN494b0R8TQkAmB9DLGBOa0dKD+551Yl/rgSUi90cSmaykWajSBcoAQAtuIgaYgEHu24U6cK7z00zSkC52MmhhLZePnRrRPqcEgDQgsuoIRZwoOtFkbZs23jiZ5WA8rGLQ1k3z2bz/IjYpwQAtGBfNcQCXt707EDxdhmgnOzgUFK3NI7854j8fiUAoDUMsYCXXCOKdN3to8u/oQSUk90bSqzerDUi4gdKAECLLqiGWMCLrw47i0X1hg5QXnZuKLEtjaFncmQbKQC08ppqiAX8Gzml9ZONZU8pAeVl14aSe11zyYci4m4lAKB1DLGAH68Hke5beuoJH1ICys2ODSXXaKQi59r5EZHVAIAWXloNsYCISBErN5+TmkpAudmtoQJuXX/EHRHxSSUAoMUXV0Ms6Hef3LbhpAkZoPzs1FCZE3ZaFRHPCQEALd5iDbGgXz/9e+vFgtU6QDXYpaEitq4dejhyvEsJAGjDNdYQC/rwcx/vHL/yVd9RAqrBDg0VsrCY3hgR/6IEALTjMmuIBX3ksWJg35UyQHXYnaFCPtM45rmc4zIlAKA9DLGgPxQpLplsvHpKCajQHi0BVEzO6ezRXbfnSK8XAwDatN0WzWhOT0XOhRjQe740MXbSayMlv/INFeKrJaialHLOsTIinKgBoF3brTexoFcVtXqsNLyC6rEjQwVtXb/07oj4uBIA0D6GWNCLN+D0N9tGhu8UAir48ZUAqqlZa14cEc8oAQDtY4gFPWUq5eYaGaCa7MRQUdsuO+rxiPDLKQDQZoZY0Csf5vrG7WMnPyoEVJNdGCrssObQOyPiW0oAQJvvvYZYUPVP8UOLjmq+UweoLjswVNjmRpquRVyiBAB04PpriAUV/gAXF245b3ifEFDhj7EEUH0rRnbcEpFWKAEA7ZeLZjSnpyJnPwgMFbn23jaxYfgMHaDafH0EPaBer18QEbNKAEAHrsLexILqyKkZ9fr5QkD12XWhB2xZM/T1SPmDSgBAZxhiQWU+rB+cGDnhXiGg+uy40Ct78+zCdRF5txIA0Kl7sSEWlNxTecEh62WA3mC3hR5xS+OwJ3LEiBIA0DmGWFBiRXrHZOOYXUJAb7DTQg+ZaS59X0T+qhIA0DmGWFBKDzyz7KS/kAF6h10WeshkI83morZSCQDoLEMsKJlmXHj3uWlGCOgddljoMbdevmRb5PiMEgDQWYZYUJLPYorPTly1/CYloLfYXaEH1VNxQUTsUwIAOnxxNsSCbpsuinyRDNB77KzQg7asO+rbkeO9SgBA5xliQRfl/BeTG09+QAjoPXZV6FGLFsY7IuL7SgBA5xliQRc+d6m2Iy9c4Fe5oUfZUaFH3Xjx0j05x3olAKBLl2lDLOjwhy7WTjaWPSUE9Ca7KfSw1xVL/ipHfFkJAOjSfdoQCzojx71vGDjxw0JAD++pEkBvWzH6+OmRa5/3eQeALt6ti2Y0p6ci50IMaPkHLHK9ns4cHx2eFAN6l6+CoMdtXXvUFyLiBiUAoHu8iQXt/IClzYZX0PvsoNAH6s3ahRHxrBIA0MU7tiEWtOOTtXewNniJDtD77J7QB7Y0hh6JiGuUAIAuX7UNsaC1n6mUr9k6evx3lYDeZ+eEPrHn0L1X5YjvKQEAXb5wG2JBqzw6sO/5K2WA/mDXhD5x56rjno8UlyoBAN1niAUtsXrrNaf6MxnQL3unBNBfVozsvD0ifkMJAOg+v04Ic/3wpC9ObDjptEgpiwH9wVc+0GeKnM+PCKdkACgBb2LBnD45RQzk8w2voL/YKaHPjK8/8p5I6aNKAEBJruKGWHCQH5r42MTI8i8KAf3FLgn9aHb20oh4WggAKMl93BALDtTUwExzrQzQf+yQ0Ie2No7ekVPaoAQAlIchFhzA5yTqo7duOuUxJaD/2B2hTy2eHXp3yvFNJQCgRJdzQyzYrxzx3YVHF+9WAvqTnRH61OZGmo5aWq0EAJSLIRa8uHqurdpy3vA+JaBP90cJoL+dPbrr5pzz2UoAQLnkohnN6anI2Y8HQ440Mblh+EwloH/5Wgf6XDPHBRExowQAlIs3seDHZusLFq2UAfqb3RD63Pi6Jd+ISB9QAgDKxxALIiLq129rHHefDtDf7IRADA4MXJ4idikBAOVjiEWfezIvOKQhA2AXBOKmSxc/GTldoQQAlJMhFv377Ncun2wc44tWwAAL+KGfPWXouoh0vxIAUNaLvCEWfeeBYuDE62QAIgywgB/ZfE5q1iKfFxFZDQAoJ0Ms+kaOnIran0420qwYQIQBFvATbl63dDIif1wJACgvQyz6Qr328e1XnrRdCOD/s+sBL9CsL1rlD7oDQLkZYtHTz3fEE4MDcZESwE+y4wEvsG3Nz+7OkS9RAgBKfsk3xKJH5ahftLVx0g4lgBfsexIAP31qyGnF2K5tkeNNYgBAybftohnN6anIuRCDXrihfn5idPgNkZK/ywq8gK9rgBc5OKRcy/HHEbFPDAAo+bbtTSx6RU77opb+yPAKeDF2OeBF3bxu6YM5YkwJACg/Qyx640HOYxMjw18TAngxdjhgv17XXDKWIyaVAIAK3P0Nsaj2E3zHktcMb9AB2O8qIQHwUt7S2H1ss17cGxFHqAEA5edvYlFBT+Vi8Jcnr1z2kBTA/vh6BnhJWxpDj6RU/KESAFAN3sSigv7U8Ap4OXY14GXdsvaoT+ZIH1ECAKrBEIvqPKzpwxMblv+tEMDLsaMBB3a2WDT7PyPiQSUAoCJ7tyEW5X9Kvz0907xAB+BA2M2AA7L1oqOfrdWKcyJiSg0AqAZDLEpsT72+6Lfv2HTKHimAA2EnAw7YzZcddV9E+v2I8FdhAaAiDLEo4VNZpJT/YHzkuPu1AA6UXQw4KFvXLfl0jmgoAQDVYYhFuR7I+rrtYyd/SgjgoJYOCYCDlnM6e3TXJ3LE74oBABXawotmNKenImcvU9O1C+jfbd+w3BkSOGi+ggHmcPJI+ZlD9/73HPFlMQCgQlu4N7Ho7hP4lYHp5/+HDsCcVhAJgLlaMbr7uMjFFyLiWDUAoDq8iUXHn7mIh2spn7Z97ORH1QDmwlcvwJxtXTv0cI58ZkQ8rgYAVIc3sejwE7cz1dNbDK+A+bBjAfNy67ojv5VycXZEPKkGAFSHIRYdec4inol6esvEyPDX1ADmw24FzNst64+6t5ZrvxURU2oAQHUYYtHmJ+z5XE9vnRg56W4tgPmyUwEtcfP6oTtTpN+OiH1qAEB1GGLRJtPRzG+bGBm+TQqgFexSQMvcsm7JeC3Sf4qIGTUAoDoMsWix6cjxuxNXLb9JCqBle5UEQKudPbbzt3IRmyPiEDUAoDr8OiEtuGI+X8v5nG0bl39WC6Clq4sEQDusGN3xhshxY0QcpgYAVIchFvO4XD4dKb11+9jy29UA2rDGALTH2WM7fyUX+eaIWKoGAFSHIRYHfbFMtR0xGG/Z3hj+JzWAtqwzEgDttGLDrlOiWWyNiOPUAIDqMMTigJ+VSA9HzismN578gBpAu/grjUBbbV2z5IGBNPsbEfFVNQCgOvxhdw7oOclxf5FqrzO8AtrNbgS03efWHvO96WacFjk+pQYAVIchFi/5fETt08XC2dNvHzvpYTWA9q85AJ2Sczp7dOfqHLEhDNABoDpbuP+dkBc8EClH5GvfuHD5RY1G8lAAHWGABXTcWaM73pZyfCQiDlUDAKrBEIsfXSCfzZH/28SGU25QA+jw+gPQeWeN7XhNFOnTKfKr1ACAajDE6nsPRX3wP06MnHCvFECn+V94gK649bIjv5IH66dG5L9VAwCqwd/E6uN/+0ifWrDgZ37V8Aro3joE0GVnv+Px/5xTel9EvEINACg/b2L1lT2RapdMjA2/XwqgmwywgFJ4c+P7xxf1+ici4nQ1AKD8DLH64R853R3N4vcmNp3yoBhAtxlgAaXxq9fnwaEdO6+IiNURUVcEAMrNEKtnzaZauqoYGG5MNtKsHEAZGGABpfOb79jxy7WUPxCRfk0NACg3Q6yeuyDeV0u1c8fHhu9SAygTf30RKJ3x9Ufec3rzyNMip3MjYo8iAFBe/rB7j/w7RnouRX3t0GuW/4rhFVDOdQqgxM5q7Dwm6nFlivz7agBAeXkTq8r/eHFzqg3+0faxE74nBlBWBlhAJZw1svOtKfK7IuJENQCgnAyxKncd/HY9pbePjw3/gxZA6VcsCYCq+NXr8+DQ47v+a6TciIifUwQAyscQqxLXwF0pau9eeHS+Zst5w/v0ACqxckkAVM2Kq39waNpb+7MccWlEHKYIAJSLIVZpL3/P5hzXL1pYu2JLY/gZRYCKrWEA1XRG47ElC2oDl0WKP46IhYoAQHkYYpXq2rc3FXF9Sj8zsm3jsbv1ACq5kkkAVN2Kxg+OjHr6k4j0ZxExpAgAlIMhVrcve2l3zvljuVm7dnLT8COKANVe0wB6xIqrf3BoPF//vUh5VUScrAgAdJ8hVlc8lHN634KZ56/bes2pz8oB9AIDLKDnvO2GXH/mgZ2/k1NcEBGvVQQAussQq2PXu7tyyu8+Y3D55kYjiQ301gonAdDLVmzYdUpuFv8lRfxBRBytCAB0hyFW2650j0ekT9br8ZfjI8P36AH07GonAdAP3nZDrj/z4I43RaQ/zJH/Q0RaoAoAdJYhVqtCpn0ReaKopb+e+oXhv7/73DQjCtDrDLCAvnNG47Elg/XB30mR3xoRZ0bEIlUAoDMMseZ8ddsbOU+meu3G1DzkBr8mCPTdKigB0M9Oe9fDh7zyuUW/GVH8+8jpreF/MwSAtjPEOtDLWnoi57ilmZqfPXTBwGe3NIafUQXo3zURgIj44f9m+OQ3d55Wj3Rmjvz6yPHaiHilMgDQeoZYL2oqIr4Ykb6QUowPnTp8x+ZzUlMWAAMsgP162w25/vQDu16TU359inh9RJweEccoAwCtYYgV349Id+bIX4iUb1t66sn3GFgBvDgDLICD8Fsbnzp8ZmbmhBTFq4uUfjFFvDpS/GLkOEEdADh4fTLEeioiPRApvp6L+EY9F1+tFXHfrZtOecwTAHBgDLAAWuCMxmNLBgcHjq1F+vlc5KNTSj+fcxydovj5HLWjIufDohYLIscrImIw4sf/BYC+V6khVo6ZSPFsRG0mong2RUxHTk9HLe8scjxWS+kHOWoP1yM/HrX4l32z8cg/bhze6V8ZYH4MsAC66IzGjlccunCBQRYARMTsvj2lvZ9MPffszB2bTtnjXwkAAAAAAAAAAAAAAAAAAAAAAAAAAAAAAAAAAAAAAAAAAAAAAAAAAAAAAAAAAAAAAAAAAAAAAAAAAAAAAAAAAAAAAAAAAAAAAAAAAAAAAAAAAAAAAAAAAAAAAAAAAAAAAAAAAAAAAAAAAAAAAAAAAAAAAAAAAAAAAAAAAAAAAAAAAAAAAAAAAAAAAAAAAAAAAAAAAAAAAAAAAAAAAAAAAAAAAAAAAAAAAAAAAAAAAAAAAAAAAAAAAAAAAAAAAAAAAAAAAAAAAAAAAAAAAAAAAAAAAAAAAAAAAAAAAAAAAAAAAAAAAAAAAAAAAAAAAAAAAAAAAAAAAAAAAAAAAAAAAAAAAAAAAAAAAAAAAAAAAAAAAAAAAAAAAAAAAAAAAAAAAAAAAAAAAAAAAAAAAAAAAAAi4v8B3F7LTU2661cAAAAldEVYdGRhdGU6Y3JlYXRlADIwMTktMDEtMjBUMTk6MDM6NTArMDA6MDBugVNpAAAAJXRFWHRkYXRlOm1vZGlmeQAyMDE5LTAxLTIwVDE5OjAzOjUwKzAwOjAwH9zr1QAAAABJRU5ErkJggg==;fontColor=#000000;" vertex="1" parent="1">
                    <mxGeometry x="276" y="294.25" width="60.5" height="60.5" as="geometry"/>
                </mxCell>
                <mxCell id="41" style="edgeStyle=none;html=1;entryX=0;entryY=0.5;entryDx=0;entryDy=0;strokeColor=#000000;fontColor=#000000;" edge="1" parent="1" source="38" target="40">
                    <mxGeometry relative="1" as="geometry"/>
                </mxCell>
                <mxCell id="38" value="Cloud Storage&#10;Curated" style="shape=image;imageAspect=0;aspect=fixed;verticalLabelPosition=bottom;verticalAlign=top;image=data:image/png,iVBORw0KGgoAAAANSUhEUgAABLAAAASwCAYAAADrIbPPAAAABGdBTUEAALGPC/xhBQAAACBjSFJNAAB6JgAAgIQAAPoAAACA6AAAdTAAAOpgAAA6mAAAF3CculE8AAAABmJLR0QA/wD/AP+gvaeTAAAAB3RJTUUH4wEUEwMyQ4U1ngAAgABJREFUeNrs3Xm4ZHV9J/7P91Tde3tf2FGRRQUBjSJJFEFtelPHaEwiZptsk8XJJEFEkN7AUnrDBRoTJzpJJtsvkwlkkhhNkF6gI6hx30EQN1RQhO6ml9t3qTrf3x9IwtLL7e6qe6tOvV7Pk+eJdPe9p97nW1Xf865PVUUAAAAAAAAAAAAAAAAAAAAAAAAAAAAAAAAAAAAAAAAAAAAAAAAAAAAAAAAAAAAAAAAAAAAAAAAAAAAAAAAAAAAAAAAAAAAAAAAAAAAAAAAAAAAAAAAAAAAAAAAAAAAAAAAAAAAAAAAAAAAAAAAAAAAAAAAAAAAAAAAAAAAAAAAAAAAAAAAAAAAAAAAAAAAAAAAAAAAAAAAAAAAAAAAAAAAAAAAAAAAAAAAAAAAAAAAAAAAAAAAAAAAAAAAAAAAAAAAAAAAAAAAAAAAAAAAAAAAAAAAAAAAAAAAAAAAAAAAAAAAAAAAAAAAAAAAAAAAAAAAAAAAAAAAAAAAAAAAAAAAAAAAAAAAAAAAAAAAAAAAAAAAAAAAAAAAAAAAAAAAAAAAAAAAAAAAAAAAAAAAAANBVkggAps7i9XnuSI5CEgDQ3aalKDcvSw9LAmBqKLAA2mDRmnx8UY+TWrl1Yor0lJTjxDLFU1JOJ0aUx0ekoyMiIse8lCLliHkegwGgJ+UUsSPnyJFixyP/JT8YqXggp3x/keO+iLivTPn+nGv3DdTjOxsvTw+IDeDIuHgCOAQXrMvzp6U4O3J5Vo44OyKdFZGfExEnSAcA2M9V146U4+sRcUcZ8ZVI+Y4i176yeXn6hnAAJvpQCsA+LWjkehqMc4soz48ivSRyfnFEHCcZAKBNfhCRPpYi35ajuL01Gp/b2khNsQA8mQIL4EcWNHK9PtS8IOfiwkjpgoj8woiYKRkAYJLsySn9e5Hz7SkXt857Ztx+4+tTSywACiygz726kWfsmdZalHL6qYj46Yg4XioAQFfIsS2ltCVS+aGI2gd8iDzQzxRYQN9Z8I58QtEqX5dyek2k/LKIGJQKANDlRiOnrZHyP9fqxd/7YHig3yiwgL5w0Q25tv3rzQsjar+TI782IgakAgD0qFZEujVH+b8ePqr2T595QxoXCVB1Ciyg0hatzWelVP5qjviN8AHsAED1Lui254gbUxTv27w8fU4iQIUf7wCqZUEj14uh1kUpx6WR0o9LBADoCzl/MhXx7vmn1f6fD38HqkaBBVTGgkaeVZtW/mbkeFNEnCwRAKBPfStHvK9Ixft88DtQFQosoOctWpOPT0X5uznHH0SKoyQCABARETsj4i9aRfHOrVek74oD6GUKLKBnLX1nPq45Xq5KKd4QvkkQAGB/RnPE/ywHirVbL0sPigPoRQosoOcsfWee2WyWv58ilkfEXIkAAEzI7hTx3oHRYu1NjbRTHEAvUWABPePc9+eB+dvK38gRb4uIEyQCAHBYHswR7xqaWWy46eI0Kg6gFyiwgJ6waG3ztZHSuyPiNGkAALTlYvCeMuVLb1lW/6A0gB54zALoXkuuyU8pc74+cn6dNAAAOnJZ+KGU0u9tXpbulQXQtY9UIgC60YJGrtemlb8XOa6OiNkSAQDoqOEc8fZytHj31kZqigPoNgosoOtcuC6fW+TW+yKlH5cGAMCk+kIqiv+++Yr076IAuokCC+gaFzXy4LahcnVEvDkiCokAAEyJVuS4ZsfRReMzb0jj4gC6gQIL6AoXXpPPKHL5fyLHC6QBANAFcv50Ua/90qa3pK8JA5hqJhyAKbd4ffNXi7L8tPIKAKCLpPTjZav8wqL1rTcKA5jyhyQRAFNl8fo8N5fl+yLFL0gDAKCrLx3/X30o/c7Nl6ZtsgCm5FFIBMBUWLgmvyAV5T9GxNOlAQDQE75VpuK1ty5LXxAFMNm8hRCYdIvXN1+fivK2UF4BAPSSU4pcfnTR2ubrRAFMNhNYwOTJOS1cX74lRazz+AMA0Lu7uhTxjgtGixWNRirFAUwGF5DApDj/mjx7Ws5/FTm/VhoAAJW4nPyXwdH0Szc10k5ZAB1/xBEB0GlLr86nturlhyLiLGkAAFTKl2qt4lUbV6XviALoJAUW0FGLr8ln5rLcGBFPkwYAQCXdWxbF0luvSHeJAugUBRbQMReuGzs3RXFTijhWGgAAlfZAivIVm5cPfk4UQCf4FkKgIxauH39pEcUtyisAgL5wXI7iI0vWjC8SBdAJCiyg7Ravb74q5fThiJgjDQCAvjGrLNK/LFrbfK0ogHZTYAFttWht83U5xz9GxHRpAAD0naFIccPCdc2fEQXQTj4DC2ibRdeML4kyfTAihqQBANDXxnKK196yrH6TKIB2UGABbbFw/fiLU04bI2KmNAAAiIjhyPkVW1YM3CYK4EgpsIAjtmTN2PPLWnFr5JgnDQAAHuPhMspFty4f/IwogCOhwAKOyKK1+fRIrY9ExPHSAADgiXLED4ui9rLNV6Q7pQEcLgUWcNgWr89Pz7n18Yh4ijQAADiA7+RW7bxbVqXviQI4HL6FEDgs512bp+ey9f9CeQUAwMGdlGrlB1/dyDNEARwOBRZw6HJOM0Zbfx4pflwYAABMcBN5zvC01l9Gzt4JBBwyBRZwyBavb741In5eEgAAHJIcr1u0vlwmCOBQab6BQ7JwXfNnUsTfhwIcAIDDU6YUP7t5Wf0DogAmSoEFTNiF68eeV+TioxExUxoAAByBXbWy9eKNK4e+LApgIhRYwIQsfWee2Wo2PxuRTpcGAABtuBi9Z29Re8FHr0i7pAEcjLcAARPSarbeq7wCAKBdcsQzp5WtayUBTIQJLOCgFq1tvi5S3CgJAAA64Be2LK//nRiAA1FgAQe0dHU+qay1vpAj5ksDAIAOXJXuyM3a829Zlb4tDGB/vIUQ2K9GIxfNWuuvlVcAAHRMjnmp1vrri27INWEA+6PAAvbrI0PllSniZZIAAKDDXvLQ18tlYgD2x1sIgX26cP3o2UWufS4iBqQBAMAkGEtF7fmbr0h3igJ4IhNYwJPlnIpc+6NQXgEAMHkGc9l6X+Rs0AJ4EgUW8CQL17d+MyIWSAIAgEn20kXrWr8qBuCJNNvA4yxam4+O1PpqRBwjDQAApsBDg7l25k0r0g9FATzKBBbwOCm1rgvlFQAAU+fo8aJ1jRiAx12rigB41KI14xdGkbZ4bAAAYIrlIucLN60Y+DdRABEmsIAfueiGXIuiuD6UVwAATL1UpvifCxq5LgogQoEF/Mj2b5T/IyI/VxIAAHSHdFZtqPwdOQARJi2AiLhgXZ4/FK2vRcTR0gAAoGvk2BZRO33LivSQMKC/mcACYii3rg7lFQAA3SbFUZGaVwkCMIEFfW7R2nxWpNYXIsLnCwAA0I2aKbVesHnZ0JdEAf3LBBb0uZRa14XyCgCA7lUvo3adGKC/KbCgjy1a23xtjlgqCQAAulnKsWjh+uarJQF9/DggAuhPFzXy4Lah5pcj0rOkAQBA18vx9cFZtbNvujiNCgP6jwks6FPbp5WXKq8AAOgZKZ4xvqe8WBDQrw8BQN9ZtCYfH0Xr7oiYIw0AAHrIrnpZO+Pmlel+UUB/MYEFfXnPb60P5RUAAL1ndrPWuloM0H9MYEGfWbhm7AWpKD4VCmwAAHpTGVG+aMvywU+JAvqHC1joJzmnVBQb3PcBAOjt69hiQ+RsIAP6644P9ItF61u/FBEvkQQAAD3uxYuuaf28GKB/aKyhT5x3bZ4+Y7T11Yh4ujQAAKiA79bqtWdvvDztEQVUnwks6BMzRpvLQ3kFAEB1PK1sNi8XA/QHE1jQB5auzie1aq2vRsQMaQAAUCF7c6t25i2r0rdFAdVmAgv6QLNovSuUVwAAVM/0otZaJwaoPhNYUHFL1o6fX6Z0m/s7AABVlVN+2S3LBj4iCaguE1hQYY1GLspIG0J5BQBAhaVcbGg0sutbqDB3cKiw2wdbvxkpflwSAABUWz7ntsHWb8gBqstUBlTU+dfk2dPK1t0RcYI0AADoAw+kVDt987L0sCigekxgQUVNK5tvDeUVAAD947gczRVigGoygQUVtGBdfmYtWl+OiCFpAADQR8Yi1567ZUW6WxRQLSawoIJq0doQyisAAPrPYEqtd4oBqscEFlTM4nXji3OkTZIAAKB/5VduWT7wYTlAdZjAggpZ0Mj1MorrJAEAQJ+79tz35wExQHUosKBKd+jB8vdT5OdIAgCA/pbOnL+9/O9ygArdq0UA1fDya/NRzdHW3RFxtDQAAHCxG9ubA7XTt16WHpQG9D4TWFARrdHWmlBeAQBARETkiPm1sVZDElANJrCgAi5cP3p2kYvPR0RdGgAA8B9aUZYv2LJy6IuigN5mAguqcEcui+tCeQUAAE9Ui8KXHEElrntFAL1t8brmz0WKJZIAAIB9WrhobfO1YoDe5i2E0MNe+Z48NL6n9eUc+ZnSAACA/V76fqM1Wjt7ayONyAJ6kwks6GGje5qXKa8AAOBg8mn1ac1L5AC9ywQW9KhFa/LxUTTvjog50gAAgIPaXRT1MzZdke4TBfQeE1jQs/fe8XeE8goAACZqVlm21ogBepMJLOhBF64bO7eI9MlQQgMAwKEoc5HPu+WKwU+KAnqLi1/oNTmnFOl6918AADj0a+BUpg2Rs2EO6LU7rwigtyy+pvUrKeJ8SQAAwGE5b9H61i+JAXqL1hl6yKsbecbw0PhXI9JJ0gAAgMP2vVq9fsbGy9MeUUBvMIEFPWTvUHOF8goAAI7YU1vN5hVigN5hAgt6xNKr957aqtfviIhp0gAAgCO2txXNs7Yun/4tUUD3M4EFPaJVr78zlFcAANAu04tcu0YM0BtMYEEPWLRm/MIo4hZJAABAexU5FmxaMfBvkoAuv6+KALrbRTfkWhRxnSQAAKD9yiI2XHRDrkkCupsCC7rcQ18f/+2IeJ4kAACgA3I8f/s94/9NENDdvIUQutiCRp5XDDXvThHHSgMAADrmgdZo/YytjbRDFNCdTGBBF6tPa75VeQUAAB13XG2ouUoM0L1MYEGXWrp29NmtVHwxIgakAQAAHTdeFq3n3nrFtLtEAd3HBBZ0qVYqrg3lFQAATJaBoqy9WwzQnRRY0IUWr2++KiJeKQkAAJhUr1q4vmkfDl1IgQVd5tz354Gcs1d+AABgKuR87bnvz94JAV1GgQVdZt625sURcYYkAABg8qWIZ899aPz3JAFdd98EusXSd+bjWq3mXZFjnjQAAGDKrpR3DJb1029akX4oDOgOJrCgizRbrdXKKwAAmGI55o2n1tsFAd3DBBZ0iSVrxp5fFunTEVGTBgAATLlWmfK5ty4b/IIoYOqZwIJueXYs0oZQXgEAQLeoFZGuEwN0BwUWdIHF65uvTxEvkwQAAHSRHBcuXtf8OUHA1PMWQphi512bp88Ybd0RkU+RBgAAdJt874zRgTM/2EjDsoCpYwILptiM0eZlyisAAOhW6el7hppvkgNM8T1RBDB1Fq7OT0215l0RMVMaAADQtYZrrfqzN65K3xEFTA0TWDCFUm38mlBeAQBAt5vRqo2vFgNM4fWzCGBqLFo7fl6k+Kj7IQAA9IScUrx087KB20UBk88EFkyBRiMXEbEhlFcAANArUuTY8KO9PDDJ3PFgCnxkaPxXI8VPSgIAAHpHjjj39mmt/yoJmHymP2CSLWjkWbWh5l0R8RRpAABAz/nB4Gj99JsaaacoYPKYwILJvtMNNleG8goAAHrV8eNDzbeIASaXCSyYRIvXjZyWo/aViJgmDQAA6FmjrWg9Z+vyafeIAiaHCSyYRDnV3h3KKwAA6HVDtaitFwNMHhNYMEkWrhtfmCK2SAIAACqiiKVbrhjYJAiYjLsb0HEX3ZBrKeI6SQAAQIWUcd2CRq4LAjpPgQWTYNs3xv97RPyYJAAAoFLOLobGf0sM0HneQggddsG6PH8omndHxDHSAACAismxLaJ++pYV6SFhQOeYwIIOG8ytt4XyCgAAqinFUalorhIEdPquBnTM4mtGz8xl8YWIGJAGAABUVrNWludsXDn0ZVFAZ5jAgg7KZXFtKK8AAKDq6q2i8KVN0EEKLOiQC9c2XxMRr5AEAAD0hcWL1zdfJQboDG8hhA64qJEHtw01vxQRp0sDAAD65QI73TMws/acmy5Oo9KA9qqLANpv22DzksjKKwAA6Cc58jPHdjV/PyLeLQ1oLxNY0GZL35mPa403746IudIAAIC+s6tVr5++9S3p+6KA9vEZWNBmrfHW2lBeAQBAv5pdNFtvFwO0lwksaKPF68bOyTl9OpTDAADQz8qizC/ctGrw06KA9nCRDW2Uy7TB/QoAAFxrt4q0IXI2NALtulOJANpj4brmL0aKl0oCAABIEecvXtu6SBLQtvsUcKTOuzZPnzEyfmdEOlkaAADAI/J3ZowNPPuDjTQsCzgydRHAkZu5d+yKnNLJEVkYAADAo04aHmq+OSKuFgUcGRNYcIQWXDP8tFqr/tWImCkNAADgCfamovXszcum3ysKOHw+AwuOUK1Vf2corwAAgH2bnsvaWjHAkTGBBUdg4erxF6ci3+6+BAAAHECOSC/bsmLgNlHA4TGBBYep0chFKvKGUF4BAAAHliLyhkYjuwaHw+TOA4fptsHx34iIn5AEAAAwAS/4yOD4r4kBDo/JETgM51+TZ09rjd0VkU6UBgAAMEE/GBwbOP2mRtopCjg0JrDgMEwrx65UXgEAAIfo+NHBseVigENnAgsO0cKrR56RasVXImJIGgAAwCEaK1rlczZdOe1rooCJM4EFhyjVa9eF8goAADg8g2Wt9g4xwCFei4sAJm7JmvFFZcqbJQEAABzRxXhOr9i8cuBmScAE7zMigIlZ0Mj12uD4ZyPiudIAAACO0B2tsYHnbW2kpijg4LyFECaoNjj+P0J5BQAAtMdZtYHxN4gBJsYEFkzAyxv5qObg+N0RcbQ0AACANl2Qb88x8KwtK9JD0oADM4EFE9AcGL86lFcAAEAb5Yj5OcbfKgk4OBNYcBCL1o6eFZG+EBF1aQAAAG3WSkU+Z/OyoS+JAvbPBBYcRIq4LpRXAABAZ9RymTaIAQ5MgQUHsHDd6M/kSEslAQAAdPLS48K1I68RA+yftxDCflzUyIPbhsa/HDmeJQ0AAKDDvj44a+Dsmy5Oo6KAJzOBBfuxfbB5qfIKAACYJM8Y2918oxhg30xgwT4sWpOPjzR+d0TMkQYAADBJdtXzwBk3r0z3iwIezwQW7POeMb4+lFcAAMDkmt0sxleLAZ7MBBY8wcI1Yy9IKT4VCl4AAGDylZHiRVuWD35KFPCfXKDDY+WcUsT17hsAAMCUXafnuD5yNnACj7tjAP9h0fqxX4oUF0gCAACYQuctXD/2C2KA/6TRhUefIa7N02eMjH81Ip4uDQAAYIov179bG6g/e+PlaY8swAQW/IcZe8eWh/IKAADoCvlp5djY5XKAR5jAgohYunr4pFZR/2pEzJAGAADQJfbmsnXmLaumf1sU9DsTWBARZTHw7lBeAQAA3WV6KmrrxQAmsCCWrB0/v4x8m/sDAADQjXKRXnbLsoGPSIJ+ZgKLvtZo5KKMvCGUVwAAQJdKZd5w0Q25Jgn6mQKLvnb70PhvRcSPSwIAAOhi52y7Z/zXxUA/M3VC33plI88ZGxy7KyKdIA0AAKDLPZCKgdM3L0sPi4J+ZAKLvjU2OP5W5RUAANAjjst5bKUY6FcmsOhLC9aNPLOWiy9HxJA0AACAHjEWUT53y4ppd4uCfmMCi75Ui7QhlFcAAEBvGYxUe5cY6EcmsOg7i9eNL845b5IEAADQm1fy6ZVblg98WBD0ExNY9JUFjVzPOW+QBAAA0LPKfO25788DgqCf1EVAXy34gfE/iIizJQEAAPSsFGfOe2j8dyPiPcKgf5Y99ImXN/JRrcHxr0XEUdIAAAB63Pbm4MDpWy9LD4qCfuAthPSN1sD4mlBeAQAA1TC/Pjr+NjHQL0xg0RcuXD96dq1Mnw9vmwUAAKqjlXN+wZaVQ18UBVVnAou+UC/TdaG8AgAAqqUWKV0nBvqBAovKW7R29HU5YokkAACAqkkRC5esG/0ZSdAHax2q65XvyUPju8e/HBHPlAYAAFBR32iODZy9tZFGREFVmcCi0sb3NC8L5RUAAFBtp9WGmm8SA1VmAovKWvCOfEK9OX5XRMyRBgAAUHG7U238jE1XzLxPFFSRCSwqq94cf0corwAAgP4wqywH1oiBqjKBRSUtXj32oijiY9Y4AADQR3JZxotuWTX4SVFQNSawqOBDdk5RxIZQXgEAAP0lFbW4PnJ2LUTlKLConMVrx38lIl4oCQAAoO/keNGStWO/LAiqRitLpSxo5Fn1weZdEfkp0gAAAPr0Uv97xUD9jI2Xpz2yoCpMYFEptcGx5corAACgv+Wn5rGxK+RAlZjAojKWXr331LJWuyMipkkDAADocyP11Drzw8unf0sUVIEJLCqjrNXfFcorAACAiIhpzVx/hxioChNYVMKiNeMXppRvkQQAAMBjr/rThZuXD2wVBD2/lEVAr7vohlzbds/YZ1LE86QBAADwn3LEF4565uC5N74+taRBL/MWQnre9nvGf0d5BQAA8GQp4nnbvz7+m5KgAmsZeter1uX5o+Xo3ZHSMdIAAADYl/zD5tjQ6VsbaYcs6FUmsOhpIzH+VuUVAADAgaRjBwbHr5QDPb2KRUCvWrp29NllxBcjYkAaAAAABzTeauXn3nrltLtEQS8ygUXPyimuDeUVAADARAzUaulaMdCrFFj0pEVrR34q53ilJAAAACbsvyxcM+I6ip7kLYT0nIsaeXD70NgXI8cZ0gAAADgk98wfGzz7xkYaEwW9xAQWPWf74OjFyisAAIDD8sztA6O/JwZ6jQksesrSd+46rhwfvDsi5koDAADgsOxs1sfP2PqWWd8XBb3CBBY9pRwfWB3KKwAAgCMxZ6BZb4iBXmICi56xZM3Y83PKn46ImjQAAACOSFmk9JMblw9+RhT0AhNY9Iycyg2hvAIAAGiHoizLDZGzwRZ6Y8GKgF6waN3oz0ekl0kCAACgTVK6YNG6sZ8TBD2xXEVAtzvv2jx9xsjYHSniFGkAAAC01Xemjw0++4ONNCwKupkJLLrerJGxy5VXAAAAHXHS3qGxN4mBbmcCi662cPXwU4uidldEzJQGAABARwxHUZ65edn0e0VBtzKBRXcv0KL2jlBeAQAAdNKMKIvVYqCbmcCiay1aO35eivKj1ikAAEDH5SiKl25eNnC7KOhGJrDoSo1GLoooN4TyCgAAYDKkKMsNjUbWE9CVLEy60u2D47+WI35SEgAAAJPm3NsHxv+rGOhGplvoOudfk2dPb43dFREnSgMAAGAypR8MjA2cflMj7ZQF3cQEFl1nenNsZSivAAAApkA+fmxw7Ao50G1MYNFVFq8bOS1yuiMihqQBAAAwJcZSKz9n05XTviYKuoUJLLpLma4N5RUAAMBUGsy1tF4MdBMTWHSNpev2LixzsUUSAAAAUy+l/PJNy6dtlATdwAQWXeGiG3KtzMUGSQAAAHSHnNN1Cxq5Lgm6gQKLrrD966O/GxHPlQQAAEDXOKs+OP7bYqAbeAshU+5V6/L80XL07kjpGGkAAAB0lW05Bk/fsiI9JAqmkgksptxoHn+78goAAKArHRVp/EoxMNVMYDGlFl8zema04gsRMSANAACArtQscpyzceXQl0XBVDGBxdRqxXWhvAIAAOhm9TKlDWJgKimwmDKL14/+dES8XBIAAADdLi9atHbkp+TAVPEWQqbERY08uH1w7EsRcbo0AAAAesLXB2YNnn3TxWlUFEw2E1hMiW2DY5eE8goAAKCXPGN89+gfiIGpYAKLSbf0nbuOK8cH746IudIAAADoKbtquXnGzStn3i8KJpMJLCZd2RxcF8orAACAXjS7GbW3i4HJZgKLSbV43dg5kfOnQ3kKAADQq8pUphduWjX4aVEwWZQITJ6cU+TyeusOAACgpxVRy9dHzoZimMRFB5NkyfqxX4hIL5EEAABAb8s5Xrxo/djrJcFk0ZYyKc67Nk+fOTJ2Z0ScLA0AAIDelyK+mwYGn73x8rRHGnSaCSwmxcy9Y1eE8goAAKAycsTT8vjYmyXBZDCBRcctuGb4afVW7asRMVMaAAAAlbK3LMszb1k1/duioJNMYNFx9VbtXaG8AgAAqKLpRVGsFQOdZgKLjlq4evzFRVHebq0BAABUVs5RvGzLioHbREGnmMCiYxqNXBRFuSGUVwAAAFWWUpTXNxpZx0DHWFx0zEeHxv9bRPyEJAAAACrvnNsHx39NDHSKyRg64vxr8uzprbG7IuJEaQAAAPSD9IMoBs7YvCw9LAvazQQWHTG9NXZVKK8AAAD6SD4+WmPL5UAnmMCi7RZePfKMopa+EhFD0gAAAOgrYznyc7esmHa3KGgnE1i0Xaqn60J5BQAA0I8GU07vEAPtZgKLtlqyZu+inIrNkgAAAOhjOb9i88ppNwuCdjGBRdssaOR6TsUGSQAAAPS5lK499/15QBC0iwKLthkYGP29iHiOJAAAAPreWfO3jb5BDLSLtxDSFi9v5KNag2N3R8TR0gAAACAitjcHB0/fell6UBQcKRNYtEVrYPTqUF4BAADwn+bXx8bfKgbawQQWR2zR2tGzUsQXIqIuDQAAAB6jFUWcs3nZ0JdEwZFQOHDEUuTrrCUAAAD2oZbL2BARi0TBkfAWQo7I4rWjPxsRSyUBAADAvqSIhYvXj/60JDjCdQSH56JGHtw+NPrlyPEsaQAAAHAA3xiYNXTWTRenUVFwOExgcdi2DY29WXkFAADABJzW3DN2iRg4XCawOCyL1uw+PqX63RExRxoAAABMwK5abp1x88qZ94uCQ2UCi8NbOGngmlBeAQAAMHGzW0V9tRg4HCawOGRL142dW+byk6EABQAA4NCUZVmcd8uqwU+KgkOhgODQ5JzKstxg7QAAAHAYiqLIGyJnAzUc2sIRAYdiydqRX44UF0gCAACAw5PPW7x27BflwKHQeDJhr27kGXsHR++MiKdLAwAAgCPwvWJg6IyNl6c9omAiTGAxYXsHR5aH8goAAIAj99RybORyMTBRJrCYkKWrh08qi+KrETFDGgAAALTB3nrKZ314+fRviYKDMYHFhOSiuDaUVwAAALTP9GaO9WJgIkxgcVBL1g6fn6O4zXoBAACg3VLkBZtWTP83SXAgJrA4oEYjFzmK60N5BQAAQAfkSBsuuiHXJMGBKLA4oNsGR387Is6VBAAAAB3y/B1fH/kNMXAgpmrYr1c28pzxwdG7IuIEaQAAANBBD0QxdPrmZelhUbAvJrDYr/Gh0UYorwAAAOi846IcXSUG9scEFvv08nUjz2zl+HJEDEkDAACASTDWasWP3XrltLtEwROZwGKfWjmuD+UVAAAAk2ewVot3iYF9MYHFkyxaM7IkpdgoCQAAACZbTvHKLcunfVgSPJYJLB5nQSPXixTXSQIAAICpkMq49tz35wFJ8FgKLB6nPjD6BznibEkAAAAwJVKcedSDo/9DEDx+WcCPvLyRj2oNjnwtIh0lDQAAAKbQ9ubg2OlbL5vzoCiIMIHFY5SDo2uVVwAAAHSB+fWxwbeLgUeZwCIiIi5cP3p2rcyfj4i6NAAAAOgCrZzTC7asHPqiKDCBRURE1Mr8R6G8AgAAoIsuVVPKG8RAhAKLiFi0dvR1EbFAEgAAAHSZCxevHf1ZMeAthH1uQSNPqw+O3hERp0oDAACALvTN5tjQWVsbaUQU/csEVp+rD45dFsorAAAAuteptaGxN4mhv5nA6mMLVw8/tSiKr0bELGkAAADQxXanWuuMTVfMvE8U/ckEVh9Ltdr6UF4BAADQ/WZFq75WDP3LBFafWrx6+EVRFB+zBgAAAOgRuYjyvI0rZnxCFP3HBFZf3uVziqK2IZRXAAAA9I5UptqGyNm1bB9SYPWhRetGfjUiv1ASAAAA9JScX7Rk7cgvC6L/aC37zIJGnlUfHL0rIp4iDQAAAHrQ95pjQ8/e2ki7RdE/TGD1mYGBkRWhvAIAAKB3PbU+OHKFGPqLCaw+svTqvaeWtXRHREyTBgAAAD1spGjlszZeOf2bougPJrD6SFlL7wrlFQAAAL1vWq6ld4ihf5jA6hOL1uy9MKV0iyQAAACojBRLNi+ftlkQ1WcCqw9cdEOupZQ2SAIAAIAqSTk2LGjkuiSqT4HVB7Z9ffQNEfFjkgAAAKBKcsTZtcHR35RE9XkLYcW9al2eP1qO3h0pjpEGAAAA1ZO31camPevmRtomi+oygVVxIzH6VuUVAAAA1ZWOag2NrpJDxc+yCKpr8TWjZ0YrfyEiBqQBAABAhTVbRXr+rcuGviKKajKBVWWtfG0orwAAAKi+er3M14mhuhRYFbV09cirI+IVkgAAAKAf5IglS9aO/BdJVJO3EFbQRY08uH1w9EsRcbo0AAAA6CP3DMwaes5NF6dRUVSLCawK2j44enEorwAAAOg/zxzbPfp7YqgeE1gVs/Sdu44rxwfujoi50gAAAKAP7WzWm2dsfcus74uiOkxgVUxrbGBNKK8AAADoX3Pq4/W3iaFaTGBVyOJ1Y+dELj8VETVpAAAA0MfKIhU/uXH54GdEUQ0msCokl+WGUF4BAABAUeby+sjZ4E5VTqgIqmHRutGfTyleKgkAAACIiIjzl6wfe50YqkETWQHnXZunzxgZvSNFnCINAAAA+A/fmT429OwPNtKwKHqbCawKmDk69hblFQAAADzJSXsHxy4VQ+8zgdXjFlwz/LR6K301ImZKAwAAAJ5kOIo4c/Oy6feKoneZwOpx9VZ6RyivAAAAYH9m5BxrxNDbTGD1sEVrh89LkT7qPAIAAMAB5SjipZuXTb9dFL3JBFaPajRyUUTaEMorAAAAOJgUZbq+0ch6kB7lxPWo2wdGfj1H/KQkAAAAYCLyC24bHPkVOfQm0zs96Pxr8uzprZG7IuJEaQAAAMCE/WBgbNrpNzXSTlH0FhNYPWhGa3RVKK8AAADgUB3fHBhZJobeYwKrxyxeN3Ja5HxHRAxJAwAAAA7ZWGql52y6ctrXRNE7TGD1mrK8NpRXAAAAcLgGyyKuEUNvMYHVQ5au27uwzLFFEgAAAHBkUkov37R82kZJ9AYTWD3iohtyrcyxQRIAAABw5HLO1y1o5LokeoMCq0ds//ro70bEcyUBAAAAbXFWbWj0d8TQG7yFsAe8at2O+aPl0N2R4hhpAAAAQNtsyzF++pYVcx4SRXczgdUDRvPg25VXAAAA0HZHFVG/SgzdzwRWl1u0dvSsFOXnI2JAGgAAANB2zSIX52xcOfRlUXQvE1hdLkV5bSivAAAAoFPqZSo3iKG7KbC62OL1oz8dES+XBAAAAHTUoqWrR14thu7lLYRd6qJGHtw+OPKliDhdGgAAANBxXx+YNe3smy5Oo6LoPiawutSOob1vCuUVAAAATJZnjO/ae7EYupMJrC60aM3u41Oq3RURc6UBAAAAk2ZXLZdn3Lxy5v2i6C4msLpQSrV1obwCAACAyTa7GcXbxdB9TGB1mcXr9pwTufh0KBcBAABgKpQ5lS/asnzmp0TRPZQk3STnFLm43nkBAACAKVMUUWyInA39dNNJEUH3WLx25Bcj4iWSAAAAgKmTc7x40dq9Py+J7qFN7BLnXZunzxwZuTMiTpYGAAAATK0U8d00MO3ZGy9Pe6Qx9UxgdYkZIyPLQnkFAAAAXSFHPK1sjlwmie5gAqsLLLhm+Gn1VrorImZIAwAAALrG3rKMM29ZNf3bophaJrC6QL2V3hXKKwAAAOg204si1olh6pnAmmILVw+/uCjS7c4FAAAAdKeiiJdtXDb9I5KYwnMggqnTaOSiKNL1obwCAACArlWWaUOjkXUoU0j4U+j2wZHfjIgflwQAAAB0s3zO7QMjvy6HqWPyZ4qcf02ePb01cndEnCANAAAA6HoPRDHt9M3L0sOimHwmsKbI9NboVaG8AgAAgF5xXCpHV4hhapjAmgILrx55RlHLX4mIIWkAAABAzxjLkZ67ZcW0u0UxuUxgTUXotXJDKK8AAACg1wymKN8phslnAmuSLV43sjhy3iQJAAAA6FE5vWLzymk3C2LymMCaRAsauR45XycJAAAA6GX5unPfnwfkMHkUWJNoYGD09yLiOZIAAACAHpbizPkPjv53QUxm5EyKlzcePqo1OHh3RBwtDQAAAOh1aXtzcOz0rZfNeVAWnWcCa5K0BgdXh/IKAAAAKiLPr43VG3KYHCawJsGF60fPrpXl5yOiLg0AAACojFYUxTmblw19SRSdZQJrEtTL8rpQXgEAAEDV1HJZbhBD5ymwOmzx2uGfzRFLJAEAAADVkyIWLlq757WS6HjOdMpFjTy4fWjky5HjWdIAAACAyvpGc2za2VsbaUQUnWECq4N2DI5cprwCAACAyjttYGjvG8XQOSawOmTRmt3Hp1S7OyLmSAMAAAAqb1ctl2fcvHLm/aJoPxNYHZKK2jtCeQUAAAD9YnYrFWvE0BkmsDpg6bo955a5+GQoCAEAAKCflGWZz7tl1YxPiqK9FCztlnMqy2KDbAEAAKDvFEWRNkTOBobaHawI2mvJupH/GikukAQAAAD0pfMWrx35RTG0l0awjV7dyDP2Do7cGRFPlwYAAAD0re8VA9PO2Hh52iOK9jCB1UZ7B0ZWhPIKAAAA+t1TW+MjbxFD+5jAapOlq4dPKov01YiYIQ0AAADoe3vrKc768PLp3xLFkTOB1Sa5KK4N5RUAAADwiOnNHNeIoT1MYLXB4vV7L4gyPiJPAAAA4LFSxIJNK6b/mySOjAmsI9Ro5CLKtCGUVwAAAMAT5EgbLroh1yRxZOoiODK3DQ7/dop0riQAAACAJ8vP337P8H+LiD+RxeEzNXQEXtnIc8YH994VESdIAwAAANiPB5pjo2dsbczfIYrD4y2ER2B8aG8jlFcAAADAgR1XGxpaJYbDZwLrML183cgzW7n8SkQMSgMAAAA4iPFWq3jurVdOu0sUh84E1mEqI78nlFcAAADAxAzUauW7xHB4FFiHYcnaPf8l5/xKSQAAAACH4KcWrtmjTzgMCqxDdO7780BO6VpJAAAAAIeqSOnac9+fByRxiLmJ4NDMe2jvH0SOMyQBAAAAHIZnz39o7++J4dD4EPdD8Mq1u44dj9rdETFPGgAAAMBh2tEcbD5r62VzHhTFxJjAOgTjub46lFcAAADAkZlXHxt4uxgmzgTWBL18/e7ntcriMxFRkwYAAABwhFq1ojz35mWzviCKgzOBNdFVVRYbQnkFAAAAtEetVRbXiWFiFFgTsGTd8EURsUASAAAAQBtduHjd8M+J4eC8hfAgFjTytNrg3jtTxCnSAAAAANrsm82x6WdtbaQRUeyfCayDqA2NXK68AgAAADrk1IHBkUvFcGAmsA5g4erhpxZF3BURM6UBAAAAdMjuVMtnbLpi5n2i2DcTWAeQarE+lFcAAABAZ83KZawTw/6ZwNqPxauHXxRFfExGAAAAwCTIUaSXbl42/XZRPJkJrH0umZxSEdeH8goAAACYHCnKvKHRyLqafRDKPixZO/JrOeInJQEAAABMonM/Ojjyy2J4MhNGT7CgkWfVB/feFRFPkQYAAAAwyb4/MDb9jJsaaaco/pMJrCcYGBheEcorAAAAYGqcMD4w/BYxPJ4JrMdYvG7ktMjlVyJimjQAAACAKTJaS8Vzbl4+7R5RPMIE1mPksnxXKK8AAACAqTXUKsv1YvhPJrB+ZOm6vQvLnLdIAgAAAOgGORdLt6yctkkSJrAiIuKiG3KtzPk6SQAAAADdokj5ugWNXJeEAisiIrZ9ffgNEfFjkgAAAAC6RY589sDQ8G9JwlsI41XrdswfLQfvjhTHWA4AAABAl9mWo3n6lhVzHurnEPp+AmssDzaUVwAAAECXOipFfVW/h9DXE1iLrxk9M1qtL0TEgPsDAAAA0KWaraL1/FuXzf5KvwbQ3xNYrfLaUF4BAAAA3a1eK4sN/RxA3xZYS1fveXVEfoX7AAAAAND90uLFa/a8qm9vfT/e6IsaeXD74N4vRcTp7gAAAABAj7hnYNb059x0cRrttxvelxNY2wf2vjGUVwAAAEBveWZz197f78cb3ncTWEvfueu4crx+d0Sea90DAAAAPWZXs16evvUts77fTze63m9nOY8WayMprwAAAICeNLs+XntbRLyhn250X01gLV6355wo06cioma9AwAAAD2qTDm/cNOqmZ/ulxvcV5+Blcu0IZRXAAAAQG8rckobIue+GUzqmwJr0ZrhX0gRL7XGAQAAgAo4f/HavRf1y43ti6buvGvz9Jl7994ZESdb3wAAAEBFfGf6+PRnf7CRhqt+Q/viQ9xn7h15SyivANquSBFnPa2Ic04p4tjZKebPSjFYS4IBIPaO53hwZ477duT4+N2tuH9HFgpA+500PDDy5oi4uuo3tPJXGQuuGX5avRlfjYiZ1jVAewzWI3763Hpc9KJ6zJ+psALg4L56Xxl/8W/j8ZlvlsIAaK+9UUvP3rxs+r1VvpGV/wyseiveEcorgLZ51glF/O83TIvfWTSgvAJgwp79lCLW/+JQXPWzgzF9wDQWQBtNjzKvrfqNrPSVx6K1w+elHB+NPvmsL4BOO+9ZtVj52sEYGpAFAIfvGz9oxrK/HY3tw4UwANoj55RetmXF9NuqegMr+4zRaOQi5bg+lFcAbfHM4wvlFQBtcdrx9Vj9+sEYLFrCAGiPlHLe0GjkyvY8lb1htw+M/HpE/IQ1DHDkhgYi3n6R8gqA9jn9KQPxmwuKyKUSC6BNXvDRgZFfreqNq2SBdf41eXZEXm3tArTH636yHsfOMdAKQHu95iemx4mz9yqxANokR17/ykaeU8XbVskCa8b43lURcaKlC3Dk6rWI172wLggAOvAck+L158+M1thuJRZAexw/Xt+7vIo3rHIF1sKrR56RU7zRmgVoj3NOrsWsaaavAOiMC86cFimVSiyAdklx6ZKrR55VtZtVuQKrKMprI2LIigVoj3NO8Q1RAHTO/JlFnHb8QOSsxAJok8FclO+o2o2q1FXJ0qv3LoyI11irAO1z3FzTVwB01vFzaxERSiyA9nntknUjS6t0gypTYF10Q66VtdhgjQK01/yZCiwAOuuoWf95WaLEAmiPXLauW9DIlfkw28oUWNu/tvd/RM7PtUQB2qvmHYQAdFi99vgXS5RYAO2QzhoYGH5DVW5NJS5LXrVux/yIeKvFCQAA1aDEAmjDY2mkqxet3Xl0FW5LJQqskXLw6og42tIEAIAKXXgpsQCO1PyU65UY+On5AmvR2tGzUsQbrEkAAKgeJRbAEfvdxW/f3fMfudTzH+aVcvPaKtwOAADoX/lH/7efP82taI3titrgrEhFTVwAh6YeteK6iFjcyzeipyewFq3d89qIeLm1CAAA1WYSC+CIHkUXLVm75zW9fAt6tsC6qJEHU87vsAgBAKBPLr+UWABH8Bga177yPXmoV4+/Zwus7YN7Lo1Iz7IEAQCgny7AlFgAh+kZ47v2XNyrB9+TBdaiNbuPj5yWW3sAANB/lFgAh6u48uVr9pzYk0feiwedcloXEXMsPAAA6E9KLIDDevScXea4uhePvOcKrIVr9rwgUvyaRQcAAH1+GabEAjj0x84Uv7Fo3Z6f6LXj7q0CK+dURN4QPf7tiQAAQLsuEZRYAIeoSGVcHzmnnjroXjrYRWv2/FJEeom1BgAAPEqJBXDIzlu0du/P99IB90yBdd61eXpKaa01BgAAPJESC+DQFJHfufSdeWbvHG+PmDE8vCwinm6JAQAA+6LEAjiEx8yIp5Vjw5f3yvH2RIG1dPXwSSnFZZYXAABwwAsyJRbAoXjLwtV7T+6FA633wkGWqXxXRJphXQEA0AvGWznu39aK7z7UjD2jZYyM54iImDlUxOzpKZ529EAcP68WRZJVJzxaYtUGZ0UqagIB2L/ptdRaHxG/2O0H2vUF1pK1w+fnnC+ypgAA6GZ3fncsbr9zJD73zdG463tj0SoP/PenDaQ4++mD8YLThuKlZ02Pk46pC7GNlFgAE3y8jPQLS1fv/eONq6Z/pJuPs6tf82k0cnH7wPAnIuLHLSmAqbHhV6fF2U8rBAGwDyNjOT706T3xgU/tie882Dyin3XWSYPxMy+cGYueOyOKPnvYvf5DO+IfP7GnMxc8qVBiARxMjs9d0Jzx441GKrv1ELv6ZZ7bB4d/M7LyCgCA7tIqI/7h33fH//dvu+Lh4fbs9e/4zljc8Z2x+PNbdsUbls6Jl509XdDtuCYziQVwcCnOuW1w+Dci4s+69RC79rWd86/54ewo4+1WEQAA3eTu+8bjd/74gXjvTQ+3rbx6rPu2NeOt/3dbXP6XD8YPd/og8nbwwe4AB5ci1i5ev21utx5f1xZY05oz3xopTrCEAADoFv/4iT3xe3/yw/j698c7/rs+dc9o/OZ7H4h/v2tE8G2gxAI42ANlHBetaSu79fC6ssB6+bqRZ6bIv2/1AADQFXv6HPHHH344rv/Qjhhv5kn7vTuHy1j+Nw/FDR/d7SS05TwqsQAO8kj5xkVrR07vxiPrygKrVbY2RMSQhQMAwFQrc8T6f9gefzdFJVLOEf/zww/H//nILiejLXkqsQAOYDDl1ju78cC6rsBafPXuxRHxKmsGAIBu8L6bH46bPz885cfxvzbtjH/4d5NY7aDEAjig1yxat/sV3XZQXVVgLWjkehTpOmsFAIBu8KFP7+mqt++996aH44vfHnNi2kCJBbB/qUzXnvv+PNBNx9RVBVa9vvf3I+I5lgoAAFPtGz8Yjz/814e76phaZcTVN2zryLcf9iMlFsB+nTnvh3t/t5sOqGsKrJc3Hj4qUl5ljQAAMNXKHPHuD+yI0fHcdcf2w52teP/NDztJbaLEAti3lHJjQWPnMd1yPF1TYLUG6msi4mhLBACAqXbTZ/fEV77TvW/Vu+lzw119fL1GiQWwT/NrA7VGtxxMVxRYF75919kR8VvWBgAAU63ZyvFXW7v7G/9yjvjzLTudrLZmqsQCeKIU8d8Xrdn9Y91wLF1RYNVrxXURUbc0AACYapu/uDd+sKP7S4xPf3007vyuKax2UmIBPEktUtEVX7Y35QXW4tXDP5cjllgTAAB0gw99ek/PHOu/fGbYCWszJRbA46WcFy5ZPfwzU30cU1pgvfI9eShSXm85AADQDb63rdlTny219ct7Y6yZnbg2U2IBPOFxMeV3LWjkaVN5DFNaYDV3D785Ip5pKQAA0A0+/tWRyD3UB+0eKeNL3/Y2wo5crCmxAB7rtPrgnkum8gCmrMBatGb38TnHFdYAAADd4nPfHHXM/AclFsBjHxTTyiXX7HnKVP36KSuwUqR3RMQcKwAAgG5xRw9+KPod3zGB1dHrNSUWwKNmlc1YM1W/fEoKrKXr9pwbEf/VuQcAoFvsHilj++6y5477Ow82nbwOU2IBPCJF/NrC1cM/ORW/e/ILrJxTWcb10QXfgAgAAI+6b1tvlhMP7mrFuA9yn4TLGCUWQESkIuXrI+c02b940kukJev2/NeION85BwCgm+weKXvyuHOO2DOqwJqcrJVYABHxokVr9vzSZP/SSS2wXt3IM3JOq51rAAC6zchY75ZAw2OlEzhJlFgAESmla5a+M8+czN85qQXW3oHhFRHxdKcaAIBuU+vhD7ioF8kJnERKLIB4ah4bvmIyf+GkPU0vXr/36RHxJucYAIBuNGOodxusmUMKrMmmxAL6/nEw4vJXrNt7ymT9vsl7lm6V10bEDKcYoNc26DIA+sO8mb1ZYA3WU0wf8v1IU/McqcQC+tq0Zi7fMVm/bFKe6Rav3ntBRPyscwvQe5IX9YE+8ZSj6lGv9d6D3tOOrod3EE4dJRbQ3w+CcdGStXtfNhm/quMF1kU35FqO8o8iwtMqQE9uzGUA9IdaEXHSMfWeO+5Tjqs7eVP+XKnEAvr6MXDDRTfkWqd/T8cLrB13D/92SvE8pxSgN5nAAvrJ808Z7L1jPnXIieuOCzglFtC3T5/bvzb8m53+JR0tsBY0ts/LKd7uXAL08oZcBkD/OPcZ03rumF9wmgKre54zlVhA31q9oLF9Xid/QUcLrPrgwFsj4ljnEaB3mcAC+slPPmsoZk3rnQ9Ef9aJA/G0o72FsJsosYA+dezA4MCVnfwFHXt2Xrp257Mjp99zDgF6fSMuA6B/DNZTLHjO9J453qXP9yXf3fncqcQC+vGxL/3BhVfvPKNTP7/o3IHXro2IAacQoLeZwAL6zUUvntUT3+o3c1oRr3yBAqt7L+SUWEDfGagVtXd36od3pMBavGbPq3LEK507gCpswGUA9JeTj63HBWd2/xTWz75oZk+93bE/n0OVWEDfedXCNXs60ge1/Rnv3PfngYj0bucMoBpMYAH96A0vnxOD9e59ADxqVi1+4fxZTlQPUGIB/aaIdO0j3VC7f267n0wf3HNxRD7DKQOoysZbBkD/eepR9fill3RvQfT7/2VuzDR91UPPpUosoK8e9Z49/8G9v9/un9rWZ71Xrt11bI60yskCqA4TWEC/+pUFc+I5Tx/suuNa+NzpsfC5052gXrucU2IB/fWo11i0Zvfx7fyJbS2wxnOxOiLmOVEAVdpwywDoT7Ui4sqLjor5M7tn0unU4wfi8tfOd3J69jlViQX0jTkpUqOdP7Btz8ZL1ux+fkT8pnMEAEBVHD+vFu/69WO64u16x8ypxfpfOTqmDxqN7WVKLKCP/M7SdXvObdcPa9szcY7YEBE15wcAgCp5xgkDsfaXj5rSEuv4ebW47jeOiePn2m5XgRIL6BNFWcaGyLktr7y05Vl48Zrh10eklzk3AABU0fNOGYrr/9sxccycyS+QnnHCQLz3t4+Nk46pOxEVosQC+sQFi9bt/bl2/KAjLrAWNPK0HPka5wQAgCp75okD8We/d1y88FnTJu13vvz5M+K9v33slBRndJ4SC+gHKedrX93IM4705xxxgVUbGL48RZzilAAAUHVzZxSx7leOjktfMy/mTO/cWwpPnF+Ltb98dCz/ufkxzWdeVZoSC+gDJ+0dGH7Tkf6QI3o2XLh6+KlFKu+KiJnOB0A1Xfcr0+I5J3nlH+CJHh4u4//evis+8MndMTzanq9sPWpWLX7+/Fnx2hfOiqGB/imurv/QjvjHT+zu6/WUUhG1wVmRCs+5QCUNR6125uZl0+893B9wRG+kL4rymsjKKwAA+s/cGUW8Yenc+MWXzI5Nnx+Omz8/HHffN3boe+oU8fxTh2Lp82fGhc+Z3lfFFf/p0UksJRZQUTOi2VodEb96uD/gsJ8dF60dPi/l8qNxhFNcAHQ3E1gAE/fAw6347DdG48v3jsZ3HmzGdx9qxu6RMkbHH5nQmj6YYs6MIk46eiBOPq4ezzt5KJ5/6lDMmVH0dW4msB5zgWYSC6iuHLl86eZVc24/nH982BNYKbfeHZGUVwAA8CPHza3FK86ZEa845/GfVVuWEUUhHyZwdWcSC6iulFLtmog4/3D+8WE9jS5ZPfwzEek82QMAwAQ23corDoEPdgcq+/gW+cVL1u55zWE9lx7qP7johlzLqVwtdgAAgA5d5CmxgMo+vuVrFjTyIb8j8JALrG33DP96RJwlcgAAgE5e5CmxgEp6dm1wzy8f6j86pAJrQSNPSzm/VdYAAACdp8QCqijleNsr35OHDuXfHFKBVR/Y8wcRcZKoAQAAJocSC6igk8d37vndQ/kHEy6wFjQemBURV8gYAABgcimxgMpJsWLpO/PMif71CRdY9fqM34qIoyUMAAAw+ZRYQMUcm8d2//pE//KECqyLbsi1SPkPZAsAADB1lFhApR7TIr35ohtybSJ/d0IF1ra7d78uIp0mWgAAgCm+4FNiAdVx6va7d792In9xQgVWSulNMgUAAOgOSiygMlKa0OetH7TAWrp610sj4oUSBQAA6B5KLKAifmLh6p0vPthfOmiBVaa4VJYAAADdR4kFVEGRam8+6N850B8uXD381Ij0U6IEAADoTkosoAKPZD/98jV7TjzQ3zhggVUr8q9FRE2QAAAAXXzpp8QCelutFfm/HugvFAd+EMy/IkMAAIDup8QCetyvH+gP91tg/egDtJ4tP4A+3wyLAAB653lbiQX0rrOWrN7z4/v7w/0WWEVKvyY7APaOyQCAztozWgqhjZRYQM8+fhWx3y5qnwXWgkaeFpFeLzoAHtplBguAznpwp6Kl7ReBSiygNx+8fumV78lD+/qjfRZYtfrun46IeZID4N6HvCoOQCevVSLu/WFTEB3JVokF9JyjxnfvftW+/mCfBVaR0mtlBkBExMfutukFoHO++r2xeHCX55pOUWIBPafcdyf1pAJrQSPXc8TLJQZARMR928v46n2msADojC1fHBZChymxgJ6S4lULGrn+xP/8pAKrNrD7JRExX2IAPOpPbvFJ7gC03/d3NOMDn9ojiEmgxAJ6yFH1+q4XPfE/PqnASpFeLSsAHuuL97Ziy5d9PgkA7VPmiOs/tCPGm74sZLIosYBekaJ4Uje1r8/A+ilRAfBE7/7QcNz5XZNYALTHn21+OD5+14ggJpkSC+iJx6oUBy6wlq7d+eyIeJaoAHii8bIWy/9mV3zm66PCAODwL0pyxF/cujP+5iO7hDFl50CJBXS9M5dc/fDj+qnHFVhlWbxCRgDsz57WtFj+f3bFX9yyM0bGvOUDgENz7w+bcflfPhh/cctOYUwxJRbQ9Y9TxeM7qsd/qntKF0S4IAHgAE8ktenx17ftjQ9++vvxMy+cFRecOS1OOW5AMADs03grx+e/ORpbvrg3Nn1hT7R8sW33PKf/qMSqDc6KVNQEAnSXlM6PiD/8j//52D9bvGb3fRFxopQAOJhyfG+0mo98dsnRs2tx3NxaHDW7FgP2vwBExPBojh/ubMUPdjRjeNSL5N19jVgosYBu9L3NK2c97T8eqx79fxZeveMZRVG/Rz4ATNRjSywAoHcpsYCuVKudvHnZ9HsjHvMZWEVRP18yAByKYmB61OrTBAEAPc5nYgHdKDVb/9FVPeZD3LMCC4BDpsQCgGpQYgHdpnzkc7Aeue74z/+cLhANAIdDiQUA1aDEArpJesywVYqIWPrOPLMc27MzHldoAcCh8ZlYAFCRi0afiQV0h1ZzfOasrY00UkRE5NHhM0N5BcARMokFANVgEgvoErXawJ7TIx4trYp8pkwAaAclFgBUgxIL6JJHo7MiHi2wciiwAGgbJRYAVOSyUYkFTPkD0SOd1SNvIfxRmwUA7aLEAoCKXDsqsYCpvK5IxWMmsCIpsABo/5ONEgsAKkGJBUzZ48+Phq7SK9+Th8Z37dkdEXWxANAJvp0QAKrBtxMCU2B8/vjMWcXY7l0nh/IKgA4yiQUA1WASC5gCAw/VHj6pKCKdKAsAOk2JBQDVoMQCJlutVpxQRJmeIgoAJoMSCwCqQYkFTKYy0olFGWECC4BJo8QCgGpQYgGTJeU4sUgKLAAmmRILAKpBiQVMzmNNnFBEocACYPIpsQCgKheWSiygs1KkE4tsAguAKaLEAoBqUGIBHXZikXLMkwMAU0WJBQDVoMQCOibleUVEuGoAYEopsQCgGpRYQGekaUVEdsUAwJRTYgFANSixgA6YXkQkVwsAdAUlFgBUgxILaLNp3kIIQFdRYgFANSixgLZJMV2BBUDXUWIBQDUosYD2PJjEtHryGVgAdKHawLRIkaPVHBEGAPT0hWcryrFdURucFamoyQM4HNMLGQDQrUxiAUA1mMQCjvjaICK8tA1A9z5RKbEAoBKUWMAR2KvAAqDrKbEAoBqUWMBhSTGiwAKgJyixAKAalFjAYTxwmMACoHcosQCgKteiSizgEB4zIpnAAqC3KLEAoCIXpEosYILSjz4Da68oAOglSiwAqAYlFjBBI0VKsV0OAPQaJRYAVIMSC5jAA8W2Ipf5fkkA0IuUWABQlWtTJRZwwJ3//UVEocACoHefypRYAFAJSixgf1LK3y9yhAILgJ6mxAKAalBiAft8bIi4vyjCWwgB6H1KLACoyIWqEgt40uNCfL8IE1gAVIQSCwCqcrGqxAIes8+PfH+Rc6nAAqA6T25KLACoBCUW8KiyVn6/mNea8+2IaIoDgKpQYgFANSixgIgY337U3O8UNzbSWER8Qx4AVIkSCwCqQYkFfS7F3Z95QxovIiJyxB0SAaBqlFgAUA1KLOhrd0REFBERKSuwAKgmJRYAVIMSC/rTo51V8cj/SneKBICqUmIBQDUosaAf7/hxZ8SjE1iFAguAalNiAUBFrmWVWNBXyjL95wTW0OiMOyOiFAsAVabEAoBqUGJB32gOzJt5d8SPCqwPNtJw+CB3APqAEgsAqkGJBX1wP4/44k0Xp9GIRz8D6xG3iwaAfqDEAoCKXNwqsaDa+/aIjz7m/39U+qhoAOibJ0MlFgBUghILqnwH30eBlcqmAguAvqLEAoCKXOMqsaCiah979P9Lj/3PS9bs+m5EPFVAAByK4+akOGZOEfNnpqgVPbjpbY5FWY47kQBtNNbM8dCuVty3rRm79vq+KCZHSkXUBmdFKmrCgN5376aVs09+9H/Un/CHH4+I18kIgIM5ZnaK1/7EQFxwRj2eMr/o8VtjCgugU8oy4kv3jsYtXxyOf/3snmi2slDomEcnsZRYUAEpHvdOwScUWOn2iKzAAmC/6kXEr7x0MH72JwdjqC4PAA6sKCKed8pQPO+Uofj5C2bHH/3rjvj4XXsFQ8cosaAi9+UyPva455PH/o9W2fyQiADYn9nTU6z9henxiy9WXgFw6J5yVD3W/PIx8TtL50ZK8qCDF74+Ewt6Xq1Wfvix//txBdYtV877ekTcLSYAnmioHrH2F6bH80/xSiYAhy+liF98yZz41QVzhEFHKbGgl58s4is3L597z2P/0z4+tCR/UFIAPNFlr54WZ5xYCAKAtvi1C+fG+WdOFwQdpcSC3pTK9KRu6slXIikpsAB4nHNPrcXLzvSeQQDaeHGSIi75qfkxNOC9hHSWEgt6UXnwAmveM2fdHhEPCQuAR/23C4eEAEDbHTOnFq/5iVmCoOOUWNBTfjj39NmfeOJ/fFKBdePrUytF3CwvACIinn5MEc86wVsHAeiMxc+bIQQmhRILekX6lxtfn550Ry32fceOfxIYABERL3ymtw4C0DnPOnEwjpnjC0KYHEos6H4plR/Y13/fZ4E13pz1wYjYLjYATj7GZ5MA0MkLlYiTjx0QBJNGiQVd7aHarNk37esP9llgbW2kkYj4O7kBcNQsbx8EoLOOnm0Ci8mlxIIuleJvbro4je7rj4oD3KH/UnIAzBiUAQCdNXPItC+TT4kF3afIxX67qP0WWJtXzf33iLhTfAAAAFSREgu6SIqv3Lxy5mf398cHfF9ITvmvJAgAAEBVKbGgW+6M6c8P9McHLLBSrfZXEeFeDAAAQHWvm5VYMNWaRaT/c6C/cMACa9MVM++LiH+WIwAAAFWmxIIp9U83r5x5/4H+wsG/Wirld8sRAACAqlNiwZTd9w7aPR20wNq0Ys5HU8THxQkAAEAfXEgrsWBy3f6jLxI8oGJCPyrFtfIEAACgHyixYPKkCb7zb0IF1txnzvrHFPF1sQIAANAPlFgwKb724rHZE/rs9QkVWDe+PrXKiOvlCgAAQL9QYkGn72RxbaORyon81WKiP7MY3PO/I+JB6QIAANA319dKLOiMFA9Ma876q4n+9QkXWBsvP2FP5LROwgAAAPQTJRa0XypjzQcbaXiif784lB8+rznzjyLSN8UMAABAP1FiQTulb9XmzHr/ofyLQyqwbmyksYjy7YIGAACg3yixoE1SXHXTxWn0UP5Jcai/Y96zZv91pPiKtAEAAOg3Siw4Yl8+f2zm3xzqPzrkAuvG16dWLvNKeQMAANCPlFhw+FLKyyf6zYOPVRzOL9u8as4HIuJjYgfogw2aCACOWLOVoyzlAJXaIymx4HB8dOOKOR86nH9YP4I765tTKj4WEUn+AAAQ8d2HmvH5b47EHd8Zi3t/OB73bW/Frr1lNFuPvBwwWE8xZ0YRJx1dj6cfOxDPPXkozjltKI6aVRMe9KBHS6za4KxIhfsxHOwuk1L55sP9x4ddYG1eNfffl6ze+f9Fil9xDgAA6Ffbd7fiw5/bExs/vye+9cD4Af/uWDPHgzvLeHBnMz73zZH4wCd3RUoRz336UCx5/sxY/GMzY9pgv74+bOaXHl25uRWtsV1KLDj4w/xfbVw59xOH+8/rR/K7W1FfXovmz0TELGcCAIB+8uDOVvzNR3bGTZ/dHaPjh1++5BzxxW+Pxhe/PRp/umlH/Ox5s+N1582OGUOFkKFXrstNYsHB7I6B2ooj+QFH9Kx4y6oZ30spXeM8AADQL1plxN/dvjN+9fr74p8+seuIyqsneni4jD/f8nD82nvuj61fHhY29BCfiQUHkGLdpitm3nckP+KIX9YZG5v1roj4prMBUNXnGgAe9cOdrXjT//5BvO/mHbF3rHNveXtwZyve9ncPxlv/74Oxe8Snv0OvUGLBPn1zfGz2tUf6Q464wNraSCMppbc4HwAV3YiJACAiIr5y72j81nvvjy99e3TSfudHvjIc/+P9P4j7tzedAOiVvZMSCx5/n0jpsq2NNHKkP6ctb6zfuGL230ekTU4LAABV9Im798ab/+KB2Dk8+dNQ33lwPP7gT34Q3/jBuBMBvXLBrsSCR+4LEbduXjH7H9rxs9r2yZBFK94UEV4aAqgYbyEE+t0XvjUaV/3tg239rKtD9dCuVrz5z38Q333Qdht65sJdiQWtHMUl7fphbSuwbr5q9lci4s+cH4CKbb5EAPSxe384Hiv/5ocx1pz6R8Mde8pY9tcP+Ews6KV9lBKLPpYi/68tK2d9sV0/r63fzVuM5xURsc1pAqjSEw9Afxpr5rj6xodiTxcVRt/b1ox1/++hyF5dgJ6hxKJPbR8bT1e18we2tcC6uTF3W4q82nkCqNCmSwRAn/rTTTvinvvHuu64PvbVvfHhz+1xgqCX9lNKLPpv1b9ta2POg+38iUW7D3FsfM4fRoqvOFkAAPSqb/5gPP7xE7u79vjed/P2eHjYWwmhpy7nlVj0jzu3HTPnf7b7h7a9wNraSM3cat+HdAEAwGR7383bo9nq3hnUncNl/O1tO50o6DFKLPpBWeRLP/OG1Pavzi06cbCbr5y1OXL8q9MGAECvuef+sfjUPSNdf5wf+OQuU1jQg5RYVHt9x4e2LJ/74U787KJTB13U8hsjYtTpAwCgl9z4sV098SHpI2M5bvrMbicMevIiX4lFJY3Vc1zWqR/esQLr5uVz74kU73X+AADoFSNjOW67Y7hnjvfDn/dh7tCrlFhUTcrxng9fOeeuTv38opMHXx8bf1vK8X2nEQCAXvDvd++NvWO98/2r335gPL79wLgTBz1KiUVlpHigrDdXd/JXdLTAuqlx9M5I6a3OJAAAveCz3xjpvWP+5ogTBz1MiUU1FnKs3LzsqIc7+SuKTt+GF4/P+tOI9BlnEwCAbvfFb406ZmDyr/2VWPT2Cv78vGfN/vNO/5aOF1iNRioj5TdGRHZSAQDoVs1Wju8+1Htvx/uWtxBCNSoAJRa9KhWX3Pj61PGFW0zGbdm0Ys5HI8XfO6sAAHSr+7Y1o1X23nF/b1szSi8VQyUosei5NZvy321aMfvfJuN3FZN1o1JZf3NEGnZ6AQDoRjuGy5487vFmjuHR0gmEqhQCSix6x956KpdN1i+btAJr46oZ38m5vNb5BQCgK3fhPVwCDY8awYIqUWLRIwv1nR9ePv9bk/Xrism8bdObe9ZFpHudZYBeel6SAdAfWmUvH7sHa6jeHkyJRVf7Xhra+47J/IWTWmB9sPGU4YhypfMM0DtSkgHQH6YP9e4D3oyhwgmEClJi0bVrM/JbNl5+wp7J/J2T/ky3acWcv4mI251ugF7ZOMkA6A+zpvVmCZRSxMwhrzZAdfdiSiy67Hkn4uObV8z528n+vZP/LJ1SLqJ8Y0T4pEmAHrkwAugHTz2q3pPHfeycetRrHqyhypRYdJEy5XxJpDTpL3NPyctMN6+c99nI8dfOO0AvbJhkAPSHGUNFHD271nPH/fRj6k4e9MWeTIlFNyzE+MubV8395FT86imbky5TcUVE7HT2AbqbCSygn5x10lDvHfPTh5w46BNKLKZ0/UXsKlJtyj7XfMoKrC0rZ/0gRay3BAAA6BbnnNZ7ZdA5pyqwoJ8osZgqKWLNzStn3j9Vv39KP6ly7vjsd0fE1ywDgG7eJMkA6B8vPmN6T02ezplRxHNMYEEf7s+UWEy6b9Rnz94wlQcwpQXWjY00FjmusA4Aupe3EAL95Ph59XjeKdN65ngvfM4MH+AOfUqJxeSut7j0povT6FQew5R/V/CmVXP+MXLaaDkAdO2TFUBfec1PzOqJ40wp4qd+fJYTBn29T1NiMRlPOHHL5lVzPjDVh1F0QxZlEW+KiKZVAdCdF0gA/eRlZ8+Ip/XAN/udd8b0eOaJg04Y9DklFh3Wys3ikm44kK4osLasmH1Hjvy/rAuAbtwUyQDoL0UR8RsL53X9Mf76wrlOFvCj/ZoSiw5J6Y83XzXrS13x3NctmdTG48qIeMjqAOi25ywZAP1n4XNnxAtO697PwnrNT8yOZ5m+Ah5DiUUHbB8fy2/rloPpmgLr5sbcbSnnt1sfAN22GZIB0J/e/NNHxYyhouuO68T59fitxaavgH3t25RYtHM95au2NuY82C3H01XPyGPNOf8zIr5smQAAMNWeclQ9Ln/tUV11TAP1FG/9+WNi5rTCCQL2SYlFm9yx/dg57++mA+qqZ76tjdSM6I4PBwMAgAXPmdE1nzWVUsRlP31UnPFUbx0EDkyJxRGvociXfuYNabybjqnrXrrZtHLWloj4oOUCAEA3+LUL58bPvHD2lB5DShG//8r5sfT5M50QYEKUWBz2c07EBzavnHtztx1XV84et8ryTRExatkAANANLv6p+fE7S+dNzYa9iLj0NUfFz54324kADokSi8Mw1krxlm48sK4ssG65ct7Xc8R7rBsAALrFL75kTiz/uaNj+uDkfT3rUbNq8a5fPy5+6sdnOQHAYVFicYiu27Jizt3deGBd++mPM+qjV0fE/dYOAADdYunzZ8Yf//cT4qyThjr+uy44c3r86e+dEOecOk3wwBFRYjFBP8i15rpuPbiuLbD++Ypjd0XEVdYPAADd5ORjB+IPf/v4uOy1R8Uxc2pt//mnHDcQ63/l2Lj6l46N+bNqAgfaQonFQddIiuWblx31cLceX72bwzt/fPb//ujArt+JiJ+wlAAA6BZFinjVubNi6fNmxoc/tyc+8Mnd8fXvjx32z0sp4rknD8Xrzpsd5585I4okY6D9Hi2xaoOzIhUKch63OD53wficv9zcxYfY9U+NS1fvfHFOcXsvHCtAFV37KzPiOSfZ4AAczDe+Px633zkcn/3GSNz53bEYa+YD/v0ZQ0X82ClD8YJTp8VLz54ex8+r92127/nQ9vjHT+yyiGCyioBUKLF4rFykeNnNK+bc1s0H2fXPkhtXzfnYkjUP/11E+gVrCgCAbnXaCQNx2glz41cvnBtlGfGDh5vx3YeasWekjN0jZaQUMXOoiLkzi3ja0QNx7BwXjsDUMInFY6VIf3vzitm3dftx9sTLPPX6wOXNZvPVETHT0gIAoNsVRcSJ8+tx4vy6MICupMTiR/Y2c3NFTzy39sJB3nTFjO+myO+yrgAAAKA9fLA7kdL6W1bN/3YvHGrRK5numj7nmoj4ttUFAAAA7aHE6mvfTQN73t0rB9szBdbHL017I+fl1hcAAAC0jxKrP6WcLtt4+Ql7euV4i14Kd9OquX8bER+xzAAAAKB9lFh952MbV866oZcOuOi5O1VRuyQiSmsNAAAA2ni9rcTqF2Xk8o2RUu6lg+65Amvz8pmfyxF/Yb0BAABAeymx+sL/3rRq3qd77aCLXky6GE/LI+Jhaw4AAADaS4lV4XMbsauI2lW9eOw9WWBtbMx+IFKstfQAAACg/ZRYFZXi7TevnHl/Lx560auZzxubvSEi7rb6AAAAoP2UWNWSIr4+MGv2H/bq8dd79cBvbKSxJWt3Xh45f8AyBACAnr5M/tH/AV1378ytaI3titrgrEhFTSC9LKVLbro4jfbq4Re9nP2mFXP+OSJutgoBAACgM0xiVcKWjSvmfKiXb0DR83eksnhTRIxbiwAAANCha28lVi9rpigu6fUb0fMF1uYrZ9+ZIt5nPQIAAEDnKLF61ns3rpz95V6/EUUVzsRAkd8aEQ9akwAAANA5Sqyes61M6eoq3JBKFFj/snze9ohoWJcAAADQWUqsHjpXKa/asmLOQ1W4LUVVTsq8Z815X6T8JcsToL2aLd8KBUBnjXuugZ6jxOoJdzTH5v5JVW5MZQqsG1+fWqkVl1ifAO21bY+LCgA666FdLoChFymxulyR37S1kZqVuTlVOjcbr5x3S478T1YpQPs8sLMUAgCdfa552MUv9ColVrdK/7Bp+byNVbpFReXOURFvjogRixWgPT77TZsRADpn++5WfOMHY4KAHqbE6jpjUeZlVbtRlSuwNi+f942IdL31CtAeX7q3GTv3ehshAJ1x253DkT3NQM9TYnXTyUjv2nTl3K9V7WYVVTxX0+ujayLifqsW4Mi1yogbPj4qCADartnKccPtOwUBFaHE6go/qDfHr6niDatkgfXPVxy7K6e00roFaI8PfHosvr/DZ2EB0F7/+O+74nvbmoKAClFiTa2U0hU3NY6u5CsDRVVP2gVjs/8yIj5p+QIcudFmROPv98bImPd4ANAeX7l3NP5k8w5BQAUpsabMZ148Nvuvq3rjUpXP3KK1O88rcv5o1W8nwGT5iVOLWPVzM2P6oIdVAA7f1+4bi7f81QOxY4+LW6iylIqoDc6KVNSE0Xk55/TSzavm3F7VG1hU+extWTHn4ynib61jgPb41DfLuOQvvN0DgCPYo39xT/zBn35feQV9wCTWZIYd/1+Vy6uIPphMWrh6+Km1NH5XRMy0ogHao5Za8VPPT/ELF8yOo2d7RQ2Ag13ERnz53tH408074ovfGhEI9BmTWB03nGutMzcvO+reSq+jfjiTS9Y+fFXkeJs1DdDGi5GyFeX47jjzqQPxgmdMi+Pm1uPo2bUYrHt7IQARu/aW8dCuVnznwfH4+F1744GHTe9CP1NidTLbuHLjirmrK387++Fknndtnj5r7847IuIUSxugfXLZemQsPPuGQgAADkyJ1RHfmTa+59kfbDxluOo3tOiHs/nxS9PeHPkK6xqgzZuQovbIJiQVwgAA4IB8JlYH9uMpX9oP5VVEn30735I1O7ZGpJdZ4gBt3oyYxAIAYIJMYrXN7ZtWzHlppJT74cbW++wS65LI6dMR4V4C0NZNSC1qA7OUWAAAHPzKPJfRGt2txDoyZSrzJf1SXkX0yVsIH7Vp5fzPp0j/2zoHaD9vJwQAYKK8nfBIN9/pTzZeNe8z/XST++8qo5lWRcQOqx2gA8+jSiwAACZIiXXYdo6PF41+u9F9d4WxsTH7gUhptfUO0BlKLAAAJkqJdRj77RyNrY1Z3++3292XVxfbjpn9nhxxl2UP0KEnVSUWAAATpMQ6JPfMbc15bz/e8L68svjMG9J4kdNl1j1A5yixAACYKCXWBPfYKS6+sZHG+vK29/OJX7L64X+NiFe6CwB0cDNStnw7IQAAE5JS4dsJ92/TplVzl/brje/rl8VTkS6NiHH3AYBOPtaaxAIAYGJMYu3XeC2nP+jnAPr6amLjijlfTRHvdT8A6CwlFgAAE6XE2qc//PCVc/r6s7z7/kpirFm+LSIedF8A6CwlFgAAE6XEepwfjjfLq/s9hL6/itjamL8j53yV+wNA5ymxAACYKCXWj/bQKa/a2pi/o9/XgyuIiJh/xtz/FZG+IAmASXgCVmIBADBBSqz0hbnPmvtnVoICKyIibnx9ahWp9SZJAEzS07ASCwCACernEivn1iU3vj55H2UosP7DzSvn35oi/T9JAEwOJRYAABPVnyVWunHzlfO3OvuPcNXwuHtEeXlEjAgCYJKekpVYAABM9JK9v0qskVqt9RZn/T+5YniMjVfO+2ZEulYSAJNHiQUAwET1S4mVI9714eXzv+WM/ydXC08w3hxZFynukwTA5FFiAQAwUdUvsfL3ms3Ra5zpx3Ol8ARbG8ftzhHLJQEwuZRYAABMVKVLrJSWbW0ct9tZfkIsItjnPSEtWb3ztkhxvjAAJvkhuGw9shnJpTAAADiglIpHXgQtalW5Sf++aeWcF0dK2dl9PC9z7/sekFPOb4wIV08Ak/0QbBILAIAJqtgkVi4i3qi82jdXB/ux8ap5n4mIv5EEwORTYgEAMFEVKrH+6uZVcz/pjO6bK4MDGG/W3hIROyUBMPmUWAAATFQFSqzd0ayvcCb3z1XBAWxtzPp+TvkdkgCYGkosAAAmqpdLrJTy2k2Nmfc5i/vniuAgBmbPfVdE3CMJgCl6MldiAQAwQT1aYn1jbHzudc7egbkaOIibLk6jOfIySQBMHSUWAAAT1XslVrpsayONOHMHSUkEE7Nk9cMbI2KJJACmcDNSth7ZjGRfEgsAwIGlVDzyImhR6979baRbN6+as9DZOjgvZU80qLJ4U0Q0JQEwhZsQk1gAAExQD0xitXJqXuJMTYwrgAm6+arZX4mIP5UEwNRSYgEAMFHdXGLliPdvWXnUF52libH7P5SwmrEyIh6SBMDUUmIBADBRXVpibW8201udnYmz8z8ENzfmbssRqyUBMPWUWAAATFS3lVgporG1MedBZ2bi7PoPUbM5548i4iuSAOiCJ34lFgAAE9RFJdadDx0754+dkUNjx3+ItjZSM+d8iSQAuoMSCwCAieqGEqvMceln3pDGnY1DY7d/GDZfOW9zRPyLJAC6gxILAICJmuIS64Nbrpz7YWfh0NnpH25wtbgkIkYlAdAdlFgAAEzUFJVYY2WRLpP+4bHLP0w3L597T0S8VxIA3UOJBQDARE12iZVzvn7Lijl3S/7w2OEfgXqz+bYU8X1JAHQPJRYAABM1iSXWAzFQrpH4EezzRXBklq7Z8Ts5x/slAdBlm5Gy9chmJJfCAADggFIqHnkRtKh15ufn+K2NV877M0kfPi9PH6EXj8/904j4tCQAumwTYhILAIAJ6vAk1ufmnjH3L6R8ZOzqj1CjkcooiksiIksDoLsosQAAmKhOlVgp8iU3vj61JHxk7OjbYNOKOR+NiL+XBED3UWIBADBRbS+xcvzfjavmf0SyR85uvl0XSNF6c0QMSwKgCx+jlVgAAExQG0usva2Ul0m0Pezk22TjqqO/Ezm/WxIA3UmJBQDARLWjxEo5v+OWVfO/Lc32sItvo90zd6+LHPdKAqA7KbEAAJioIyqxUnw3po2+U4rtYwffRh+/9KS9KaUVkgDoXkosAAAm6rBLrJzesvHyE/ZIsI37eBG0fXWnJWt2fiQiXyAMgC5+uC5bj2xGcikMAAAOKKXikRdBi9rB/26Oj29cNff8SClLrn28/Nz+VZ2LlN8YEa6IALr54dokFgAAE3QIk1hlK6c3Kq/az669A25eOe+zEemvJAHQ3ZRYAABM1ERKrBzxF1uumvspabWfHXuHlKm2LCJ2SgKguymxAACYqAOVWDliVy0NrJJSZ9itd8iWlbN+kCPWSQKg+ymxAACYqP2VWCli9c0rZ94voc6wU++g+c2510bE1yQB0P2UWAAATNQTS6wU8fX6nLnXS6Zz7NI76MZGGovIV0gCoDcosQAAmKjHllg550tvujiNSqWDe3URdN6S1TtujoilkgDokc1I2XpkM5J9oSwAAAeWUu3fbl399AWS6CwvMU+Csqi9KSKakgDokU2ISSwAACYiRytS8UZBdJ6d+STYsmL2HZHy+yUB0DuUWAAAHHzPmP7XrVc/7QuS6Dy78kkyWKQrI+IhSQD00oZEiQUAwH7tyPXBq8QwOezIJ8m/LJ+3PUV6uyQAeosSCwCAfSrjbVsbT3lQEJPDbnwSjTXn/M+I+JIkAHqLEgsAgMftDyO+GkOn/JEkJo+d+CTa2kjNSPEmSQD04CZFiQUAwKNyumxrI/mytklkFz7JNq2ctyVS+mdJAPQeJRYAAJHSh25de8q/CGJy2YFPgVaZL42IUUkA9OB+RYkFANC3cuSxaOXLJTH57L6nwC1Xzvt6zvEeSQD0JiUWAEB/quX4w63rTv2qJCafnfcUmTE4fnVEvl8SAL1JiQUA0Gf7v4gHila+WhJTw657ivzzFcfuSjldKQmAHt7EKLEAAPpGmYpVm695xsOSmBp23FPoxa25fx4pPiUJgN6lxAIA6AtfuLD+9D8TwxTuu0UwtRat3XleUZYfdS4AelsuW9Ea2x05l8IAAKjURi9yvYiFm1efulUYU8fLxVNsy4o5H48cfycJgN5mEgsAoKobvbhBeTX17LK7QL3Vujwi9kgCoMf3NkosAIBq7e8ijcRALJPE1LPD7gI3NY7+bsr5XZIAqMAmR4kFAFAZOeJdWxunfksSU8/uukvsmrn7moj4tiQAep8SCwCgEru67w2OPrxeDt3BzrpLfPzSk/amlIwlAlRlu6PEAgDoaWURb9n4ruf5uJ9u2V+LoLssWb3j3yLipZIAqAbfTggA0IubuPj3rWtOeXGklIXRHbws3HUXOvmSiHCVA1ARJrEAAHrsujyiTLW4RHnVXeymu8zmq+Z/LiL+XBIA1aHEAgDoHUVKf3nr1ad+QhJddl5E0IUXOs3aioh4WBIAFXpsV2IBAPTCrm332FixSg7dxy66C21szH4gpVgjCYCKbYeUWAAAXb5hS6s/+o6n3yeI7mMH3aXmjs+9PiLulgRAxfZESiwAgK6Uc3xj+nFP3yCJ7mT33KVubKSxyPlySQBUjxILAKD7FKl26U0Xp1FJdOkeWgTdbenqHTfliFdIAqB6ctmK1tjuyNmXzwIATK1069Y1pyyUQ/fy0m+XK3Pt0ogYlwRABbdJJrEAALpAbtYGapfIobvZMXe5zVfOvjOl/D5JAFSTEgsAYKrV37elcdIX5dDd7JZ7wECR3hoRD0oCoJqUWAAAU2Z7DNTfJobuZ6fcA/5l+bztkVNDEgDVpcQCAJgCRbpqa+MpBkZ64VSJoDfMO2PO+1KEkUaAClNiAQBMqq9G7WQf2dMj7JB7xI2vT63I8SZJAFSbEgsAYHIUOV26tZGakuiR8yWC3rHxynm35BT/JAmAalNiAQB0eL8V8YFb1p5ykyR6h51x752xN0fEiCAAKr6pUmIBAHRGjtFI+QpB9Ba74h6zefm8b6SIDZIAqD4lFgBAB/ZYteL6W1efdpckeosdcQ8aa46tiZTukwRAH2ywlFgAAO3bW0U8UBtrrpVE77Eb7kFbG8ftjihXSgKgTzZaSiwAgLZoFWn55mue8bAkeo+dcI/atGLeX0bEJyUB0B+UWAAAR+zzC2sn/4UYepNdcM9eyaRcFsUlEZGFAdAnD/1KLACAw5MjpyIuaTRSKYzeZAfcw7asmPPxHPn/SAKgfyixAAAOYw+V4v/eevWp/yaJ3lUXQW8ro3VFLWqvjYiZ0gDokw1YUURtcGa0xnZHzl5EBAA4yO5pbx6IFXLobV6+7XG3rDrme5HiGkkA9Nk2zCQWAMAEN07lO7Y2Tv2WIHqbXW8FjI/veGdEuDMC9NteTIkFAHBgOb47OLL7nYLofXa8FbC1cepITukKSQD0HyUWAMD+lSldtvFdz9sjiQrse0VQHUuu3r41UrxMEgD9J5ctn4kFAPD4HdLtW9c84yVyqAYv11brbF4SES1BAPQfk1gAAI+Ro1Xk8o2CqA673ArZtHL+53PkP5MEQH9SYgEA/MfG6M9vWfuszwqiOuxwK2agGFgVETskAdCvezUlFgDQ5/uhiIdruVwliWqxu62Ym1bM/mGkWC0JgD7etCmxAIA+lqNYvWXtaT+QRLXY2VbQtmPmvSdHvksSAP1LiQUA9OUeKKe7dz395OslUT12tRX0mTek8UjxZkkA9PkGTokFAPTb/iflyz7zhjQuiQqeWxFU15LVO/41Ir9SEgD9LZetaI3tjpxLYQAAlZVy3Hzr2tNeIYlq8pJsle+8RfPSiNA8A/T984FJLACg4nIeL3LtUkFUl51shW1cccxXU8R7JQGAEgsAqPReJ6c/3rLu5DskUV12sRU31oy3RcQPJQGAEgsAqKb84HiuNeRQbXawFbe1MX9HRL5KEgBEKLEAgErub956+/qTt0ui2uxe+8C80+f/SUR8QRIA/GiTp8QCAKriS8c89+T3i6H67Fz7wI2vT60c+fcjIksDgAglFgBQDUUqLrnx9akliT441yLoD5tXHXV7ivgHSQDwKCUWANDTe5mc/uGW1afcIon+YMfaR8p6vjQihiUBwH9s/JRYAEAv7mFyGq0NFpdLon/YrfaRzcuOujfldJ0kAHjcBlCJBQD0mqK4dnPj5G8Ioo9OuQj6y1BreG3kuFcSADyWEgsA6KGdy/25vnutHPqLXWqf+WDjKcORYpUkAHjSVlCJBQD0huVbG2fvFkOf7VVF0IdyTktW77gtUpwvDACe9DRRtqI1tjtyLoUBAHSVlNMnb11zyosipSyN/uIl1r68x6eccnpjRLgyAeDJTxMmsQCALpQjyqKWLlFe9Sc70z618ap5n0k5/j9JALAvSiwAoOv2J7n4P1uuPuXjkuhPdqV9rFUMvCUidkoCgH1uEpVYAEC37Esi7Ynm+HJJ9C870j62ZeWsH0TkayQBwH43i0osAKAL5Mjrt77jWd+VRP+yG+1z9Tnz3x0R90gCgP1RYgEAUyrHt0aHv/9uQfQ3O9E+d9PFaTRHWiYJAA5EiQUATJkcl3/8uhfvFUSf70dFQETEktXbN0bEEkkAcMD9Y9mK1tjuyNkX2QIAkyClf9u6+tQFgsDLqDyyEMryTRHRlAQAB9xDmsQCACZLjlbU4xJBEKHA4kduvuror0SkP5UEAAejxAIAJkNO8WdbG6d+XhJEKLB47GJoppUR8ZAkADgYJRYA0GE7ynL6KjHwKLtO/sPNjbnbcsRqSQAwEUosAKBTcpmvvm3diT+UBI+y4+Rxms15fxQRX5YEABOhxAIA2r6/iHTX7lNO+0NJ8Fh2mzzO1kZq5pzeJAkAJrzJVGIBAG2Uy/Kyz7whjUuCx7LT5Ek2Xzlvc0T8iyQAmCglFgDQlj1FpH/duu4ZH5IET2SXyb4XRq24JCJGJQHAhDecSiwA4AjkiLFWSpdJgn2xw2Sfbl4+957I8UeSAOBQKLEAgMNV5Pzej6w+5U5JsM/1IQL2Z/pg820p0vclAcChUGIBAIfhh3mweLsY2B87S/brn684dleZ4ypJAHColFgAwKFtHtKVWxun7hAE+2NXyQFd0Jr7ZxHxaUkAcMj7UCUWADCRPUPEFxfUT/kTSXCQdQIHtmTttvOjTLdZLwAcjly2ojW2O3IuhQEAPEktFwu3rD3lVklwIF4S5aA2rTjqo5HzjZIA4HCYxAIA9rtPiOJG5RUTYSfJxB5UUr4sIoYlAcBhPY8osQCAJ+4PIo20UlwhCSbCLpIJ2bjq6O9ExLskAcBhb1KVWADAY/cGKb37I6tP+aYkmAg7SCZs94zd6yPHvZIA4LA3qkosACAickr3lfU96yXBRNk9MmEfv/SkvSnlFZIA4EgosQCAlPIVWxtn75YEE14zIuCQ5JwWr97xbynFS4QBwBE9pfh2QgDo001A+sTWNaecFyllYTBRXvrk0Pz/7d17lJ1lfejx37P3TBKKlsAkQClUAkxg1bWKbddqBa0ipwRdPctzurpkrZ6unp7bKr0dCBEChCRsnJkEAorWKqK1aq09PaQeLYqBMMkMVAT1UAS8gFbFclFy4ZYBkpnZ73P+0GOlEkhm9uV99/58/uH/b979XH77ZXZKuV5LKyPCbQOA+W0p3sQCgL6TI4pIsdLwioPlxMhBu+Wyxf8UER9TAoD5MsQCgD7b+1P6+OTYsruU4GA5LTInRRq8NCKeUQKAeR9kDbEAoF9M1fL0ZTIwF06KzMm2y17xeI68UQkAWsEQCwD6YL9P9Q3bx05+VAnmwimROTt89vB3RcS3lACgJYdaQywA6GXfXXTkL7xLBubKCZE529xI0ynHaiUAaBVDLADoTbUo3r7lvLRPCeZ8TpSA+Tpr9ImbI+JsJQBolVw0ozk9FTn70VsAqL40OTl2wpt0YD58vcm8FbW8KiJmlQCgZcdcb2IBQI/Is6m2YKUOzJdTIfO2bc3Q1yPF9UoA0EqGWABQfTlqH5wYOfZeJZgvJ0JaYkGtti4idisBQCsZYgFApT2ZBhddLgOt4DRIS9x06eInc05XKAFAqxliAUBF5bhisnHMLiFoBSdBWubwkxe/PyLuVwKAVjPEAoCK7d2RHogFJ7xPCVrFKZCW2XxOaqZcW6kEAG05CBtiAUB1FPntk43kx75oGSdAWmrrusXbI8WNSgDQDoZYAFAJn5nYeOLnZKCVnP5ouWZRWxUR+5QAoB0MsQCgvHLEdBS11UrQak5+tNz2dYu/HRHvUQKAdjHEAoByquf83smNyx5QglZz6qMtDhlsjkbE95UAoF0MsQCgZHtzpB21ZhpRgnZw4qMtbrx46Z6U8lolAGjrQdkQCwBKI9dql41fdeLTStAOTnu0zekzR3w0UvqyEgC0kyEWAJRiR773jPqr/koH2vaESUA7/bsNu0+rFekOzxoA7ZaLZjSnpyLnQgwA6OgmHDnVa2+aGFl2mxi0i68qaatta4bujIi/UwKAdvMmFgB0axNONxhe0W5OeLTdwGxeHRHPKgFA28/PhlgA0Nm9N9LeGEyXKEG7Od3RdlsaQ4/klK5WAoCOHKQNsQCggxtvXD3ZWPaQELSbkx0d8ewhU5si4ntKANCRs7QhFgB0wqODe/dcJQOd4FRHR9y56rjnUwqvlQLQMYZYANBeOeKirdec6s/F0JmznQR00lmjT9wWEW9QAoCOHa79OiEAtGGDTXdNji07PVLKYtAJvpKkw5eItDIimkoA0CnexAKAFt/rIopUTysNr+gkJzk6anz94fdEpI8qAUAnGWIBQCvVPjoxsuyLOtDRp04COn6JmB1YExFPKwFAR/cfQywAaIU9szP71slApznB0XFbG6/ckVKMKQFApxliAcA899Kojd6x6ZTHlKDTnN7oisNmDn9PRPqmEgB0/OBtiAUAc9tDc/rOoqOOf48SdIOTG12xuZGmU+QLlQCgKwdwQywAmMMGmlZtOS/tE4KuPH4S0E0rRp/YkiPerAQA3ZCLZjSnpyLnQgwAeEm1icmxZWfqQNeeQAnopiIXqyJiRgkAusGbWABwIPLsQG3gfB3oJqc1ump83ZJvROTrlACgWwyxAOBl9so0cN34yHH3K0E3OanRdQvq9UZE7FICgK4dzA2xAGB/nqw1B66QgW5zSqPrbrp08ZMp4nIlAOgmQywAeBG1tH7bxmN3C0HXH0UJKIPDlh9+fYq4TwkAuskQCwBe4IGoL/uADJSB0xmlsPmc1Ixcu0AJALrNEAsAfqiW86rJRppVglI8jxJQFlvXLd4ekT+lBADdZogFgM0wPr19w0lbhKAsnMoolVyvXxgRe5UAoOvndkMsAPr2Yhb7UqRLhKBMnMgolfFLF38nclyrBABlYIgFQD+q1Wrvnhg94UElKNVzKQFlM9Oc3RApHlMCgDIwxAKgr/a9iB21mWKjEpSNkxilM9k4cioiXaYEAKU5zBtiAdAnilS7ZPyqE59WgtKdxySglHJOZ409dVdE/jUxACjN9lQ0ozk9FTkXYgDQgxtd+vLk2LJfj5SyGJSNrxEpp5RyjuL8iLBwAlCe7cmbWAD0qhy5loqVhleUldMXpTW+duiuyPEJJQAoE0MsAHpyf4va/9o+dtIXlKCsnLwotWYqLomIZ5UAoFSHfEMsAHppX4v0bJ6dvVgJysypi1LbvnbJo5HSVUoAULrDviEWAD0i53z15KbhR5SgzJy4KL2ZmaeujoiHlACgbAyxAOgB39v3/OObZKDsnLYovcnGsr0RebUSAJSRIRYAVVbktPrOa09/XglKf+aSgKo4a/SJiYg4QwkAyigXzWhOT0XOhRgAVGPvinT7bWMnvFEJqsBXhVTnYS3SyohoKgFAGXkTC4BKydEcrNVWCkFlZgISUBW3rD/83hzxYSUAKCtDLACqs2nlj4yPHH+PEFSF0xWVMlgbXBsRTykBQGnvA4ZYAJTfU83i0DUyUCVOVlTKljWv3BmRR5QAoMwMsQAotSKN/ePGn9spBFXiVEXlPLH0iPfmiAeVAKDMDLEAKOX+lNM39xy/7D1KUDVOVFTO3eemmZRjlRIAlP6SYIgFQNn2phQX3n1umlGCyj27ElBVZ40+8bmIeIsSAJRdLprRnJ6KnAsxAOjmjnTz5NhJ7lBUkq8Dqe7DW6+fFxHTSgBQdt7EAqDbcsR0vchvV4LKzgAkoKpuufSwf84pvU8JAKrAEAuAbqrnuG7bxuGvK0FVOUFRaYMzRSNF/EAJAKrAEAuALtlZLKg1ZKDS5ygJqLqzRp44N1L+gBIAVIW/iQVAR/edlP7kttETr1OCKvP1H5X3uubhH4qU7lYCgKrwJhYAHXT/kb90wgdloOqcmqi8RiMVOcfKiMhqAFAVhlgAdOTSnwZWbj4nNZWg8s+yBPSC8bVHfD5SfFIJAKrEEAuANu80n9w+evx2HegFTkv0ztKcY1VEPKcEAJXavwyxAGjH/hJp78DgwGol6BVOSvSMrWuHHk45XasEAJW7ZBhiAdDy235613jjVd8Rgp55pCWglyxs7t0QOf5FCQCqxhALgBbuKt/P9ec36kAvcUKip3ymccxzkfJaJQCo5HXDEAuAFihq6ZLJxqunlKCnzkkS0HNyTmeNPXF7RLxeDAAquZUVzWhOT0XOhRgAHNwlP6cvTYyd8NpIya+001N8vUcPrtgpp6JYGRFO/QBUcyvzJhYAc5Ajilq9WGl4RS9yKqInbV2/9O6U098oAUBVGWIBcPAX/Nonto0M36kEvfl8Q49q1mZWR8QzSgBQVYZYAByEqRQzl8pAr3Iaomdtu+yoxyPyVUoAUGWGWAAc2IYxcOX2sZMfFYJe5SRET1s8O3RNRHxLCQAqfScxxALgpeR4KAbyO4WglzkF0dM2N9J0zvkSJQCoOkMsAPa7R6TiwsnGsr1K0NPPuQT0g7NGd2+NiLOUAKDqctGM5vRU5OzHdgGIiFS7bXL0hDOEoNf5Co/+eNCLuCAiZpUAoPr3FG9iAfAjOZopLThfCPriXi8B/eCW9UNfSyl/SAkAeoEhFgA/3BDqH5oYOfZeIegHTj30z9o+M7g2InYrAUBP7GuGWAD97qlmsWi9DPTN2UcC+slZI7vPTynerQQAvcLfxALo1w0gr5rYMHytEPQLX9nRV2aaR7wvIr6qBAC9wptYAH249kd68JlXnfQXStBPnHToK5ONNJtyvkAJAHrqImOIBdBXco63331umlGCfuKUQ9+5Zd2S8Yj8WSUA6CWGWAB9s+LfNLHhxJt0oN844dCX6nlgZUTepwQAPXWlMcQC6HXTzdS8SAb6kdMNfWnLusXfjkjvVQKAXmOIBdDDa3zO77t9dPk3lKAfOdnQtxYNFu+IiB8oAUDPXXAMsQB6cXXfWSwYeIcO9CunGvrWjRcv3ZNyrFcCgJ685hhiAfTY7b22drKx7Ckh6NuPgAT0s9OaR3w4Iv6vEgD0IkMsgB5ZzyPue2P9+L9Ugj7/HEB/WzG6+/SI+LzPAwC9KhfNaE5PRc6FGACVW8Qj12v1M8dHl02KQT/zdRx9b+vaoS9ExA1KANCrvIkFUOE1PKW/N7wCAyyIiIj6bFwYEc8pAUDPXoAMsQCquHrvHUj1i3UAAyyIiIgtjaFHcsQ1SgDQ09cgQyyAaq3bKb9z6+jx31UCDLDgx6Z+5rkrc8T3lACgpy9DhlgAFVmw47FiYN+VQsAPObnAj9y56rjnaymtUQKAnr8TGWIBlF7OafVk49VTSsCPzi8SwAt3iRWjT9wWKX5DDAB6ftvz64QAJV2g0xcnxk44LVLKYsAP+doNflJKuci18yPCSR6A3t/2vIkFUEZFPRUrDa/ghZxW4N8YX3/4PTniY0oA0A8MsQBKti5H+uvxseG7lIAXclKBF1Gk2Usj4mklAOiLy5IhFkBZTEXMrpUBfppTCryIbZcd9XhKaaMSAPQLQyyAEqzFUR/bPnbyo0rAT3NCgf342ZnDr00R31QCgL65OBliAXRNjvzdhUcdf60S8OKcTmA/NjfSdERerQQA/cQQC6A76mnhqi3npX1KwH7OKBLASzt7dPfNOeJsJQDoJ7loRnN6KnL2w7wA7VebnBg74U06wEt8SiSAl/mQ1GJVRMwoAUA/8SYWQMfM1gYHz5cBXuZuLgG8tC1rhr6eI12vBAD9xhALoCOL7fXbGsfdJwS8NKcROAAL6rX1KWKXEgD0373KEAugjZ7MA4saMsDLcxKBA3DTpYufjMhXKAFAPzLEAmiXemOycYwvyuEAOIXAAfrZ5UPXRcT9SgDQjwyxAFq+sj6QB49/vw5wYJxA4ABtPic1I+eVSgDQt1ctQyyA1ini7ZONNCsEHBinDzgIW9ct2R6R/kEJAPqVIRZAKxbTuHFi44mfEwIOnJMHHKSiXlsVkfcpAUDf3rsMsQDmYzo3mxfLAAfHqQMO0vili7+TIt6jBAD9zBALYI7rZxF/Prnx5AeUgIPjxAFzsHAwj0bE95UAoK8vYYZYAAe3bkbaUSvSqBJw8Jw2YA5uvHjpnkixVgkA+v4yZogFcMCKlNaMX3Xi00rAwXPSgDk6feaIj0bEl5QAoN8ZYgEc0PX7K2cMLPuIDjDH84YEMHdv3rD7tKKIO3yWACAiF81oTk9FzoUYAC9YICNHvf6miZFlt4kBc+NrMpiHm9cM3Zki/k4JAPAmFsB+18eI/214BfMzIAHMT202VjcH8lsj4lA1AOj7S1qtFvUFh3oTC+BfV8bniwX1S3WAed69JYD52dIYeiRSuloJAPjRVc2bWAA/IV892Vj2kA4wP04V0AJ7DnluU0TYlADgRwyxACIi4tHBfc9tkgHmz4kCWuDOVcc9H5EuUQIA/pUhFtDvck4Xbr3m1GeVgBacKySA1lkxuvu2iPwGJQDgJy5wfp0Q6MvFL+6aGDvp9EgpiwHz5+swaKGiaK6MiKYSAPCvvIkF9OPVIKXifMMraB2nCGih8fVH3pMif0QJAHghQyygzxa9j2wfO/lLQkDrDEgArZVnm5dFfeBtEXGYGgDwE/e5VI/64Cv874RAr9szMDOzXgZoLV+BQYttbRy9I1IeVQIAfpo3sYDeVx+5ddMpj+kAreXkAG1w2OySP085vqkEAPw0Qyygh1e47yxZsOw9OkDrOTVAG2xupOlcyxcqAQD7ueIZYgG9KOcLNjfStBDQhrODBNA+K0Z2bolIb1YCAPZz1yua/iYW0BvrWcTE5IbhM5WA9vCVF7RREWlVRMwoAQAvzptYQI+YHagvOl8GaB8nBWij8XVLvpEi3q8EAOyfIRZQeTm9f3zkuPuFgPZxSoA2GxgYuCJF3qUEAOyfIRZQYU/WYtE7ZICzS4GEAAATH0lEQVT2ckKANrvp0sVP5pwuVwIAXpohFlBFuRbrtm08drcS0F5OB9ABh50ydH1Evk8JAHhphlhAxVatry79pZM+oAO0n5MBdMDmc1IzFbFSCQA4gOugIRZQEfWiuGDzOampBLSfUwF0yC2XL53IEf9HCQB4eYZYQOnXqUifGr9y+bgS0BlOBNDRTW7gwojYqwQAHMC+aYgFlFWOfTGTLxICOsdpADpo67rF342Ia5UAgANjiAWUc22qXbv96uFvKwGd4yQAHTbdLDZExGNKAMCBXhQNsYBSrUrf3zczs0EH6CynAOiwycaRU5FijRIAcBDXRUMsoCRyxJo7Np2yRwno8FlAAujGrpfTitHdd0bEr4sBAAexhRbNaE5PRc6FGEDnL9A5fXn7hhN/PVLKakBn+QoLurLzpVyktDIibHwAcDBbqDexgG7JkdNAPt/wCrrDzg9dMr526K6I+IQSAHBwDLGALl2f/3bbyPCdOkCXPoESQPfMprgkIqaUAICDY4gFdHTNiXg2N4tLlIDuseNDF21fu+TRSHGVEgAwhwulIRbQITnHpslNw48oAd1jt4cum57dc01E/q4SAHDwDLGADqw0D+3du/NqHaC77PTQZZONZXsjaquVAIA5Xi0NsYA2KlJefee1pz+vBHR5v5cAyuGskV0TKeIMJQBgbnLRjOb0VORciAG06MZcu31i7MQ3CgHd52sqKMuHMac/i4hZJQBgrvdMb2IBLZRTc2Cwdr4QUJI7swRQDresH/paRPqwEgAwd4ZYQOtuy/mvbm0s+4oQUJKPpARQokN3c2BNRDyhBADMYz81xALm76nZ4hWXyQDlYVeHErmlcdgTEWlUCQCYH0MsYD5ypNF/3PhzO5WA8rCjQ8lMN494b0R8TQkAmB9DLGBOa0dKD+551Yl/rgSUi90cSmaykWajSBcoAQAtuIgaYgEHu24U6cK7z00zSkC52MmhhLZePnRrRPqcEgDQgsuoIRZwoOtFkbZs23jiZ5WA8rGLQ1k3z2bz/IjYpwQAtGBfNcQCXt707EDxdhmgnOzgUFK3NI7854j8fiUAoDUMsYCXXCOKdN3to8u/oQSUk90bSqzerDUi4gdKAECLLqiGWMCLrw47i0X1hg5QXnZuKLEtjaFncmQbKQC08ppqiAX8Gzml9ZONZU8pAeVl14aSe11zyYci4m4lAKB1DLGAH68Hke5beuoJH1ICys2ODSXXaKQi59r5EZHVAIAWXloNsYCISBErN5+TmkpAudmtoQJuXX/EHRHxSSUAoMUXV0Ms6Hef3LbhpAkZoPzs1FCZE3ZaFRHPCQEALd5iDbGgXz/9e+vFgtU6QDXYpaEitq4dejhyvEsJAGjDNdYQC/rwcx/vHL/yVd9RAqrBDg0VsrCY3hgR/6IEALTjMmuIBX3ksWJg35UyQHXYnaFCPtM45rmc4zIlAKA9DLGgPxQpLplsvHpKCajQHi0BVEzO6ezRXbfnSK8XAwDatN0WzWhOT0XOhRjQe740MXbSayMlv/INFeKrJaialHLOsTIinKgBoF3brTexoFcVtXqsNLyC6rEjQwVtXb/07oj4uBIA0D6GWNCLN+D0N9tGhu8UAir48ZUAqqlZa14cEc8oAQDtY4gFPWUq5eYaGaCa7MRQUdsuO+rxiPDLKQDQZoZY0Csf5vrG7WMnPyoEVJNdGCrssObQOyPiW0oAQJvvvYZYUPVP8UOLjmq+UweoLjswVNjmRpquRVyiBAB04PpriAUV/gAXF245b3ifEFDhj7EEUH0rRnbcEpFWKAEA7ZeLZjSnpyJnPwgMFbn23jaxYfgMHaDafH0EPaBer18QEbNKAEAHrsLexILqyKkZ9fr5QkD12XWhB2xZM/T1SPmDSgBAZxhiQWU+rB+cGDnhXiGg+uy40Ct78+zCdRF5txIA0Kl7sSEWlNxTecEh62WA3mC3hR5xS+OwJ3LEiBIA0DmGWFBiRXrHZOOYXUJAb7DTQg+ZaS59X0T+qhIA0DmGWFBKDzyz7KS/kAF6h10WeshkI83morZSCQDoLEMsKJlmXHj3uWlGCOgddljoMbdevmRb5PiMEgDQWYZYUJLPYorPTly1/CYloLfYXaEH1VNxQUTsUwIAOnxxNsSCbpsuinyRDNB77KzQg7asO+rbkeO9SgBA5xliQRfl/BeTG09+QAjoPXZV6FGLFsY7IuL7SgBA5xliQRc+d6m2Iy9c4Fe5oUfZUaFH3Xjx0j05x3olAKBLl2lDLOjwhy7WTjaWPSUE9Ca7KfSw1xVL/ipHfFkJAOjSfdoQCzojx71vGDjxw0JAD++pEkBvWzH6+OmRa5/3eQeALt6ti2Y0p6ci50IMaPkHLHK9ns4cHx2eFAN6l6+CoMdtXXvUFyLiBiUAoHu8iQXt/IClzYZX0PvsoNAH6s3ahRHxrBIA0MU7tiEWtOOTtXewNniJDtD77J7QB7Y0hh6JiGuUAIAuX7UNsaC1n6mUr9k6evx3lYDeZ+eEPrHn0L1X5YjvKQEAXb5wG2JBqzw6sO/5K2WA/mDXhD5x56rjno8UlyoBAN1niAUtsXrrNaf6MxnQL3unBNBfVozsvD0ifkMJAOg+v04Ic/3wpC9ObDjptEgpiwH9wVc+0GeKnM+PCKdkACgBb2LBnD45RQzk8w2voL/YKaHPjK8/8p5I6aNKAEBJruKGWHCQH5r42MTI8i8KAf3FLgn9aHb20oh4WggAKMl93BALDtTUwExzrQzQf+yQ0Ie2No7ekVPaoAQAlIchFhzA5yTqo7duOuUxJaD/2B2hTy2eHXp3yvFNJQCgRJdzQyzYrxzx3YVHF+9WAvqTnRH61OZGmo5aWq0EAJSLIRa8uHqurdpy3vA+JaBP90cJoL+dPbrr5pzz2UoAQLnkohnN6anI2Y8HQ440Mblh+EwloH/5Wgf6XDPHBRExowQAlIs3seDHZusLFq2UAfqb3RD63Pi6Jd+ISB9QAgDKxxALIiLq129rHHefDtDf7IRADA4MXJ4idikBAOVjiEWfezIvOKQhA2AXBOKmSxc/GTldoQQAlJMhFv377Ncun2wc44tWwAAL+KGfPWXouoh0vxIAUNaLvCEWfeeBYuDE62QAIgywgB/ZfE5q1iKfFxFZDQAoJ0Ms+kaOnIran0420qwYQIQBFvATbl63dDIif1wJACgvQyz6Qr328e1XnrRdCOD/s+sBL9CsL1rlD7oDQLkZYtHTz3fEE4MDcZESwE+y4wEvsG3Nz+7OkS9RAgBKfsk3xKJH5ahftLVx0g4lgBfsexIAP31qyGnF2K5tkeNNYgBAybftohnN6anIuRCDXrihfn5idPgNkZK/ywq8gK9rgBc5OKRcy/HHEbFPDAAo+bbtTSx6RU77opb+yPAKeDF2OeBF3bxu6YM5YkwJACg/Qyx640HOYxMjw18TAngxdjhgv17XXDKWIyaVAIAK3P0Nsaj2E3zHktcMb9AB2O8qIQHwUt7S2H1ss17cGxFHqAEA5edvYlFBT+Vi8Jcnr1z2kBTA/vh6BnhJWxpDj6RU/KESAFAN3sSigv7U8Ap4OXY14GXdsvaoT+ZIH1ECAKrBEIvqPKzpwxMblv+tEMDLsaMBB3a2WDT7PyPiQSUAoCJ7tyEW5X9Kvz0907xAB+BA2M2AA7L1oqOfrdWKcyJiSg0AqAZDLEpsT72+6Lfv2HTKHimAA2EnAw7YzZcddV9E+v2I8FdhAaAiDLEo4VNZpJT/YHzkuPu1AA6UXQw4KFvXLfl0jmgoAQDVYYhFuR7I+rrtYyd/SgjgoJYOCYCDlnM6e3TXJ3LE74oBABXawotmNKenImcvU9O1C+jfbd+w3BkSOGi+ggHmcPJI+ZlD9/73HPFlMQCgQlu4N7Ho7hP4lYHp5/+HDsCcVhAJgLlaMbr7uMjFFyLiWDUAoDq8iUXHn7mIh2spn7Z97ORH1QDmwlcvwJxtXTv0cI58ZkQ8rgYAVIc3sejwE7cz1dNbDK+A+bBjAfNy67ojv5VycXZEPKkGAFSHIRYdec4inol6esvEyPDX1ADmw24FzNst64+6t5ZrvxURU2oAQHUYYtHmJ+z5XE9vnRg56W4tgPmyUwEtcfP6oTtTpN+OiH1qAEB1GGLRJtPRzG+bGBm+TQqgFexSQMvcsm7JeC3Sf4qIGTUAoDoMsWix6cjxuxNXLb9JCqBle5UEQKudPbbzt3IRmyPiEDUAoDr8OiEtuGI+X8v5nG0bl39WC6Clq4sEQDusGN3xhshxY0QcpgYAVIchFvO4XD4dKb11+9jy29UA2rDGALTH2WM7fyUX+eaIWKoGAFSHIRYHfbFMtR0xGG/Z3hj+JzWAtqwzEgDttGLDrlOiWWyNiOPUAIDqMMTigJ+VSA9HzismN578gBpAu/grjUBbbV2z5IGBNPsbEfFVNQCgOvxhdw7oOclxf5FqrzO8AtrNbgS03efWHvO96WacFjk+pQYAVIchFi/5fETt08XC2dNvHzvpYTWA9q85AJ2Sczp7dOfqHLEhDNABoDpbuP+dkBc8EClH5GvfuHD5RY1G8lAAHWGABXTcWaM73pZyfCQiDlUDAKrBEIsfXSCfzZH/28SGU25QA+jw+gPQeWeN7XhNFOnTKfKr1ACAajDE6nsPRX3wP06MnHCvFECn+V94gK649bIjv5IH66dG5L9VAwCqwd/E6uN/+0ifWrDgZ37V8Aro3joE0GVnv+Px/5xTel9EvEINACg/b2L1lT2RapdMjA2/XwqgmwywgFJ4c+P7xxf1+ici4nQ1AKD8DLH64R853R3N4vcmNp3yoBhAtxlgAaXxq9fnwaEdO6+IiNURUVcEAMrNEKtnzaZauqoYGG5MNtKsHEAZGGABpfOb79jxy7WUPxCRfk0NACg3Q6yeuyDeV0u1c8fHhu9SAygTf30RKJ3x9Ufec3rzyNMip3MjYo8iAFBe/rB7j/w7RnouRX3t0GuW/4rhFVDOdQqgxM5q7Dwm6nFlivz7agBAeXkTq8r/eHFzqg3+0faxE74nBlBWBlhAJZw1svOtKfK7IuJENQCgnAyxKncd/HY9pbePjw3/gxZA6VcsCYCq+NXr8+DQ47v+a6TciIifUwQAyscQqxLXwF0pau9eeHS+Zst5w/v0ACqxckkAVM2Kq39waNpb+7MccWlEHKYIAJSLIVZpL3/P5hzXL1pYu2JLY/gZRYCKrWEA1XRG47ElC2oDl0WKP46IhYoAQHkYYpXq2rc3FXF9Sj8zsm3jsbv1ACq5kkkAVN2Kxg+OjHr6k4j0ZxExpAgAlIMhVrcve2l3zvljuVm7dnLT8COKANVe0wB6xIqrf3BoPF//vUh5VUScrAgAdJ8hVlc8lHN634KZ56/bes2pz8oB9AIDLKDnvO2GXH/mgZ2/k1NcEBGvVQQAussQq2PXu7tyyu8+Y3D55kYjiQ301gonAdDLVmzYdUpuFv8lRfxBRBytCAB0hyFW2650j0ekT9br8ZfjI8P36AH07GonAdAP3nZDrj/z4I43RaQ/zJH/Q0RaoAoAdJYhVqtCpn0ReaKopb+e+oXhv7/73DQjCtDrDLCAvnNG47Elg/XB30mR3xoRZ0bEIlUAoDMMseZ8ddsbOU+meu3G1DzkBr8mCPTdKigB0M9Oe9fDh7zyuUW/GVH8+8jpreF/MwSAtjPEOtDLWnoi57ilmZqfPXTBwGe3NIafUQXo3zURgIj44f9m+OQ3d55Wj3Rmjvz6yPHaiHilMgDQeoZYL2oqIr4Ykb6QUowPnTp8x+ZzUlMWAAMsgP162w25/vQDu16TU359inh9RJweEccoAwCtYYgV349Id+bIX4iUb1t66sn3GFgBvDgDLICD8Fsbnzp8ZmbmhBTFq4uUfjFFvDpS/GLkOEEdADh4fTLEeioiPRApvp6L+EY9F1+tFXHfrZtOecwTAHBgDLAAWuCMxmNLBgcHjq1F+vlc5KNTSj+fcxydovj5HLWjIufDohYLIscrImIw4sf/BYC+V6khVo6ZSPFsRG0mong2RUxHTk9HLe8scjxWS+kHOWoP1yM/HrX4l32z8cg/bhze6V8ZYH4MsAC66IzGjlccunCBQRYARMTsvj2lvZ9MPffszB2bTtnjXwkAAAAAAAAAAAAAAAAAAAAAAAAAAAAAAAAAAAAAAAAAAAAAAAAAAAAAAAAAAAAAAAAAAAAAAAAAAAAAAAAAAAAAAAAAAAAAAAAAAAAAAAAAAAAAAAAAAAAAAAAAAAAAAAAAAAAAAAAAAAAAAAAAAAAAAAAAAAAAAAAAAAAAAAAAAAAAAAAAAAAAAAAAAAAAAAAAAAAAAAAAAAAAAAAAAAAAAAAAAAAAAAAAAAAAAAAAAAAAAAAAAAAAAAAAAAAAAAAAAAAAAAAAAAAAAAAAAAAAAAAAAAAAAAAAAAAAAAAAAAAAAAAAAAAAAAAAAAAAAAAAAAAAAAAAAAAAAAAAAAAAAAAAAAAAAAAAAAAAAAAAAAAAAAAAAAAAAAAAAAAAAAAAAAAAAAAAAAAAAAAAAAAi4v8B3F7LTU2661cAAAAldEVYdGRhdGU6Y3JlYXRlADIwMTktMDEtMjBUMTk6MDM6NTArMDA6MDBugVNpAAAAJXRFWHRkYXRlOm1vZGlmeQAyMDE5LTAxLTIwVDE5OjAzOjUwKzAwOjAwH9zr1QAAAABJRU5ErkJggg==;fontColor=#000000;" vertex="1" parent="1">
                    <mxGeometry x="398" y="294.25" width="60.5" height="60.5" as="geometry"/>
                </mxCell>
                <mxCell id="40" value="BigQuery" style="shape=image;imageAspect=0;aspect=fixed;verticalLabelPosition=bottom;verticalAlign=top;fontColor=#000000;image=data:image/png,iVBORw0KGgoAAAANSUhEUgAABAEAAAORCAYAAACDQrvVAACAAElEQVR42uzdB5xlZX0//gUsUaNGzS/GmGpJfonJL4X8/P+IJpmde2fWBVERV2OPKJZINLaoRLgLO/femV1YYCmygIB0l6ooXSx0kSYgvbi9l5nbyzz/c2fFZSnLlin3nPP+vF7vV/JC2J0595zneb7fe85zpk0TERERERERERERmazkcmH3Gfnwmt58+IdMofX2bKF1YG+xncsMtocyxfbCjmxxdFFHpjB6VaY4ejUATLloTvrN/PTr+aozd3XmsN5i6xNjc1ox/H1njuvMdWZ8ERERSVV6cuG3M8Xwf3sLrY9FC6W50aLpB9H/fSzSjAQASLBmZrD96NjcN9YoaP17Z07szI1WCCIiIpKI9M0Nb+wU/NnB9qnR4ueByKhFIABspTM33h/5Vqcx0FMMb7CCEBERkXgU/UPhDzKD7U9liqMXRIuZFRZ2ALBTVmQGR8/PFFuf7DxKYIUhIiIiXZPpg+FNvcX2V3uLret90w8AE+LebLE9e3ox7DkthN2sPkRERGRS07nNP1qMDESLksctzABgEg22H43+7+G9c8PrrUhERERkwrLX/PCi3mJr1uYdkX3jDwBTr/XzziMDNhcUERGRcUt2KPxltNA4OTJisQUAXWm483rC6UPhL6xcREREZOeK/8Hw1l+/97hlcQUAcXnTwOjVvYOtfa1kRERE5DmTy4Xds4Ot92YKrVstpAAgvrLF1s3RfP6eztxuhSMiIiJPS6bYzEaLhtstnAAgUe7p7OljpSMiIiJj6R0Kb84Mjl5rkQQAid5E8IZMIfyzlY+IiEhai/+54fWZ4uhFdvoHgFTtGXBBphheZyUkIiKSkuy5MDw/M9j+fLQQKFkMAUAqVbLF9uyZC8ILrYxEREQSnM5tgJ1nAy1+AIDIg335ZsYKSUREJGGZMT+8MproT3frPwDwtEcEBtun9OTC71gxiYiIJOHb/3xzejTBL7HIAQC2YXFfIfyrlZOIiEhM05MLz+s87xdN6m0LGwBg+zYObB8zKxdeYCUlIiISo/TPCX+WKbZutJgBAHbidYI/65sb3mhFJSIiEoP0Fluz7PwPAOyi4WhNsZ+VlYiISLcmhN16i+2vuv0fABjHxwMGc7mwu4WWiIhIF6UnF347Uxy9yGIFABh/o5fOzIWXWXGJiIh0QTLF8LreYvtuCxQAYALd1dlzyMpLRERkCtOfD38dTcrLLEwAgEmwcvpg+FsrMBERkSlI71DjzZlCa12m2AoAAJNisLWhd7D5T1ZiIiIik9kAKDZ7o4l4xGIEAJgCpexgc4YVmYiIyCQkU2i9K5p8axYgAMAUqndeS2xlJiIiMpENgGLrfZGWhQcA0AVa2WJrfys0ERGRCUhvsdnvDgAAoNvuCJheaO1tpSYiIjKeDYDB5j91nr+z0AAAulAlWqv8ixWbiIjIOKQv3/i7zk68FhgAQBfbNL3Y2NPKTUREZBcyfSj8RTSprrWwAAC6XW+xtbqnGN5gBSciIrITmZkLL8sUm/daVAAA8dG8vycXfsdKTkREZAcya1HYI1ts/cBCAgCInULris5axopORERkO5MpNo+2iAAA4io72JxnRSciIrI9DYBC66MWDwBAAvYI+ISVnYiIyDaSLTb+Ppo0axYOAEACVDP5+v+xwhMREXmG9M8LL+ktNu+zYAAAErRR4L37zg4vttITERF5SqKJ8mQLBQAgcY8FFFonWOmJiIg8Kb3F1n4WCQBAcjcKbL3Tik9ERKTTABgIr40mx7UWCABAYpsAxdb6/oHwR1Z+IiKS+kQT4+UWBwBAClxq5SciImlvALzPggAASNEdAftbAYqISCozMxdeFk2GSy0IAIAUWZ4dDC+3EhQRkfTdBVBoHWchAACk8LWBx1gJiohIqtI31PjHaBJsWQQAACnUzg41/p8VoYiIpCK5XNg9mvx+bgEAAKRWoXVrZ01kZSgiIolPb7H1CZM/AGCTwNYBVoYiIpLovGUovLSzIY6JHwCgtcomgSIikuhkB5vzTPgAAL822ByyQhQRkUSmd254fTTZ1Uz4AAC/Uc8Uwp9bKYqISOISTXKXmugBAJ62N8B3rRRFRCRR6cs3MyZ5AIBnaQQMNmdYMYqISCLSkwvP6y227zbBAwA8m+Yv91wYnm/lKCIisU9msP15EzsAwHPdDdD+TytHERGJdWbMD6+MJrW1JnYAgOfcG2B9zxHhd60gRUQktukttE4wqQMAbKdC6zgrSBERiWUyhfBX0WTWNKEDAGy3Vnaw/jdWkiIiErtki60rTeQAADvsh1aSIiISrwZAofVuEzgAwE4/FvAuK0oREYlFZuXCCzLF5oMmcACAnfZITy78lpWliIh0fTKD7YNN3AAAu/i2gMH216wsRUSkuxsA+fDqaNLaZOIGANhlIzPy4TVWmCIi0r1NgGLrdBM2AMB43Q3QOtUKU0REujLTi409o8mqbcIGABg37d6hxputNEVEpLsSwm7RJHWdiRoAYNzd2FlrWXCKiEjXpLfQ+rAJGgBgwnzQilNERLoi+84OL44mpl+ZnAEAJszS/nnhJVaeIiLSBXcBNOeYmAEAJliheZiVp4iITGn6B8IfRZNS2cQMADDhKj3F8KdWoCIiMmXJDLbONyEDAEyO3kLrO1agIiIyJckONt8aTUajJmQAgMnTV2j+q5WoiIhManK5sHum2Px5JAAAMIkGm3fMWhT2sCIVEZFJS2aw8SmTMADA1MgWGgdakYqIyKRkZi68LJp8VpiAAQCmzKqeXPgdK1MREZnw9Bab8028AABT7ggrUxERmdD0FGtviCacukkXAGDKNaYP1f7CClVERCYs0WRzmQkXAKBrfN8KVUREJqYBMNTsM9ECAHSX3sHWTCtVEREZ1+y5MDw/mmTuN9ECAHRZE6DYvK+zVrNiFRGR8bsLoND8okkWAKBLGwGFxn9ZsYqIyLhkZiH8r8xgc4MJFgCgS0Vrtc6azcpVRER2/S6AYmuhyRUAoLtli61vWrmKiMguZfpg42+jSaVlYgUA6HqtztrNClZERHbhLoDmj0yoAACxeSzgWitYERHZqfQWW7NMpgAAsXssYH8rWRER2aH05MJvZYqtx0ykAABxuxug9WhnLWdFKyIi253sYPMbJlEAgNg+FnCwFa2IiGxXegfCa6PJY8QECgAQW+X+gfBHVrYiIvKcyRQbZ5o4AQDirvFtK1sREdlmskON/xdNGqMmTQCA2BvNDjbfaoUrIiLPnBB2yxSat5gwAQAS4+e5XNjdQldERJ6WTKH1URMlAECy9BZaH7bSFRGRrdKTC78dTRLLTJQAAImzYmYuvMyKV0REttwFUGwWTJAAAMmULTYHrHhFROTXDYDq66LJoWqCBABIrFpPsfYGK18REencBXCRiREAIPEusPIVEUl7AyDfnG5CBABIiaFmnxWwiEhKM2tR2COaDO4yIQIApMY9PbnwPCthEZE03gVQbPyHiRAAIF16i41PWwmLiKQsby2GV0STwBoTIQBAyhSa6zKF8CorYhGRVN0F0DzGJAgAkE7ZweZRVsQiIilJdqj+l9Hg3zABAgCkVnP6YP1NVsYiIum4C+ByEx8AQOpdbWUsIpLw9A629jXhAQCw+bGA1j5WyCIiCc2sXHhBNNg/YMIDAGCsCVBsPTRzQXihlbKISAKTLTa/YrIDAOApvmSlLCKSsPTPC78XDfAbTXIAADzFcM/c8PtWzCIiCUqm2DrZBAcAwDNrLbRiFhFJSLLFxt9Hg3vL5AYAwLNo9w01/tHKWUQkEXcBNH9iYgMAYFt6i83rp4Wwm9WziEicGwCDrX8zqQEAsF1vCxhsvdcKWkQkptlrfnhRpth43IQGAMD2aSzed3Z4sZW0iEgM01ts5kxkAADsoEOspEVEYpaeofCHmUKzFAkAALADKtnB8MdW1CIiMUq20DjHBAYAwM5pnGVFLSISk0QD916RUZMXAAA7qbOW/GcraxGRLk8uF3aPBuyfmbgAANhFt3XWllbYIiJdnGy+cYAJCwCA8dCbb/y7FbaISJfmLUPhpdFgvdyEBQDAOFk5MxdeZqUtItKFyRTqQ5lCIwAAwHjpLdSLVtoiIl2W3jm110eDdM1EBQDAOKv3zam90YpbRKSLki00v2uCAgBgYjQvtuIWEemWuwCKzV4TEwAAE/pYQLHZb+UtIjLFmbUo7BENyr8wMQEAMMHu7cmF51mBi4hMYbL5xn+akAAAmBT5xmetwEVEpihvLYZXRIPxWhMSAACTIVtorM8UwqusxEVEpiDRQHycyQgAgEndG6DQWGAlLiIy6Q2A+l9Fg3DDRAQAwCRrZgfrf2NFLiIyuU2AK0xAAABM0d0A11iRi4hMXgPgXSYfAACm0vRC7R1W5iIiE5xZufCCTLHxoIkHAIAp9vDMBeGFVugiIhOY3mLzqyYcAAC64m0B+eZXrNBFRCYomXx4dTTYbjThAADQJYZn5MNrrNRFRCYg2ULjVBMNAABd5hQrdRGRcU5vvvEP0QDbNskAANBl2pli4/9asYuIjFdC2C0aXH9qggEAoEvd2FmzWriLiIzHYwD5+gdMLAAAdLV8/d+s3EVEdjF7zQ8vigbVx00sAAB0t+aS/nnhJVbwIiK7kEyhfpgJBQCAOMjm67Ot4EVEdjL9A5U/igbTsgkFAICYqPQOVP/ESl5EZCfSW2h8x0QCAEDMnGslLyKyow2AgeY/RQPoqEkEAIC46R1s/osVvYjIdiaXC7tHg+etJhAAAGLq9s6a1speRGQ7ki00DjRxAAAQcx+3shcReY68ZSi8NFOorzBpAAAQc6uyg+HlVvgiIttIptg4woQBAEAiFOtzrfBFRJ4lvXNqr48Gy5oJAwCAhKhnCrU/t9IXEXmmuwAK9UtNFAAAJEm20Pyulb6IyNMeA2hmTRIAACTzsYDm26z4RUR+nZ5ceF5voXG3CQIAgETKN36558LwfCt/EZEovYXGf5kcAABIuM9Z+YtI6jMjF16ZLTTWZseelwIAgMRa33NE+F0VgIikOtFgeIIJAQCANMgUGsepAEQktZk+WH9TNBg2TQgAAKREK5Ov/x+VgIikMn2FxlUmAgAAUnY3wA9VAiKSvscAivX9TQIAAKRRX7G+n4pARFKTWbnwgmjwe8gEAABASj3Skwu/pTIQkZQ8BtA82MAPAEC6Nb+mMhCRxCeTD6+OBr1NBn0AAFJupG+o/AcqBBFJdLLFxrcN+AAA0AiZYuM0FYKIJDb9xcae0WDXNuADAMCY0d6BxptVCiKSvISwWzTIXW+gBwCAJyk2buqslRUMIpKo9BUaHzbIAwDAMz0WUP+gikFEEpN9Z4cXR4PbrwzwAADwTJpL++eFl6gcRCQRyebrAwZ2AAB4dn35+uEqBxGJfwNgsPLH0aBWNrADAMA2Vd9WrP6pCkJEYn4XQPMCAzoAAGzXYwGLVBAiEuO7AJpvzRbqo5EAAAA8t75C819VEiISu8xaFPbIFOp3GsgBAGCH3NFZS6soRCRW6Ss2Pm0ABwCAHZcpNj6pohCR2KQnF34nW6itNoADAMDOqK3urKlVFiISi2QLjaMM3AAAsCt7AzSOVFmISNenv1D/39Gg1TBwAwDALmlMn1P7CxWGiHR1+or1ywzYAAAwDor176swRKR7HwPI1/YxWAMAwPjpzddmqjREpOuy58Lw/Gyxfr+BGgAAxtV9nbW2ikNEuusxgHztSwZoAACYAPnaF1QcItI1mVkI/ysanDYYoAEAYEJs6Ky5VR4i0hXJ5msLDcwAADChdwN8U+UhIl3wGEDj76JBqWVgBgCACdXuLzb2VIGIyNTeBVCo/diADAAAk3I3wHXTQthNFSIiU/QYQP29BmMAAJg8mUL9PSoREZn09OTCb0UD0GMGYgAAmFSL950dXqwiEZFJTaZYP8QADAAAU6BY/x8ViYhMWnoHKq+NBp+SARgAAKZEOTtY+WOViYhMSqJB5ywDLwAATKkzVCYiMvGPARSae0UDzqhBFwAAptRodrD5VhWKiExcQtitr1C/xYALAABTL1Oo/zyXC7srVERkQtKXb/y7wRYAALpIvvERlYqIjHt6cuG3o0FmmYEWAAC6SWPlzFx4mYpFRMY10QBTNMACAEBXPhaQV7GIyLglU6y+LhpcqgZYAADoSvW+ObU3qlxEZLzuArjYwAoAAF3tQpWLiOxy+ovVXgMqAADE4LGAfK1PBSMiO51Zi8Ie0WBylwEVAAC6X1+hfk9PLjxPJSMiO5W+fO2zBlMAAIiTxmdUMiKyw9mnGF6RzdfWGEQBACBW1mUK4VUqGhHZoWQLjQUGUAAAiOHeAMXG0SoaEdn+BsBQ/S+jwaNhAAUAgFhq9ufrf62yEZHtvAugfrmBEwAAYr03wNUqGxF5zvQVau8wYAIAQAIeCyjU3q7CEZFnzaxceEE0WDxgwAQAgER4eOaC8EKVjog882MA+dpXDJQAAJAcffnal1Q6IvK09M8b+b1okNhooAQAgEQZ7plb+n0Vj4hslb5C7RQDJAAAJFHtJBWPiGx5DKDY+PtocGgbHAEAIJHafQONf1T5iMhYMvnaTwyMAACQ4L0BivUbpoWwm+pHJPUNgPq/GRQBACAF8vX3qoBEUpy95ocXRYPB4wZEAABIhcX7zg4vVgmJpDTZfH22gRAAAFL0WEChfqhKSCSF6Rmq/GE0CJQMhAAAkCqV3oHqn6iIRFKWvkL9XAMgAACk0tkqIpEUJVNo7hVd+KMGPwAASKXRqCb4Z5WRSAqSy4Xdo4v+ZwY+AABItds6tYEKSSTxdwE0Pm7AAwAAsoXGx1RIIgnOW4bCS7OF2vJIAAAAUm9ldjC8XKUkktBki7W5BjoAAOAJmXx1UKUkksD0zqm9PrrIawY6AADgSep9c2pvVDGJJO0ugELtuwY4AADgGVysYhJJUPry1YyBDQAAeFb52gyVk0gC0pMLz4su6l8Y2AAAgG24d8+F4fkqKJGYJ1Oofc6ABgAAPKdi7SAVlEiMs08xvCJbqK81oAEAAM+tuj5TGH6VSkokvncBHGcgAwAAdsAClZRILBsA9b+KLuCmQQwAANgBrexg/W9UVCIxS3TxXmkAAwAAdlSmUPuhikokRukr1vczeAEAADttsP5OlZVIDDIrF16QLdYeNHABAAC74JGZC8ILVVgiXf8YQP1rBiwAAGDXHwuo/7cKS6SLk8mXXh1drJsMWAAAwDgYnpEvv0alJdKtTYBi/TQDFQAAMG6K9W+ptES6ML35xj9EF2nbQAUAAIyjdu9A480qLpFuSgi7ZfO16wxQAADA+Kvf2Kk5FF4i3fMYwAcNTAAAwETpK9bfr/IS6YLsNT+8KLoof2VgAgAAJqwJUKgt6Z8XXqICE5ni9OWrhxuUAACACZevzlaBiUxh+gcqfxRdjGUDEgAAMAkqbytW/1QlJjJFiS7CRQYiAABg8lTPU4mJTMVjAIXKW6KLcNQgBAAATKb+weq/qMhEJjG5XNg9W6jeagACAACmwO2zFoU9VGYik5RMsfpJAw8AADBV+orVT6jMRCYhM3PhZdFFt8LAAwAATKFV2cHwchWayITvBVA70oADAAB0gXkqNJEJzIxi7Q3RhVYz2AAAAF2gninU/lylJjJByRZr3zfQAAAA3SJTrH1PpSYyAckUq1mDDAAA0IWNgLep2ETGMT258Ly+Qu0eAwwAANB18rVf7rkwPF/lJjJejwEUav9lcAEAALr2boBC7XMqN5FxyIxceGW2UF9rYAEAALpXdX3PEcO/q4IT2dW7APK1bxpQAACAGDwWcLwKTmQXMn2w/qboYmoaUAAAgBhoZfL1/6OSE9nJ9BVqVxlIAACAGLlWJSeyM48BFOv7G0AAAIC46SvW91PRiexAZi4IL4wunocMIAAAQAw90pMLv6WyE9n+uwD+x8ABAADEVaZY/7rKTmQ70jO39PvRRbPJwAEAAMTYSN9Q+Q9UeCLPdRdAoX6GAQMAAIj93gCF+ukqPJFtpL/Y2DO6WNoGDAAAIAFGewcab1bpiTxTQtgtW6jfbKAAAAASo1i/qVPrKPhEnvoYQL76EYMEAACQuMcC8tUPqfhEnrwZYC78dnRxLDNAAAAACbS0U/Oo/ER+nUyhmjcwAAAAyVWdo/IT6WwGOKf6Z9FFUTUoAAAACVZ9W7H6pypAsRdAvnZBtlANAAAAyVZbpAKUdD8GkK9ONxAAAACpUaz2qAQllZm1KOyRKVTuNBAAAABp0amBOrWQilDS9xhAofYZgwAAAJC+RkDtUypCSVV6cht+J5uvrjEAAAAAKbS6UxOpDCVNdwEc5cIHAADSqq9QO1JlKKlIf6H+v6OTvuHCB2A8zByqhvctqIUDT66FL59dD4df1Bhz1GWbHXtlI5x8bXPMmdc3w3k3ba3zz5743zv/7hP/XefPOOzCRvjSWfWxP7vzd3T+LsccgHHSnD5Yf5MKURKfvmL1Mhc8AM9ln7nV8PGTauHg79TDgqg4X3RzM1xzTyv87JF2eGB5O6zcOBoq9TDp6fydnb+78zN0fpbOz/Sdm5phwRWNsZ+18zN3fnafIQDPfTdA9SoVoiQ6mULt7S52AJ7w9nnVcNDp9TD/skY498Zm+NEvW+G+Ze2wvjQa4p510e/wy6XtcO29rbHf7cgfNMJnT6uHfeb53AHY6rGAvVWKksjsuTA8P1us3u9CB0inzu303zi/Pnbb/dV3t8Lja0ZDO/61/s41CEZGw00PtcceRxi6tBE+cVIt9BWdIwAp9dCsXHiBilGS9xhAvvIlFzhAOsw6phZyFzTC+Tc3wz1L2lNy237c0jlGnWPVeeyhc+zec3TNuQSQFvnKF1SMkqzNAOeN/F62UNvgAgdIpg+fUBv7Rvv7d2z+hn9UTT9udwz85L5WOP7qRvjMqXV3CwAk16aeuaXfVzlKYhKd1Ce5sAGSVfR3NsK76cF2GKkq+Scrw5XRcEN0zI++vBE+eLw7BQAStkngiSpHSchjAKW/i07qlgsbIL72nlsN/31OfewZ9gdXtFXjXZLlG0bH7r7o7LWwtzcSAMRdu79Y3lMFKUm4C+DHLmiA+Ol803zslY1wy8PtUGsouLs9nc+os9lg53WK7hIAiK3rp4WwmypS4tsAyFfe60IGiI/3H1sbe/68s0Gdm/zjnc7eDGdc1xx7dMO5DRAfmULlPSpJiWX2mh9elClUH3MhA3S3/Y+qhaMuU/gnOZ1HODrNnc5rGp3zAF1v8b6zw4tVlBK/vQAK1UNdwADdab+o8O/cNv6LxVHhr/JPTTqf9Z2/aodjrmiEd83XEADoYt9QUUqs0jtQeW104pZcvADdpfOauc5Gcp7xl0YrjL1+sLPhY59rA6DblLODlT9WWUqcNgM824UL0B063/h2bvd/bLWv/OWZs3TdaDj52mZ4z9HuDgDomr0BitUzVZYSi2QKlb2ik3bUhQswdfqKm1/p1/mmt9lS5Mr2pXOudN4wcPhFjdBfdB0BTLHR7GDlrSpM6erkcmH3vkL1FhcswNSYOVQNQ5c2wuK1vvWXXcvyDaNjmwnuM891BTBldwMUqj/v1FgqTenmxwA+5mIFmHyd27g7r4PbWFH8y/imc06dd1PTmwUApq4R8FGVpnRl3jIUXhqdpMtdqACT5yPfrIWLbm2FWlOxKhP/qMDVd7fCx0/SDACYZCtn5sLLVJzSfXsB5KuDLlCAyfHFs+rh5ofawff+MhWvGbzpwXb4wpl11yLAZO31k68WVJzSXQ2AYvV10clZdYECTKz//HZ9bOM2kW7IPUvaYw0p1ybAhKv3zam9UeUpXbQXQO1iFybAxPnkKbWxnf5FujG3PdYO/3GaZgDAxKpdqPKUrkh/sdrrggSYGJ84aXPx77Z/iUsz4NPf0gwAmLDHAoq1fhWoTGlmLQp7ZAuVX7ggAcbXAQtr4ce/bI09fy0Stz0Drr23FT620AaCABPg3p5ceJ5KVKYsffnaZ12IAOPnXfNrY69ja7rzX2KeVjuE79/RCvsfrRkAMM6PBXxGJSpTkn2KG1+RzVfXuAgBdt2MwWo46rJG2Fj21b8kK8OV0XD81Y2xc9y1DjAu1mUKw69SkcoUbAZYWeACBNh1XzmnHh5drfiXZGfx2tFw8HfsFwAwHjLFytEqUpncBsBQ/S+jk6/hAgTYeR890Y7/ks7NAz9+kkcEAHZRsz9f/2uVqUziXQDVK1x4ADtnn7nVzc/9txWEks509rw454Zm2Huu8QBgF1yjMpXJ2QywUHuHCw5g53zhzPrYbdEiEsKy9aNjj8MYGwB28rGAQu3tKlSZ0MzKhRdEJ9sDLjiAHfPOI6vholu98k/kqelcElff3Qr7HeURAYCd8PDMBeGFKlWZsGQKlf92oQHsmG+cXw+rh1X/ItvKutJoOPyihjEDYIdVvqxSlQlJ/7yR34tOsI0uMoDt895jbPwnsqO56aF2eP+x7goA2AHDM/Ll16hYZfw3AyxWv+UCA9g++UsaYaTq23+RnUnn2hm42F0BANu9N0C+erKKVca5AVD+++jkarvAALbtHUdWw/fv8O2/yHikcyfNu+YbVwC2Q7tvoPyPKlcZv70A8tWfuLAAtu2g0+tju52LyPhl5cbR8F9neIMAwHPpK1ZvmBbCbqpX2eX0FSvvd1EBPLsZg9Vw8rXN0Gwr2EQmIq3o2jrvpmZ426DxBmCbjwUUK+9TwcouZa/54UXRyfS4CwrgmX3w+Fq4e4nqX2Qyct+ydvjIN20aCPCsdwMUqkv654WXqGRl5/cCyFdnu5gAnlln47JyXWEmMpkp14JXCQJsS7GaU8nKTqVnqPKH0UlUciEBPP32/86tyZ7+F5m6dDbg9HgAwDOq9A5U/0RFKzu+F0Cheq4LCGBr+x9VC7c/5vZ/kW7ILxa3w3uP8XgAwDM4W0UrO5Tegco/RSfOqIsHYIvPnFof26lcRLona4ZHw39+29sDAJ5iNFOo/rPKVrYruVzYPTppfubCAdjiqMsaodlScIl0YxrRtXn81fYJANha7fZObafCle14JWD5E9lCJQBQCXvPrYQr7lL9i8Qhl93ZCjOHjFsAv5GvHqDClW3mLUPhpdHJstwFA1AJ+x1VHXvmWETik3uXtsP+R1eNYQCbrcoOrn+5Slee/ZWAxcpcFwpAJXz4hGpYvNbz/yJxzLL1o+HfT9QIAOjI5CuDKl155s0A59ReH50kNRcKkHafP6MWNlY0AOKQkWo7LF7TDHf/qh5uuL8aLru9HM67fiQsvGpTmHfJhpA7b/2Yg89eF754+toxnzlpTTjwm6vHdP7/J/5559954t/v/LedP6PzZ10e/ZmdP7vzd3T+rs7fKd2fjeXR8Llv14xpAIVKPVOo/bmKV56WTLHyPRcIkHZzLq6HelMB1T0bvo2GR1Y2wvX3VcP5N5bCsZdtHCvWDzhuddh7YHn410OWTYm98yvCAcevHvtZOj9T52fr/IyPrmqGZksDqVtSi67lwy6sG9sA8pVLVLyy9WaA+WrGxQGkXWd38VH125RluNIe+7b9gptKoXDhhrFv6vsOm7pCf2f15paFjx67auyOgtOuHQ433l8Ny9a3nFtTlM5hP+O6pjEOIF+aofKVsfTkwvOyherdLgwgrfqLlXDp7b7+n9Rv+JujYwX/udeNjH2b/s7BFbEr9nfUu6LfsfO7dh4x6PzunWMgk5fv3tYMfUXjHZDmJkD5l3suDM9XAcu0TKHyORcFkFZvG6yEH/3SKwAnOtXGaLjpgWr45pWbwmdPXhOyMfyGf7x17nI46JQ14cTomNz8YC3UGpoCE50f3tMKMwaNe0CKFSsHqYBTnhm5Ta+MToa1LggglQ2AoUq4/gENgIlK5xb4791aDl8/a10sb+ufiqZAZ4PCs386Eh5Y1nACTVBueqgV9p5r/ANSa33PEcO/qxJO8ysB85XjXQhAGr19XiXc9phd3sczrehw3vpwLcy/dGP4t/krFfa76P3RMTwqOpa3PVILbafquObWR1phn3nGQSC1jlUJp/YxgPpfRSdA00UApM2+R1TCHY+rqsYj7dEw9nx7Z4f8/YZWKN4nyL6FFWObJXY2GWw5dcclv1jcDu840ngIpFIrO1j6GxVxGu8CKJSvdAEAafPuo6rhgeWqqF1Np/A/+vsK/6nw7rkrwzE/2Dj2Gciu5b5l7bBfNCYYG4G0yRQqP1QRp+2VgMXKfk5+IG1mHVMNj67WANjZbCy3w3duGAkfWbBKMd4lPhp9FuffWAqbys7rnc0jq9rhPUdrBAApNFh+p8o4JZmVCy/IFisPOvGBNHnX/Gp4aKVCaWfS2aTuiO9uCP2H29yvW3XetpA7b334+cO1MOolAzucTnPw3e4IANLnkZkLwgtVyGnYC6BY/boTHkiTznO/HgHYsVTqo2PfML//KN/6x80Hos/swptKY5+h7MijAS17BACp01esfFWFnPQGQL706myhvMkJD6RFZwfwzgZgsn1ZP9IOp107PLYRnYI63vYeWD62YePqTV6Dub25Z3Fz7M0hxk4gRYZn5MuvUSkneS+AQvl0JzqQFm8bqoRbHlYAbU8eXrn5lv/Ou+oV0Al7VGD28rE3CzwSfcby3LntkUbYe67xE0iT8qkq5YSmN1/+h+hDbjvJgVQ0AAYr4cYHNQCeKw8ub4Svn7Uu9ByqWE66zmd88Nnrxho+su1cf189zBg0jgKp0e4dqLxZxZy0hLBbNl+5zgkOpEF/sRKuvVcDYFt5bHVz7Nvh6Yr/VDYDOo2fh1doBmwrP7m3PjaWGFOBlLixUzMqnJP0GEC++iEnNpAWl97eVME8SxavaYbDF61X/DN2DgxcsD4sWet6ebZc8jNvDABSJF/9gMo5Idl3dnhx9KH+yokNpMHJ1/p28xk3/Cu1w7xLNoTpOcUvW+uNzokjv7cxbCzbQPOZ8s2rysZWIC2W9s8LL1FBJyDZQnmOExpIg8MvqntH+lPSbI2GC24qhb3zdvtn2/aJzpGzfzoSGk0X0ZPTjg5HbtGIMRZIhUyhfJgKOubpH6j8UfRhlp3QQNIddHot1NwEsFV+/nAtfHTBKgUuO+SDR68KP7qn4gJ6UmqN0XDQtzYZa4E0qLytWP1TlXSs7wKoLHIiA0n3kW9Ww8aKby+f/Nz/F09fq6Bll3zljLVh6Tr7BTz5kZoPLthgzAXS4DyVdFw3AyxU3hJ9gKNOYiDJ3n1UNSxZpwHQSasdxm7n7jtsuSKWcdE5l067djg0Wq6xTpata4b95q039gKJ11eo/quKOmbJ5cLumULl505gIMn2nlsJdy+xmVkn9y1thAOOW61wZUJ84oTV4YHlnrfp5M7H6mHGwDpjMJB0d8xaFPZQWccomUL5U05cIOkuv7PlWeXGaFh41Sa7/jMpbxE49rKNoVJ3V8ClPy+H3sM0AoCkKx+oso5JZubCy6IPbYWTFkiyoy/3reTdv6qH989fqUBlUn3gqFXh3sX11F9/cy/eoBEAJN2q7OD6l6uw47EXwJFOWCDpbwJopPgmgCee/c/M9uw/U3dXQOcOlGaK9wrovErxUyeu1ggAkm6eCrvLM6NYe0P0QdWcrEBSvefoalg9nN7CY8WGVjjolDUKUbrCpxeuSfUbBFZtbIV3Dq7QCACSrD59Tu0vVNrd/ErAgeoPsvnowwJIoBnFSrjz8fRuBPijuythn4EV4V+/sQy6xt5zlofv3VpO7XV52yO10HvostA7e51xGkimgcqlKu1u3QwwX+tzkgJJdv7N6fzGsdoYDQPnr1dw0tWKF24Y26gyjek8ntM5BhoBQFL15sszVdxdlp5ceF5foXqPExRIqoGL6yGN5UXnveRjr/5TZBIDnzh+dVi+Pn0bdoxGg9Mh56zTCACS7L49F4bnq7y76TGAfOULTkwgqT58fDWUa+lrANz0QDW8Pe/2f+Jl3+icveXB9F2wpWo7vO+IlRoBQGL15SufV3l3y2aAuU2vjD6UdU5MIKn7ANy7tJ26bxU7txdPP0RBSTz1ROfuwis3hXbKbt/pvLZz+qHLNAKApFrfM3v4d1Xg3fBKwHz1RCckkFRnXpeufQAq9dHw9bPWKSRJhP85e12o1tPVCTjlmuHf/P4aAUACnaACn+JMP3zkTdEH0XQyAkn0+W/XUvVN4trhVjjwBM//kyydPS1Wb0rPPgGtdgifWbhGIwBIqtaMwdLfqsSnci+AQvlqJyKQRPvOq4Rl69PTAXh0ZTO8d95KRSOJtP/cleGh5Y30bOi5vhVmzlmuEQAk1bUq8al6JWCh8h4nIJBU19ydnm8Of/5wLew9YANAkq1TFN/8QHo2DPzBbeWtfn+NACBRCpV3q8gn/5WAvxUd/EedgEAS5S+pp6pQyOSWKxJJhWx0rl9+ezk113fuvPUaAUBSPdqpSVXmk/oYQPUbTjwgid53TDWMVNPxGMB3rh8Z20VdcUja3hxw/o2lVFzjmyrtsN/gCo0AIJH6CtWDVeaTlN6Bymujgz7ixAOS6Pr70/EYQOcVgApC0qzzCsE05Nq7K0/73TUCgIQY6Rsq/4EKfTL2AshXznTCAUl02IXpeAzg1B8OKwIhRY2AzqsSNQKAZCp/W4U+0Y8BDFT+X3SwR51sQNK884hqWDOc7McARqNf79jLNir+4Enmf29j4l8F2nn95z7PsPmnRgCQAKP9hcr/p1KfqISwW3SQb3aiAUl02R3NxDcA5l68QdEHz2DeJRvGrpEk55JbSs/4u2sEAAlwU6dWVbBPyCsBqx91ggFJ9MUzayHpWwGecPkmxR5sw9GXbkz0GNC52+Ggk9doBABJ3STwwyr28X8l4G9HB3eZEwxImpmDlbB4bbJbAAuv0gCA7XHcZcneI2Dxmmbom71cIwBIoqWdmlXlPo7py5cLTiwgic69MdmPAZzxI5sAwo4488cjiR4TTr/22ccEjQAg5psEDqjcxyn9c6p/Fh3QaiQAJMlHTqiERoLfCHjBjZ3XAC4FdtB51ye3EdBojYYPHrXyWX/33tlrzQ9AXNVmFGtvUMGPxxsB8uULnVBAEt30YHI7AJfdVg49hyjmYGd0rp0r7ygndnz4yb2Vbf7+GgFAXPXly+er4Hd1M8D8yHQnE5BEXzm7ltgF/h2P1kI2t0wxB7sgE11DP384uePEl05boxEAJFImX+pTye9kZi0Ke0QH8S4nEpA0M4rl8NjqdiIX9o+taoZ9BpYr4mAc7D1nWXhkZSOhY0Uj9B66VCMASN7dAIXyPT258DwV/c48BlAof8ZJBCTRcVfWE7moXzvcCu89YoXiDcbR+6Jrav1IMpuGR1yy4Tl/f40AIJZ3AxTKn1LR72D2KW58RXTw1jiBgKR515GVsKmSvFcCVhuj4dMnrla0wQQ48IRVoVpP3rixodTerjuHNAKAGFo3I7fplSr7HdoLoHS0EwdIootvTd4rAdtRbXLwWWsVazCBDjlnXRhNXh8gfOf67XuLiEYAED+l+Sr77X0MYM7IX0YHreGkAZLmYydWQyuBd/Vufu+3Ig0m2pk/Hk7kKwM/MH+lRgCQRM3ph4+8SYW/PU2AgfLlThggiX78y+S9EvDWh2th+qGKM5gM0w9ZGm5+oJq4ceSqO8vbfQw0AoBYKZSvVuE/12MAhfLbnSxAEn3ipGribuVdsaEV9i14EwBMpn3zy8Oy9cl6rKjdDuEjx6zUCACS+raAvVX6z/ZKwFx4QTZfud+JAiTR9Q8k6y6AenN0bLMyRRlMvgOOWzW2GWeScu3dlR06BhoBQIw8NHNBeKGK/xlfCVj6shMESKLPfKsakrafV/6C9YoxmEJDF61P3AajneaGRgCQRJmByhdV/E9J/+yR34sOzkYnCJBEtzycrLsArrijrAiDLnD1XeVEjS3X/bK6w8dAIwCIiU09c0u/r/Lf6pWA5ZOdGEASfe70ZG3itXx9K+w9Z5kCDLrA3gPLx/bmSFI+feJqjQAgqRaq/H+dvnzp76ID0nJSAEl0+2PJWaB3Xm/42ZNWK76gixx08uqxjfWSks7bD3bmOGgEADHQ7i+W99QB6OwFkC/92AkBJNEXzkzWXQCnXTus6IIudMaPhxM11nxm4WqNACCprp8Wwm7pfgxgoPI+JwKQVDc/lJy7AO5bWg+ZnMcAoBv1Hro03Lu4npjx5if3Vnb+WGgEAF2ub6AyK7UNgL3mhxdl8uXHnAhAEh2wMDlvBOi8iuwD81cqtqCLfejolaGWkNcGdt4U8MGjVmoEAEm1eN/Z4cUpfQygnHMCAEl12R3NxHwrd8IVGxVZEAMLr9qUmHHn4ltKu3Z3hEYA0MUy+fIhqWsA9A5UXhv98iUnAJBE7zm6EuoJ6QE8tLzhMQCI0WMBDyxrJOYOpHcUlmsEAElVyQ5W/jhldwFUzvbBA0l15nXJWIR33gZw4AmrFFcQIwcctyo0W8l4LODUH27a9caIRgDQtXcDVM5Mz2aAhcpe0S896oMHkmifueWwsZyMBfhZP/E2AIij864bScQYtL7UDv2HLdMIAJJqNDtQeWviGwC5XNi9L1++xQcOJNWCK5KxQ/eStc1xWXwDk29GdO0uW5eMZ5KOuGTD+DwqoREAdKfbOjVy0jcDPMAHDST2lS+Fcli6Lhl3AXz59LWKKYixr525NhFj0a9WN0PPIUs1AoDkrh/zpX9PbAPgLUNrXhr9kst90EBSffWcWiIW3TfeX1VEQQLc8mA1EWPSF05dM36bJ2oEAN1n5czcupclcy+AfGXQBwwk2U/ua8V+sd3ZUKzzvnEFFMTfR45ZmYhNAq+5qzK+b1HQCAC67m6AciF5DYBi9XXRL1fzAQNJtf9RldCIfw8gfOf6EcUTJMgFN8Z/k8BGazS8s7hcIwBIsnrfnNobk7YXwCU+WCDJTvph/F8LuKHUDvsMLFc4QYK8Pb88bCy3Yz8+HXvZxnE/NhoBQDfJ5MsXJaYB0D9npNeHCiT8Fq6wJAEbAh753Q2KJkigoy/dEPvx6bFVzQk5NhoBQFetKYul/tg3AGYtCntkC+Vf+ECBJPvSWfHfEHDpumboPVSxBEmUySXjlYGfPWm1RgCQdPf25MLz4v0YwEDlIB8kkHQ/vCf+i+uB89crliDBiheuj/04ddlt5Qk7PhoBQNc8FjBQ/o/YNgD2KW58RfRLrPFBAkn2riMroRbzHsDiNc0w3V0AkGida/xXq+M9WNUaoxO6b4lGANAl1mUKw6+K510AhfKxPkAg6RZcUY/9t2uzz1unSIIUOHzRutiPV3Mvnti9SzQCgK7YG6BQOiZ+rwQsjPxV9MM3fIBA0v3iV/HedfvRlY0w/RDFEaTiboDoWn94RbzfZHLrw7UJP04aAUAXaGYPL/1N3F4JeIUPDki69x1TCaMxfynA/5y9VnEEKXLIufG+G6DVDuGdxeUaAUAKVK6J0WaA5Xf6wIA0OP6qeuzvAuhxFwCkSuea77xuz+tMNQKA7tc/UN63+18JmAsvyOZLD/jAgDS4Z0m8HwUYvMgbASCN5l2yIdZj1+2P1ibtWGkEAFPs4ZkLwgu7ugnQly991QcFpMH7F1RCnJ8EWD/SDn2zlymIIIWy0bW/bqQV2/GrHQ2++w+t0AgAUqL0le7dDDBfenX0Q270IQFpcOI18X4U4OSrNymGIMW+dc2mWI9hR1+6YVKPl0YAMIV7AwzPyJdf0617AZzqAwLS4r5l8X0UoNoYDfsWliuEIMX2zS8P1Xp872e66/H6pB8zjQBgqvQNlE/pvgZAsfz30Q/X9gEBafDB4+L9KMBFN5cUQTHVuYPjgWWNrlC4wJ4ScXfxLaV4PxIwd4VGAJAW7Uyx/H+7pwMQwm7ZfOmnPhggLRZcEd9HATqvNPzQ0SsVQDH13Z91T9F24pUbfSYx1xkL4vya0yMu2TAlx00jAJiSuwHy5Rs6tXd33AWQL33AhwKkyc0PxXdDrTsmcVdtNAHofnc+VovtePbTeytTdtw0AoCpkMlX/m3KGwB7zQ8vin6Yx30gQFrMHCyHSoz3BJyzyC3cmgCaAGyRv2B9bMezcm00ZHLLNAKANN0NsKR/XnjJ1L4RYKB8mA8DSJOvnhPfb81Gqu3Qf5jXAmoCaAKwRWdMGK7Ed6PTz52yZkqPn0YAMAVyU9YA6Bmq/GH0A5R8CECaXHBLM7aL5fNvHFH0aAJoAvA0nc1C45qzfzo85cdPIwCYZJXegeqfTM1eAIXSeT4AIG0Wr43vN2YHHLdKwaMJoAnA03zs2FWxHdceXtHoimOoEQBMqkLpnElvAPQODP9TNl8ajQSAtPjgceXYLpTvXdx5p/YSYq77mgA+k6T45ZJ4bnYyOvaqwOVdcQx7Z68xVwKTpn9g5F8mrQGQy4Xdo7/0VgceSJtjLo/vjoALfrBBoaMJoAnAszrusg2xHd+GLlrfNcdRIwCYNAOl2zu1+aQ0Afry5U846EAa3fBAPF8N2O6ib8rQBKA7vScaIzpjRRzzo7srXXUsNQKAyVM+YMIbAJ3XEUR/2XIHG0ibvshwJZ4r5M57wBU5mgCaADyXXzwez7efrB9pdd2x1AgAJsnyCX9lYLZQ/oYDDaTRxxdWYnur7FHf8yiAJoAmAM/tmO/H95GA989foREApFImX/r6xL0ScPbw70Z/yUYHGkij+T+I5zdkndt73z3kUQBNAE0Antt+g8tDO6YvQCleuK4rj6lGADAJNmYKw6+amLsA8qX5DjCQVlfe1Yzlwvi2RzwKoAmgCcD2u+PReDY8L7211LXHVCMAmARzJ+CVgNU/if7gmoMLpNWSdfH8eqxze6/CRhNAE4Dt1XmTSBzz2KpGVx9XjQBgglX7Byp/NK5NgEx+5GQHFkir/Y8qh5humh0+0IXPyaIJQPf60NErYjnWjUaD9L75ZRoBQIqNfHMcGwClV3c6Cw4qkFa586uxXBQvW99U1GgCaAKww5ati+fjT187c03XH1uNAGAC1Xrmln5/fJoAAyN5BxRIs0U3NWK5IL7wphEFjSaAJgA77KKbR2I55p39k+FYHF+NAGAC7waYvcsNgH1nhxdHf9haBxNIs3uWtGK5IP7qGWsUNJoAmgDssM436nHMnY/FZyNUjQBggqzrnxdesmtvBBgYOciBBNKsL1Kux29HgHpzNMw4bKmCRhNAE4AdNuPwpaHRjN+4V6q2Q88hSzQCgFTLFMqf2ukGwKxFYY9svvywAwmk2YePL8fyG7GfPVRVzGgCaAKw0259OJ57obz3iOWxOs4aAcAEuD+XC7vv3F4AxdLbHEAg9ZsCXhDPhfDCqxRomgCaAOy8U67eZHNAjQAgvneyZnaqCRD9h+c6gEDaffun9VguhP/z5NUKGU0ATQB22ue/tTqWY9/JV8fzvNQIAMbVQOmMHd8LYHD9y6P/uOIAAmn30/vi96qsZst+AJoAmgDsmv5oDGm04rcvwA9/UY7tMdcIAMZRpVPT79hdAAPlTztwAKWwZF07dovgexfXFTGaAJoA7LL7lsbvTqjHVjVifcw1AoBx3CDw4zt2J0B+5CYHDki7fYZKoR2/L8LCedcPK2A0ATQB2GXn3zASu/Gv1Q6hb/ZSjQCAfOmn278hYGH4zx0wgFI46LRKLJ+J/cY5axUwmgCaAOyyQ89dG8sx8BPHr4z9sdcIAMbBaKZYfd12NgFK/+2AAZTCvEtrsVwAv3touQJGE0ATgF22fzSWxDGFC9Yl4vhrBAC7/EjAQOmL2/koQPk6BwygFM65oRG7xe+6kZbiRRNAE4Bxs74Uv31RTr92U2KOv0YAsEsKpR89ZwNgRm7TK6N/uemAAZTCtffE780AP3uoqnDRBNAEYNz8/OH43RF1xR3lRH0GGgHALmhlCsOv2vZbAQqlDztQAJvduzR+34Cdd51NATUBNAEYP4tiuDngXY/XEvc5aAQAu+AD234UoFBe5CABbLauFL9XAyTlWVg0AegOgxetj904uGpjMh+L0ggAdkZfvnTuszYAZi0Ke0T/0gYHCqAU9h4qhRi+HTB8PAG7YqMJQPc48IRVsRsHO692zcb8NYEaAcA4Wp/Lhd2f+VGAfOnvHCCAzT52YvxeD9h5P3ZSF75oAjA1+g9bGtrxezIqfGD+isR+JhoBwA47vPQ3z/wowMDIQQ4QwGZfP7cau0Xv46sbihZNAE0Axt3iNfHbJPVLp61J9GeiEQDs0CMBA+VPP9udAOc6QACbHXN5PXaL3hvv92YATQBNAMbfLQ/Gryk675L1if9cNAKA7ZXJl8585jsB8qXFDhDAZufd1Ijdoveim0cULJoAmgCMu0tuid8bAs78cTrelKIRAGynR5/WAOgdqLzWgQHY4pq743f76wmXK8o0ATQBGH+dzzpuufz2cmo+H40AYHt0av6nvBpw5N0ODMAWP3ukFbtF7yHnrlWwaAJoAjDucuet9XiURgAQ930BCuV3bNUEyOTLhzgwAFs8sDx+22EfeILXA2oCaAIw/j71zfi9JvDexfXUfU4aAcA2FUpfe8qdAKVzHBiALVZsGI3donff/DIFiyaAJgDj7h2FZbEbD5esbabys9IIALbh21vfCTBQutNBAdiiXItXE6Dz8ypWNAE0AZgolXq8xsThSju1n5VGAPAsbv1NA2DWorBH9A8qDgrAZm8bLIW43QewbF1ToaIJoAnAhFm+Pl6bpY5Gg3jvoUs0AgC2KOdyYfexJkDfnE1vdEAAtnjvMeXY3fr6yyV1hYomgCYAE+a+pfXYjYvvLKb7ESmNAOBpX3QVq3+6+VGAYultDgjAFgeeXIndYvemlO2ErQmgCcDkuvmBauzGxY8csyL1n5tGAPBkmTml7BObAn7MAQHY4ktnxW+xe8UdZYWKJoAmABPmqjvjd4fUQSev9tlpBABP0pcvfWjz4wCF8sEOCMAWuQvi1wRYdMOIxa4mgCYAE+b8aIyJWw4+a63PTiMA2NpXfn0nQPlYBwNgi/wltdgtdk++WkGmCaAJwMQ55ZpNsRsXc+dpAmgEAE8xf3MTIF++wMEA2GLu9+LXBDjyu+uTtVg9dEk48IRVXeETx6/UBNAESL3539sQu3Fx4Px1PjuNAGDrxwHO3fw4QL58gwMCsMVRl8WvCVC4IFmL3c6u3t2SWmNUE0ATIPWKF66L3bg4dNF6n51GALC1H//6ToDSvQ4GwBbHXhm/V2Ed9h1NAE0ATQAmzuGL4tcE6Ny94LPTCAC2ctevmwAjjzgYAFuceE38mgDfOGetJoAmgCYAE+aQaIyJW469TBNAIwB4igeeuBNgmYMBsMW3fhS/JsBXz1yjCaAJoAnAhOmMMXGLc1QjAHiaXz3RBFjnYABs8e2fxq8J8MXTVmsCaAIosJgwXzotfk2Ab12zyWenEQBsbfUTTYCygwGwxTk3NGK32P3cKZoAmgCaAEyczhgTt5zxI00AjQDgKYZ//XaAkXYkALDZopvi1wT4j4UrQ883FifGu4pLu6oJ0C3H5Xs/G+miJsCGRJ1zbNtnTlwZu3Hx3OuGfXY7IDN7tTUAJF9TEwBAE0ATQBNAEwBNADQCIGVNgLKDAbDFOTfEb0+Az52yShNAE0ATgAnTGWPi+DiAz04jANgimx/5zeMA6xwQgC3OiOHGgF86bbUmgCaAJgAT5sunxW9PgFOv2eiz0wgAtrb6iSbAMgcDYIs4viLwa2eu0QTQBNAEYMJ8LZavCHSOagQAT/GrJ5oAjzgYAFssvKYWu8XuIedoAmgCKLCYOJ0xJm459gfOUY0A4CkeeKIJcK+DAbDFcVfGrwlw2HfWagJoAmgCMGHmLFobu3HxqO+t99lpBABP0p8fueuJJsD1DgjAFkddFr8mQOGCdZoAmgCaAEyY4oXrYjcuDl20zmenEQA8WWHkR080Ac53QAC2mPu9auwWu/O/u14TQBNAE4AJ0/lWPW7Jn7/WZ6cRAGzdBDhnrAnQnx9Z4IAAbFG4JH5NgFOu3qgJoAmgCcCE6ey0H7fMPk8TQCMA2LoJMHzkr5sAw193QAC2mH1B/JoA598wrAmgCaAJwIS54Mbh2I2LB5+1xmenEQA8SbZQ+vKvHwcY/ncHBGCLL51Zid1i98o7SpoAmgCaAEyYq+8sx25cPOikVT47jQDgyRsDDpQ+ONYEyOZLMxwQgC0OPCl+i92bH6hqAmgCaAIwYX72UPzukPrIMSt8dhoBwFZKmbEmwIzipjc4GABbvO/oUuwWu/ctqWsCaAJoAjBh7l9aj924+M7CUp+dRgDwJL0D1T8ZawLMWhT2iP5BxUEB2GxmcSSMxmyxu3x9UxNAE0ATgAmzYkMzVmNiOxrEew/1uWkEAE+6C6A0LYTdpj2RvoGROx0UgC1KtXi1Acq1UU0ATQBNACZMpR6vMXG40va5aQQAWxm+ddqT03lfoIMCsMXyDe3Y3fq6b36pJoAmgCYA465zW33csmRN02enEQA8eVPA/PC3t24C5EcOcWAAtrh/WSt2i95PnrBSE0ATIPVNgAOOXTF2LXSDGYctScT1+OlvrozdeHjPr2oKc40AYKvXAw5/basmQLYw8m4HBmCLnz0cvybAoeeu0QTQBEh9E6Cbnl3/+HHJ2J1+9nlrYzce3nBfRVGuEQA8WWH4HVs1AXoHKq91YAC2uPruZuwWvd+8YoMmgCaAJoAmwLjrfNZxy+W3lxTkGgHAk8zIl18z7anpyw8/7uAAbHbejfF7HdZFN49oAmgCaAJoAoy773bRebe9OfPHmxTjGgHAb/YDGHl42jMl+h/OdoAANltweS12i94b769oAmgCaAJoAoy7Wx6sxm48nHfxOoW4RgDwbJsC/qYJMDDyHw4QwGYHn1uJ3aL38dUNTQBNAE0ATYBx19lpP2750mmrFeEaAcATTYCB4U8+YxNgxmDpbx0ggM0OOLEcu0Vvqx1C/+wlmgCaAJoAmgDjpvOGg3b83pgaPjB/uQJcIwB4Yj+Aw0fe9IxNgFwu7B79CxscJICRsM/QSBiN37o3HJiQ1wRqAmgCaAJ4PeDOph0N3tncEsW3RgCw2bpOrT/t2ZItjJznIAFstm4kfm2A4oXrNAE0ATQBNAHGzdBF62I3Dq7a2FJ0awQAWzYFPHvattI/UPqgAwWw2b1LW7Fb/H7n+mFNAE0ATQBNgHFz/g3DsRsH73qspuDuYr2zV1ljwOQ2Af5tm02AGblNr4z+xaaDBTASfnhP/DbDuvXhqiaAJoAmgCbAuLn9kfi9GeDKO0qKbY0AYLNGT27D70x7rkT/4k8cLICRcM4N9dgtfjeU2poAmgCaAJoA46YzpsQtp1+7SaGtEQB0FEZ+OG17ki2UvuyAAYyEIy6thThm/6FlmgCaAJoAmgC77D1zl8VyDCxcsE6RrREARLIDpf/aribAjOKmN0T/waiDBqTdZ08tx3IBfOi5azQBNAE0ATQBdtns89bGcgxMwh0YGgHAOBjtn7Pxz6Ztb6L/4AYHDUi7tw+NjL1qKm5ZdMOwJoAmgCaAYnSXXXBj/DYFbLVD6Jvt9YAaAUDkx9N2JP0Dw5900ABGwpK18Xse9r4ldU0ATQBNAE2AXfbAsvjti/LoyoaiWiMA6DwKUBj+2A41AbKD618e/YdlBw9Iu5/8Mn5vCGi2RsOMw5ZoAmgCaAJoAuy0tx2+ZOxb9bjlmrvKCmqNACBfKr1jaM1Lp+1o+goj5zh4QNqd/pP4fRPWyedPWaUJoAmgCaAJsNO+cOrqWI59J121UTGtEQCp158f/va0nUk2X5rhAAJplzu/GsuF8MlXb9QE0ATQBNAE2GmnXrMxlmPf185co5DWCABNgDkjvTvVBJi1KOwR/QEPOYhAmn34+Hi+IeDWh6uaAJoAmgCaADvttkfi2QB977xlimiNAEj3XgD5kftzubD7tJ1N9Id81oEE0n071Ugo1+L3ioBGczTMPHyJJoAmgCaAJsBO7QfQGUPilpFqO0w/RPGsEQApX7sODH9y2q5k39nhxdEftMbBBNLs7sUtt8VqAmgCaAKkpglw8FlrYjnm3flYTeGsEQDpVhhZtdf88KJpu5rswMgcBxRIs+/cFM/NAS+6eUQTQBNAE0ATYIddcstILMe8s368SdGsEQBpbwIcOm080j975PeiP7DqoAJpdeiieD4bu3x9UxNAE0ATQBNgh3XGjjjmq2esVjBrBECaVWYWRv7XtPFK/8DISQ4qkFbvOaoURkM886GjlmsCaAJoAmgCbLcPH708lmPdaDRI75tfqljWCIA072N1wrTxTO9A5bX/f3t3AmdXXd+NPyBqcava1vap9mm17b9qn1Zb2j7Sqsw+RATRGi1137E+bi1FMgs35N6ZsMuqIKLWBRQBUdxwBbQgSJEllmT2yTLJ7Pfemckks/3+54zFBVlCMss957w/r9f79eomJHPPTL/fz5zzO3Gz4IsLZNX2kflEDsYXfG1cCaAEUAIoAfbbhdHPjCSmZ/eMJVkRAFk2vfaMPc9as9Spbyuf7YsLZNU375pJ5GD8k569SgAlgBJACbDf7u7bm8ifdV++fcKCrAiADJs8fc1y5JhNxadF/4IxX2Agi87+ajIH4/mFEP7xjJ1KACWAEkAJ8IjinxXzCX32qe2LI5ZjRQBk1XhjrvT0NcuV+vZyky8ykEVvuWQqJDUXfHVMCaAEUAIoAVL7KECcE84ZsBgrAiCT6trLp6xZzsTvHIz+Rdt9sYEMHrYSilPJ/BXZPX17lQBKACWAEuARbd6WzNehjk7MWYgVAZBVA8duCE9Ys9xpaC+/zRcbyKL/3JrM12bFt/euO3OnEkAJoARQAjyk15y1c/GE/STm+/dOWYYVAeYUsnoXwFvWrERyuXBofVv59kgAyJLzvj6d2FtlL/56/EhAf2Icv2l7hZUAlfF1qbwSoPKunUoqAd54/kBivuc+8o3kPgpwxrUjifr5xvL4WRFgViFDCqU74918zUqloVD+++hfvOCLD2TJ6y+aTOyQfN/2fUoAJYASYAXz467pRH3PbdmRzEcBFhYPP91hCUYRQNYsNLaXX7JmpVPfVrrSFx/Imv7h+cQWAW+/eJcSQAmgBFiBzM4thDecl5y7AN560UBif651Duyz/KIIIHMa2iY+t2Y1svaMPc+K/gCTPgQgS67+0b7EDsvX3FpOzBC3duO2xeVbCaAESGIJ8PkflBK1NH3pR+XE/lz77E0liy+KALJmT01h/A/XrFYa2kobfAhAlnzoiuS+KnBiej40nrYtMUNcvGQqAZQASSsBxibmwjGF7Yn5Pot/JpT3JPcOp/d9fLelF0UA2dI+ceqa1czPXhlY7vNhAFmx9vRy2LNvIbEDc9sXk3OAVu2p/Yu3+ioBlABJKgFOvyZZh9S1Xz2S2J9nU3vnQ11um4UXRQBZsr3hrN1PXLPaqS+UTvBhAFlya8dsYofmu3v3JmqAO/GSXYuvOFQCKAGSUAJs7t8bqluTtSTd07c3sT/Pbto8ZdFFEUC2zgIoTLx2TaUk+gPd5EMBsuKCbyT3VYHxSdpJOrAsdt1tE0oAJUDFlwDxdfL683Ym6nsrfoXhQnJvbApnfWnUkosigCz5zzUhHFIxJUDdpqm/iv5Q8z4YIAv++cKJkOC5eXGpTtLw9vLC9jBSnlMCKAEqugS48GtjiVuMVrtgO5jMezUgigCyZb6+UPybNZWWurby5T4cICt+un0uscNzvNS+on17ooa3f//U4Kr9xlIJoAR4pNybwMcAjot+Bkwn+HyTn/RMW2xRBJAll62pxDRsmHhG9Icr+oCALPjIt5L7HG2cT3ynmLjhLX7FoRJACVBpJUC8SL/u3J2J+3761PeKif4Z9uGveBQARQDZUNdWLje2Tf2vNZWa+vbyyT4oIAtee/7Eqh9YdzAZn5xL1OsCY/UbtoXuXTNKACVARZUASVxGG6LvpfhVhol9FGA+hFee7lEAFAFkpARoL5+0ppKzLhceF/1Bt/qwgCy4p38u0b9JS+KhWm++YGBxKVcCKAEqoQT44X/vSdxjALFzvzya6J9dd3R5FABFABl5G0BbuWvtBeHxayo99e3l43xgQBZc+M3pRA/S24ZnErnAXPC1MSWAEmDVS4DtI7PhZfntifv+ib/n+4ZmEv2z6+zrPAqAIoCMlADt5ZevSUrq2ya+6UMDUv9IwHnJfiQgzqlXDidyifn+vVNKACXAqpUA8TXx9ot3JXLp2fD54UT/zJqdS97BpigC4MCUvrMmSanLTzwv+oPP+OCAtLurL9mPBPQOJvNugPg8g6079ykBlACrUgJsumYkmcvOqcm/C+C2Do8CoAggE2Yb2ib+z5qkJfpDX+DDA9LuvK8n+5GAOBu/MJzIoe21Z+9cPOBQCaAEWMkS4MvRZ5DURafwxZHE/7w649oRSyuKADJg4rw1Scwxm4pPi/4Cwz5AIM2OP3tixQ+qW45nm2tPTebQ9t7Ldi/eHqwEUAKsRAkQv5s+fktFUu8CiM8BSXLi1zEm8RwGFAHwKI3Wtpd/a01SU9828R4fIpB23753JvG/XWu/Orm/XTvv+jElgBJg2UuA+NGZlxeSu4Cece1o4n9Ofe2OCYsqigAy8ErAiXevSXLWXRUeU99evseHCaTZBz89lfjhOl6c6nLbEju0XfmDkhJACbBsJcBIeS685qydif3+iL+3B8ZmE/9z6t2X7LKkoggg7X5alQuHrUl6GvITNT5MIOXvcA3bRuYTP2DHv1FP6sAWH24Y/5ZQCaAEWOoSYGrvfGLfBLBar9VcjnTvnrGcoggg/TYVG9akJXVt5S/5UIE0u/Q7exM/ZJf3zIfjEvzqrfiZ5xs3TykBlABL9neMz5s46ZODiV5kjm3bHkpTyS8p4yLDYooigJS7Zk2aUrup+JzoLzXtgwXS6h/PnQgzc4mfs8M1t5QTPbDFtz3/uGtaCaAEWJICoPlzQ4lfYq67bSLxP5dmZhfCK9odCIgigFTbV58v/ematKWhUN7kwwXS7Mb/Tv4zt3PzIbzlwoFED2zx6eFbduxTAigBDqoAaElBAfCmCwYWv6eTnm/fNWkZRRFAuhXKbWvSmKrc0JOiv+CADxlIqw9dkfwDAuPc0TWd+IHtmML2cG//XiWAEiCzBUDsx53TqfiZ9IHLBy2iKAJIs91rc6NPWZPW1LWX3+JDBtJ8QOD2FBwQGOeUzyR/CWo8bdtioaEEUAJksQCIH2VIQ/qGZhYP/rSEogggtfNje/lNa9KcXC4cGv1Fb/NhA2l13tfT8Zu3eJE6euO2xA9s9Ru2hR/+9x4lgBJgvz7nps+mowCIC7A0vBIwzplfGrV8ogggzY8B3BHvyGvSntr28pHRX3jBhw6k0ctOL4exyYVUDN9X/qCUioEtPizw5p9OKQGUAA+Z+M0Y771sd2qWlC/+ZzkVP4PGJ+dCw4ZtFk8UAaTVQl2h/OI1WUld+8RnfehAWn365n2pGMDn50N450d2pWNgO7V/8c0HSgAlwAMT/8b8DecNpGY5OfGjuxa/d9OQj3973MKJIoA03wXw6TVZSk1hzzOjv/ikDx9Io1d/eCLsTceduKF718zib9LTMrSdfd3o4nPfSgAlwP3X96vP3JGa67v21P7QMZCOEjL+vjvOawFRBJBaE1N1p4/97zVZS337xKk+fCCtvnrnTEhLLr0hXb+NO+lTg2Fyel4JkPES4NYte8Lajem61fzy7xRT83PnmlvLlkwUAaT4MMCJljVZzJHnhsOjL0CviwBIo7dcMhkW0nE0wOIS/PrzdqZqaHvLhQP7vSwqAdJVAsTfl1fcXErdifNvPH8g7JtNxw+d+HGGfz53pwUTRQApVdp27IaBJ6zJauraJl7jIgDS6paO2dT8Vm7rzn2peiwgdvym7eG2jmklQIZKgPgOkLS8AvCBjwH89/Z9qfl58/17pyyWKAJI810Ar16T9URfiBtdDEAafeA/pkKa8pkbS6kb2uLfBl/4tbGHPSdACZCOEqBzYF844Zx0/nY5vrMhTTnxkl2WShQBpNUP1oRwiBKgbfKF0RdjzgUBpNEdPem5G2A+2pM/cPlgKge3eOl4qPeqKwGSXwJ89Y6J1L5q7n2X7U7N2wDi3LJlj2USRQBpNd+wqXjEGvlZGgrlj7kogDR6zyemwkKKfkM3VJoLx7al88Tu+CTyeAFRAqSnBIjfM5/G2//v9/LC9jBYTE/RGJ/XEL/i0CKJIoCUusTm/8slwIaJZ0RflHEXBpBGP+qcDWnKjZvT/bzuhs8Ph9LUvBIg4SXATdF1+oqUv2Luu/ek65GjmzY7CwBFAKlVqjpz8vds/r9+NsC/uTiANHr3xydTdTdAnDOuHUn18Paq03eEm386pQRIYAnQtWtfOPu60dQvGPHfMU2JHzeK39pheUQRQCoPA2wrfdDG/yA54tLw2Lq28hYXCZBGN9+XrrsB4leRvSsDt+3GdwXEt1srAZJTAsS3yKf9uozPsJiZTVe1+J273QWAIoDU6lyXC4+z8T/kKwNLx7hIgDR6+8cmF593TVPi5Tjtt1vHKukMBCUA8dkVD/caxETeBTAfwhvPdxcAigBSexfAWpv+Iz8W8HUXC5BG39s8E9KW/+qeDjWnGvCUAKzIIhF9r/24czp1P0e+eeekzxdFACk18S0b/v4cEthefm70BZtxwQBp85aPTobZ+dTN7+GzN5YMeEoAVsCVN5dS9/MjfqzhhHN2+nxRBJBGM0fny39mw9/vImDiwy4aII2uuW1f6ob4+DGH1iuGDXhKAJb5fIq0PVIUJy42fL4oAkil9vI5NvtHkarc+FOjL9yQiwdIm1ecPRHGJtM3yccn6P/LpbsNeEoAluMgwI/uWvweS1vGJ+fCMRk4yBEUAZk0FO+0NvtHezZAYeJEFw+QRud/I33P9MYpTs2H153rtl4lAEspvlV+bGIulT8zzrh21GeMIoB0HgZYKL/TRn8AWXdVeEx9oXyXiwhIm8b2cugenE/lUN83NFNRp+krAZQASX8zxbbhmVT+rOgY2BeqW33GKALMRSkU7bDxLmujP8A0tk1Uu5CANDrps1Mhrbm7d2+o37DNgKcE4CDU5baFO7unU/tz4n0f9/gQKALSqS4/UWWTP9hDAtvKV7uYgDT64ZbZ1A7437pr0m/5lAAcoPh75zt3p7co/P69Uz5nUASk9TDAq2zwS1EC5IvPrm8rTUcCQJq88eKJsC+9PUD40o/K0XDTxxL6yu3lCioBxnwmy6C6tS9cd1s5tT8X4gMO/+nsHT5reICaDbvNRsk3ffSm8T+ywS/ZIYHlNhcVkEaf++HekOZcsfj6L8OdEoD9deUPSqn+mfCJ74z7nEERkFYbbe5LmGM3DDwh+qJuc2EBafOy00uhb3g+1UP/5YZ+JQD75ZPfHU/1z4L+oZlQv6HfZw2KgBQq7mg4a/cTbe5LnLq20htdXEAavf9Tk2FhIdWzf7jkmxZGJQAP54Kvjab6Z8B89DPu/31sl88aFAFp9Xob+3IkhEOiL+4PXWBAGl3/X/tSvQDEJce5Xx413B2k3JVD4abNU4uvYpydW73maLA4G9q+OOwzWSIf/spo6ovAa251RggoAlLr1nhXtbAv1yGBm4pHRF/keRcakDavOLschsvzqS8CLv6G3x4vlbpcf3jTBTtD02cHwwVfHQ1f+GEp3Lh5Kvx0296wc3Q2TO09sOspPrhtqDQXOnbuC/95357F5S2+k2PD54fCOy4eCEdvdDv3Ujrv+vQXAHFp9LL8Np83KALSaKGxUPo7m/qyHxJY+rSLDUijli9MhSzEYYErWxS86vTt4YRzdoS3XjQQ3vmRgXDiJbvCv31y9+J72uP/Pva6c3eEV5+5PTSeZsFfSZfeMJaJ7/m4qPJ5gyIgpT5pQ1+BVJ05+XvRF7vkggPS6Ob7ZjKxFFypCCDjrwH8fMrfAnB/vnP3pM8cFAFpNVF/xtTv29BX7JDAYrOLDkij155XDuU9C5lYDq79UXlxGTLgkbUC4Lrbypn4Hi9OzYfjN233uYMiIJUa2orrbeYrmLUXhMdHX/hOFx+QRvlr94Ss5Ft3TS7esm7AIwvi1+PFvxnPSlqvGPK5gyIgrbqrcuE3bOYrfTdAofiPLj4grW64eyYzi8Lm/r3hFe0ODSPdjm3bFu7qnc7M9/X1P57wuYMiIL0K5VfayFfrkMC20rdchEAaHXtmOWwfnc/MwrBjdDa8/sM7DHikUnwwY//QTKa+n70NABQBqdVe/q5NfBXTuHHiz6MPYtbFCKTRez4xGWaz0wOE0tR8eO9luwx4pMq7L9kVxifnMvN9PBf9zIr/zj57UASk1Fxt29hf2sRX/26Aj7oYgbT61E17Q5YSv6P+1Cs9R0w6bPj80OI1naV87FvjPntQBKRWXVvpYht4JdwNkCs9PfpARlyUQCpPnm0vhbv75zK1RCxEO9M1t5RD7akGPBI6mEfX7hU3lxav5Szl7r69i3931wAoAlJqrGpD+bdt4BVzSGDpAy5KIK3++cKJMDGdsW0iSnyI2itP93oxkiU+5PKOrunMfb9OTM+H157tXA9QBKT4FzOF0vts3hWUqlw4rL69tNnFCaRV7otTIXs1QAhDpTnPF5MY7/jIQNg1Ppu579P4jgevAwRFQMr99xGXhsfavCsstflinYsTSLPP37I3ZDH7ZhfCmV8aMeRR0c758miYmV3I5Pfop79fdA2AIiDVajeVjrZxV+ohgYXSVyMBII0aov8n9OPu2ZDV3LR5Khxb2BaqmvugYhyT3xa+c/dkZr8v40cfalpdB1ApanK7zUxL7ys27Uo+JHBT6U+iD2mvCxVIq1edUw67xuczu3AMFmfDBz6+26BHRfjg5bsXH1nJauLXAb7rIwOuBVAEpNm+2vby/2fTrvS7AfLFs12sQJqdeNlk2JvdGwJ+/vaAulP7DXusitrWvvCp7xbDfHb7uF85t+N15+5wXYAiIJXq8sUzbdgJyHFnDD+5oVDa5aIF0uycr+7J/PJx34594Q0f3mnYY0W98bydYevOfbZ/RQAoAtJvsO70sd+0YSckDYXiO120QNp97U6LSHxoYPwbWXcFsBK//b/0hrHFa04UAaAIyMBZTPny22zWCUouFw6NPrgfu3iBNFvbXgp39s7aPqJ0754JJ350l4GPZfGOiwZCh9/+KwJAEZAld667KjzGZp20swHay/8QfXgLLmAgzY4/qxx6hzyYHGd+IYTrb58Ia09zVwBLo3FDf7jippJn/xUBoAjI2l0AhYmX2qgTe0hg6QsuYiDt3njRRBifdIvy/RkYnQ1Nnxk09HFQWj83FHaPu9NGEQCKgMzJl660SSf6bIDRP4g+yCkXM5B277l8MkzPKAJ+OXd2T4e3XuDgQB79wX+3dTh4UxEAioBsKu6pKYz/oU06+XcDbHQxA1nQ8oWpxVvi5VffYx4/InB8+3bDHw/r2MK2xVdPzrn1XxEAioAMHwZY2mCDTkGOPDccXp8v9buogSy45NvTNo8HSXnPfDj/+lFvEeDXxNfEhV8dXbxGRBEAioAMaytvbzhr9xNt0Kl5LKD0Ohc2kBXX/dgp5g95XsDYbDj9mpHF170ZAr3y78xrR8KuMc/9KwJAEcCiE2zOaUoIh9TlSze7sIFsnGhbCt/4yYzN42ESL35nXzcSapQBmVPd0hc2XDkUtg/7HlEEAIqAnz8GcEu8M1qcU5bGtuJfRx/wvIscyIKj20vhB/dZch4pfYMzIXfF0OJiaBhM//J/2ueHQ/+Q7wtFAKAI+BXztRtLf2tjTushgYXSJy0HQFas3VQKP+p0q/P+ZOfo7OJz4fF74Q2E6VKf6w/tVw+HPsu/IgBQBDyIukLxcptyilPbNvm70QddshwAWfHy00vhrj5FwP5mfHIuXHFTKfzj6d4mkHTxGyEuvWEsjJTnXNiKAEAR8BAFQKnc2Db1v2zKKU9doXiKxQDIkuPOLIf7dliEHk32ziyEL99WXnxnvMEwWd4UfWZfub28+BmKIgBQBDy88sk25AxkXS48LvrAOywGQJYcf1Y5dO5SBBxItu7ct3iI4NGneVSgUjXk+hcP+7ujazos2P0VAYAiYP8OUu5ae0F4vA05K68MzJePtxQAWfPqc8uhe7ci4EAzMT0frr21HN524YAhsUK846KBcN2PymEy+mxEEQAoAh6VfPk4m3H2Dgm8wVIAZM0rz/ZowFJky4594eKvj4XXnGl5WWmvOWtH+Og3xkLHzn0uREUAoAg40McAvmsjzuIhge0Tz48ugFlLAZA1x55RDv/VbYFaqsSvGYwPoHOY4PJ59RnbF9/ecG/fXrf7pzSDxdnwz+coAqDS1KazCJir2zj5FzbirN4N0Fa6yEIAZPKtAZtK4baOaZvHEmY+Wk7v6pleXFZf/2EHCh6s+FDGi782Fu7u3bv4tRVFAOCOgCU5C6CtdIFNOMM5ZlPxadGFMGIhALJobXsx3Lh5j81jmTIwNhuuv31i8cC6l23cZpB8BI0b+sO/fWL34isa+4dmXEAeDQAUActhrLa9/Fs24ay/MjBfeq9lAMiqo9uK4Vt3Tdk8ljkzswuLJ9d/4jvj4YOX7/amgcja6GsQfy3ir8md3dNhds6v+8UdAaAIWO7DAEvvsQHLmqpcOKy+ULzHMgBkVUOhGL70o0mbxwpmbj6E+3bsC1ffUl68UyB+5j0Lz/Vv+PxQuCb6O8evXZxzoL+4IwAUASvrp/HuZwOW/zkboFhrEQAyLV8MF3296NnrVUz8CsL44Lv4EYL4XIH3fmxXIu8YqDu1P7z5/J2h/erhxVv7b9myJ4xOeCOFKAJAEbC66tpKjTZfeeAhgV+2CABZLwJarxgNe2c0AZWS+fkQto/MhNs69oQv31YOl3xzbPG36Sd+ZCAc3756dw/E/+4TP7pr8c8Svxkh/rPdHv0Z4z+rIkk8GgCKgMorAIpfsvHKr6UmX/zj6ALZaxEAsl4EvPvSoTDmN7eJSFzY7BqbXXy0IC4Kvn3X5OLt9vFz9ud9ZTScfd3I4uMGsabPDC4evBeLS4TY/f99/L+7//8u/s/E/9n4nxH/s+J/ZvzP3hL9O3aPzyqJxB0BQNKKgH31+dKf2njlwe8GKBTPsAQAioBi+Odzd4U+J7SLiDsCgIQXAQ2F8iabrjxkjjtj+MnRhTJgCQAUAcVwXPvA4qntIiKKACChRcDutbnRp9h05WHTkC++rb5QDACZlx8P9Rt2hK/cXrZ9iEiFPBow+z+PBvQCFaQmt6siZ5m6/PhbbLjyiMnlwqH1bcXbLQAAPysCqlu3h7YvDnsWXEQq6I6A7RYvUAQ8fAFQKP5XvNvZcGW/UttePjK6cBYsAAC/KALecdHOMDA2awMRqaDMZfR1DIoAUAQ8goXG9rGX2Gzl0R4SeIXhH+BXi4Dj2voXXwUnIquf+MyOd1w8kNlyzqMBoAh46LsAxj9ro5VHnbW50WdFF9Ck4R/gV4uA6pbexXfDex+8yOpkIfreu+KmYqhp/dnA/dqztisCLF6gCPiFPXWnj/1vG60c4CGB4xsM/gC/XgTE/w++5bODYWJ63kYmsoIp75kPTZ8Z/LWBWxGgCABFwP1Kp9pk5YBz5LnbD48upD6DP8CDFwGviRaPu3q8RlBkJbK5f2844eyHfg5eEaAIAEVAcduxGwaeYJOVg7sboK30T4Z+gIcuAuLHAy786miYnfN8gMhyJD7871PfHf/57f8PJ+tFgMMCIdtFQF1b8TU2WFmqQwJvMvQDPHQREHvXRwbC9uEZG5vIEiZe6N9z6cCjGrizXAR4awBkuAjIj/9wTQiH2F5lSVK3cfyvogtr3tAP8PBFQOOGvnDNLSWbm8gS5IafTIS1p/Uf0MCtCFAEQMaKgHhX+xubqyz13QAfN/ADPHIREDv1isFQmnJooMiBpDg1F1o/N3jQA7ciQBEAWSkCGgrFj9lYZenPBtgw8YzoAisa+AH2rwh45aZti7/JFJH9z/fvnQzHt29bsoFbEaAIgLQXAXWFYrkqN/l7NlZZpkMCi/9u2AfY/yIg9qH/2B0Gx2dtdyIPk5Hy0vz2XxGgCIDMFQFt4/9mU5Vly7pceFx0oW017AM8uiLg6NP6whU3FcO8FwiI/EoWou+J628vh5dt7F/WgVsRoAiAlBYBnWsvCI+3qcry3g1QGDvWoA/w6IuAWHzKed+gNwiIxNk+MhM+8PFdKzZwKwIUAZC2IqCurXSMDVVWqAgofsOgD3BgRUB9ri/8x/fGw75ZtwVINrN3ZiF84jvjoe7UvhUfuBUBigBISxEQ7WTftpnKiqUuP/G86MKbMegDHFgREHvNmdsXDw5c0AVIhnLLlqlwwtmru4gqAhQBkIIiYLahbez/2ExlRVNfGD/fkA9wcEVALL4dunNgn+1QUp2O6Bp/32W7KmbgVgQoAiDJRUBDofRhG6mseI7ZVHxadAEOG/IBDr4IqG7pDe1XD4exiTnboqQqpan5cOFXR0NNa+UN3IoARQAktAgYrW0v/5aNVFbpbIDSvxjwAZamCIitPa0/fOq742HGeQGS8MzOLYRrbimFY/L9FT1wKwIUAZDAIuBEm6isWtZdFR7TUCjebcAHWLoiIPa6c3eEb/1kwisFJXGZnw/hhjsnErVcKgIUAZCcIqC0uSoXDrOJyureDZAv1hjuAZa+CIi96bwdi4cHxouVSCUnPuDy+/dOhjdG12wSB25FgCIAklAENLQV622gUiGHBBavNdwDLE8REHvz+TsWFyxvEpBKzB1de8I7LtqZ+IFbEaAIgEouAhoKxattnlIxqd1UfE50YU4b7gGWrwiIvfXCnYtlgEilLP/v+shAqgZuRYAiACq0CNjbuKn0JzZPqbBDAoubDPYAy18ExP7lkoFw80+nnBkgq/LM/42bJ8OJHx1I7cCtCFAEQKWpze1ut3FKxaUqN/Sk+rbSToM9wMoUAbETomE9PoF9ep82QJY38Rsr4vMp3vDhHZkYuBUBigCoFNXNvYN1H+r+TRunVObZAG3jbzbUA6xsERCLX8MWv4t9pDxnW5Ulzfjk3OJrK49r68/c4K0IUARAJXhpa99bbZpSuQnhkGigvc1QD7DyRUCs7tS+0H71cOgbnLG9ykFlx8jMYrHUuKEv08O3IkARAKvsJ7lcONSiKRWdukLpRdFAu2CoB1idIuB+77x4Z7j+9nLYO+NRAdn/W/7jgyf/7RO7Q3WL4VsRoAiAVdXUu1Dd2nuUDVMSUgSMf9ZAD7D6RUDs5fn+cPZ1I6Fr1z5brjxo+odmwqU3jIVXtG0zdCsCFAFQKWcBNPV9zmYpiUlNYeSZ0TA7aaAHqIwi4IF3B+zZN2/zzXj2/dJv/Q3bigBFAFSavj01zT1/aLOUhB0SWGo1zANUXhFw/0GCZ31pZPE97/P6gMxkbn4h/LhzTzjj2uHwso39huwD8BpFgOsAVkJL7wYbpSQuVbnwG9Eg22uYB6jMIuB+xxb6Fw8TvGXL1OKSKOlK/JHe27d38ZC/V25yu78iQBEAlX8WQN/2hpPufqKNUpJ5N0ChuM4gD1D5RcD94tfA3V8IuEMgHYv/P55u8VcEKAIgUa8EbO59rU1Skl0E5Is3GuQBklME3O/VZ2wL51w3En7w31Nhaq9GoNITf0Y3/3QqnP2lEYu/IkARAAl1VHP/TTZIScHZAOMvjIbYOYM8QPKKgPvVtP7sUMFPfXc8bN25Lyx4aqAiMjA6G665pbR4uF/dqX0GaEWAIgCS/UrAubrWvr+yQUoqUlcoXmqIB0h2EfDAuwTigwVv3DwZxibmbOMrlNHoa/39eyYXD/bz235FgCIAUvdGgMtsjpKarG2f+J1ogB03xAOkpwj4ZfFCuuHKocXfSsd3CjhfcOl+03/DTybC2deNhDefvyNUtxiSFQGKAEij6ubeYsOG3c+wOUrKDgkc/1cDPEB6i4AHHjC4/tOD4XM3FcPdvdNhctqZAo+U+GsUf60+e2Nx8WsXv7XBYKwIUARAZu4COMnGKKnLEZeGx9YVilsM8ADZKAIe7G6B+Nn1+MT6+Lfb8R0DM7PZu2Ugfg1j/Bv++A0M8RkL8R0UfsuvCFAEQIbvAmjq3RrvSjZGSefZAG2lYwzvANktAh6oPtcX3nHxzrDp6uHwH98bD9/6yUS4p286DJfmEn34YPw4xFBpdvHvEhce8d+t/YvD4R0X7Vz8Oxt6FQGKAODnh+829x9rU5SUPxZQ/LrhHUARsD8Fwes/vCOc9Mndi8/Ex48W3HDnRLh1y57w0217w/aRmTCxCo8ZlPfML/674z9D/GeJ/0zxLfzxnzH+s77+3B1O6kcRoAiA/bwLoOebNkRJfRray8+NBtcZwzuAImAp1Lb2hldu2hbedP6O8L7LdoWWzw4u3mIf/+Y9Xsxjl3xzLFx6w1i4/Nvj4Yqbir8i/p/F/7uPfmPs5//3bdF/Nv5nxP+s+J8Z/7Pjf0f8qkRDK4oARQAszSsBe2Zq1/c/34YoWXks4FyDO4AiABQBigDI7F0A63vPtxlKZrI2N/qUaGjdbXAHUARA2p1w9vYwOJ7NImB39Pc+vn2b6wB+3dCLT+l/ms1QsnY2wImGdgBFAGSlCNid0SLgJz3T3n4BD3BUS++7bYSSueRy4dBoYL3D0A6gCACPBqQ7p14x6BqAX7hn3VXhMTZCyebZAIWxF0cD64KhHUARAO4ISG/u7p32+cP9rwRs6auxCUq2HwtoG/9ifWE8ALDE8mOhujV+FrcHqCAnnL0tc0XA3PxCOCbf5/Mn86qbeq+xAUrm01AY/YNoWJ0ysAMoAiArXnPWtsw9GvC2C3f47Ml2AdDcO12b63+ODVAkLgLyxYJhHUARAO4ISG/ed9mAz51slwAt/e02P5H/ybEbBp5Qnx/vN6wDKALAHQHpzBs+vN1nTob1DlTlNj/J5ifyy2cDFMbfYFAHUASAIiB9mdo7H+pO7fV5k+US4E02PpEHJoRDoiH1BwZ1AEUAeDQgXfn+PZM+Z7J8GOBt8a5j4RN5sLMBNhaPiIbUeYM6gCIA3BGQjiwshPCOixwKSDYd1dwzX9vad6RNT+RhDwkc/w9DOoAiANwRkI5c9Z9Fny3Z1dT3GRueyCOktm3yd6MBtWRIB1AEgCIg2bmtY0+obXUWAJl9JeBk1cmdz7LhiezXIYFjTQZ0AEUAeDQguflx557QuEEBQKa12OxE9jPrcuFx0XDaYUAHUASAIkABAMl7DKCn98gP3nK4zU7kUaQuP/4qwzmAIgAUAbMKAEia9T2vttGJHNBjAePfMpwDKAJAETCrAICkaOm90SYncoBp3Dj659FgOms4B1AEgCJgVgEAlf8YwFxVrveFNjmRg0hDW/EjBnMARQAoAiq3CFAAwP13AfRfYoMTOdi7AXKlp0dD6YjBHEARAIqAyisCFADwc+MvWb/rd2xwIktxNkB+/P2GcgBFAFBZRYACAH7hqPXd/2pzE1miVOXCYdFAeq+hHEARAFRGEaAAgF+obu7dcsSl4bE2N5ElTG2+WGcgB1AEAL9UBIzOKgCgIl4J2P1yG5vIMqSuMH69gRxAEQCsXhEQFwANOQUA/PwugJber9nURJYpNfniH0fD6F4DOYAiAFj5IkABAA84B6C5Z99LW/qeZ1MTWcbU58fPNowDKAKAlS0CFADwIHcBNHWfa0MTWeYcd8bwkxsKxV2GcQBFALAyRYACAB7UUFWu96k2NJGVOBsgX3yHQRxAEQAsfxGgAICH0NL7LpuZyAollwuHRkPojw3iAIoAYPmKgNs7FADw4K8E7Lk73klsZiIrmIbC6N9HQ+iCQRxAEQAsfRGgAICHVtvUV20jE1mFRMPnFwzhAIoAYGmLAAUAPNxdAH1X2cREVu9ugD+IBtApQziAIgD4df909rYwMPboioBbt0wpAOAhC4De6Ze29D3bJiaymncDFMZPM4ADKAKAB/eKtv5wZ/f0Iy7/8wshfOEHxVDT6msGD6Wmpa9gAxNZ5Rx57vbDo+GzzwAOoAgAHuK3ly09ofVzu8NPeqbDXLzt/1Km9s6H7949Gd524Q5fK3gYR7X07qzKbX6SDUykAlLXNvbPhm8ARQDwyI7J94W3Rgv/+z8+EN503vZQd6pb/2G/tPa83uYlUikJ4ZC6/PjNhm8ARQAALLmm3h/FO4fFS6SC0thW/Oto8Jw3fAMoAgBgyR4DaO6Zr2rufZGNS6QCEw2dnzB4AygCAGDJtPR+yqYlUqGpbZv83WjoLBq8ARQBALAEJmqatz7TpiVSyXcDtBU/ZOgGUAQAwMG/WaN/vQ1LpMKzLhceFw2cHYZuAEUAAByEnrUXhMfbsEQSkIb8+PEGbgBFAAAcqNqWbcfbrESS9FhAYeybBm4ARQAAPHq937dRiSQste2jz4+GzRkDN4AiAAD2X/dsdeuOF9ioRBJ5N8D4hYZtAEUAAOyvo5r7LrZJiSQ0x2wqPi0aNEcM2wCKAADYD2NVGwZ+2yYlkuDU5cffa9AGUAQAwCO+ErC59302KJGEZ91V4THRkHmPQRtAEQAAD1MA3FeVC4fZoERSkIZ8scaQDaAIAICHLAHW973M5iSSpiKgMH6dIRtAEQAAD+IrNiaRlKV2U/E50YC515ANoAgAgF+8DaBnX9X63ufamERSmPrC2BkGbABFAAD8/DGAlv4zbUoiKc1xZww/ub4wNhAJAFS4/Giobu2PBrRuAFgW1c09g3Uf6v5Nm5JIms8GaBt9q+EaQBEAAFWtfW+3IYmkPLlcOLS+MH6b4RpAEQBAlvXcFe8GNiSRDKS2ffTIaLBcMFwDKAIAyKCm7oXq1t6jbEYiGUo0VF5hsAZQBACQyRLgShuRSMayNjf6rGionDRYAygCAMjUYYDTVbneP7IRiWQwdW3jOUM1gCIAgAyVAC09G21CIhnNkeduPzwaKHsN1QCKAAAyYUfDSXc/0SYkkuE0FEZfa6AGUAQAkH5HNXefYAMSkfiQwJsM1ACKAADSfBhgz61rQjjE9iMia+o2jv9VNEzOGagBFAEApPIOgPma5p6/s/mIyC/dDTB+mWEaQBEAQBpLgN7LbTwi8itp2DDxjGiQLBqmARQBAKRK+R9O3vL7Nh4R+fXHAgqjJxmkARQBAKTolYDNvSfbdETkQbMuFx5XXxjfapAGUAQAkIICoKmne+0F4fE2HRF56McCCmPHGqIBFAEApKAEWN9znA1HRPanCPiGIRpAEQBAkvV+z2YjIvuVuvzI86IBcsYQDaAIACCJumbrWrf/hc1GRPY79YXR8w3QAIoAABL4GEBL3wU2GhF5VDlmU/Fp0fA4bIAGUAQAkChjtet3/JaNRkQedRoKY/9ieAZQBACQIC0977HJiMgBZd1V4TENhbG7Dc8AigAAEuG+qlw4zCYjIgecxrbxaoMzgCIAgMpX09S11gYjIged+sLotQZnAEUAAJX8GED3l2wuIrIkqd1UfE40NE4bnAEUAQBUoKbuvdUtPX9mcxGRpbsbID/WbmgGUAQAUIGPAbT0nm5jEZElTVVu6En1bWM7Dc0AigAAKknPwD+cvOXJNhYRWfI0FMbfZGAGUAQAUDmOaul9i01FRJYnIRxSXxi/zcAMoAgAoBLOAui5PZ7RLSoismypK4y+KBoWFwzMAIoAAFb1MMCFmuauv7ehiMiypz4/9hnDMoAiAIDVU93U+zmbiYisSGoKI8+MBsUJwzKAIgCAVSgAmnsmq07ufJbNRERWLA2F8RaDMoAiAIBVeRQgZyMRkRVNVa73N6IhsdegDKAIAGBF9R35wVsOt5GIyIqnvjC6zpAMoAgAYOW8tKnnNTYREVnFImDs+4ZkAEUAAMvvqOaem2wgIrKqadw4/oJoQJwzJAMoAgBY1nMA5upa+/7KBiIiq383QNvYJQZkAEUAAMup6zKbh4hUxt0AudLTo+Fw1IAMoAgAYFmMv2T9rt+xeYhI5dwNUBj9V8MxgCIAgGWwvuckG4eIVFSqcuGwaDDcbDgGUAQAsHSqm3q2HnFpeKyNQ0QqLg1to/UGYwBFAABLp6a551ibhohU8GMBY18zGAMoAgBYksMAv2HDEJGKTuOm0p9EQ+E+gzGAIgCAA3dUc/e+2vWdz7dhiEjFp65t/FxDMYAiAICDeAygqfs8m4WIJCJrc6NPaSiM7TIUAygCADggQ1W53qfaLEQkManPj73LQAygCADgAB4FaOl+t41CRBKVXC4cWl8YvcNADKAIAOBRuWfdVeExNgoRSd7dAO1j/1BfGF2IBAAyJj8Sqlv74pOtAXgUalr6amwSIpLcIqBt9IuGYQBFAAD7o/tqG4SIJDoNhdE/iAbBKcMwgCIAgIdW3dw9XZvrf44NQkQSn7rCaN4gDKAIMOQDPEwJ0NrTZnMQkVTk2A0DT6jPj/YbhAEUAQZ9gAd9DGCgKrf5STYHEUlN6tvGXm8IBlAEKAIAft1LW3veaGMQkXQlhEOiAfAHhmAARYAiAOCXHgNo6r4tnpUtDCKSujRsHD4iGgDnDcEAigBFAEBXOKq5a762tfNIm4KIpPexgMLopwzAACgCAOI3AvR82oYgIqlObdvg70bDX8kADIAiAMi4iZrmrc+0IYhI+h8LaBtZb/gFQBEAZFpLX7PNQEQykXW58Lho8Osw/AKgCAAyqamrd+0F4fE2AxHJTOryI68y+AKgCACyeRZAxz/aCEQkc4mGvhsMvgAoAoBsPQbQc6NNQEQymdr20edHQ9+swRcARQCQkccA5qpbd7zAJiAi2X0soDBysaEXAEUAkA29H7UBiEim05grPb2hMDoSCQDwc/mRUNPaF6oXn50FSIXxl6zf9Ts2ABHJfOrzo+838AKgCABSranzgyZ/EZEoVblwWDTs3WvgBUARAKRRTXP3liMuDY81+YuI3H83QNtIrWEXAEUAkM67ALqPMfGLiDwgDYWRrxh2AVAEAOnS/VWTvojIg2RtvvjHDYWRvYZdABQBQErse2lLx/NM+iIiD3k3wOhZBl0AFAFAKqzvPMeELyLyMDnujOEnR0PegEEXAEUAkPDHAIaqcr1PNeGLiDxC6ttG327IBUARACRaa887TfYiIvuRXC4cWt82ershFwBFAJDMVwJ23R3PtCZ7EZH9TDTc/X1kwZALgCIASNbrALsW6lp6q0z0IiKPvgj4vAEXAEUAkLAS4AsmeRGRA8ja3OizouFu0oALgCIASMhhgNMNLX3PNsmLiBzo3QD50Q2GWwAUAUAizgJo6SqY4EVEDiJHnrv98PrCaJ/hFgBFAFDRWrp2VuU2P8kELyJykKkvjJ1gsAVAEQBUsqrm7teZ3EVEliIhHNKQH73ZYAuAIgCozMMAu38Uz6wGdxGRJUrdxvG/ioa6eYMtAIoAoMLMV7d2/F8Tu4jIEica6C431AKgCAAq6jDA5u5PmtRFRJajBNiw+xnRQFc01AKgCAAqxERN89ZnmtRFRJYp9YWxkw20ACgCgMq4C6D3FBO6iMgyZl0uPK6xMLrVQAuAIgBY3bcBdPasvSA83oQuIrLMaSyMvMIwC4AiAFhNtet7jzeZi4isWBEw+k3DLACKAGB19HzfRC4isoKpy488LxrkZgyzACgCgBU2W5vb/pcmchGRFU59YexCgywAigBgRbX0XGQSFxFZhRyzqfi0xsLosEEWAEUAsELGqjYM/LZJXERkldJYGPl/hlgAFAHAirwSsKXnvSZwEZFVzLqrwmOiAe4eQywAigBgeXXfV5ULh5nARURWOdHgVmOABUARACyr9d0vM3mLiFRKEVAYu84AC4AiAFiewwC7vmziFhGpoNRuKj6noTCy1wALgCIAWGL7qtZvfa6JW0SkwlKfHzm9oTASAOCg5YdDTWtvNPx3AhlX29JzpklbRKQCc9wZw0+OBrcBwysAigBgKdQ0dw/Wfaj7N03aIiIVmsb86FsMrgAoAoClUNXS8zYTtohIBSeXC4dGQ9ttBlcAFAHAwen+STxbmrBFRCo8R7ePHhkNbQsGVwAUAcABaepcqG7tPcpkLSKSkDTkRz5naAVAEQAc0FkATV1XmqhFRBKUmsLIMxvyI5Pxa54AYMlsHA41Lb3xbwmB1OraU3VK7x+ZqEVEEpbGwuipBlYAFAHAo9LceZpJWkQkgTny3O2HNxRGeg2sACgCgP20o+Gku59okhYRSWgaCqOvNawCoAgA9kdVU9c/maBFRJJeBORHbjSsAqAIAB7BrWtCOMT0LCKS8NS3Db0wGtTmDKsAKAKAhzBf07z170zOIiKpuRtg9GMGVQAUAcCDHwbY/XETs4hImkqADbufEQ1pRYMqAIoA4AHK9Sdv+X0Ts4hI2oqAwvBJhlQAFAHAr+r5d5OyiEgKsy4XHhcNaFsMqQAoAoCf6eqOZ0STsohIWu8GyA+/3IAKgCIAWLS+8zgTsohI2ouAjcNfN6ACoAiAbKtq6vyeyVhEJAslQPvIc6PhbMaACoAiADJrtq51+1+YjEVEMpLG/Mh5hlMAFAGQ1ccAus43EYuIZCjHbCo+rTE/PGw4BUARAJk7DHD4xaf0P81ELCKSsURD2bsNpgAoAiBjZwG0dL7HJCwiksGsuyo8piE/epfBFABFAGTmLoB74xnQJCwiktE0njZcbSgFQBEA2VB7ytY6E7CISMZTnx+5xlAKgCIA0q2mqetak6+IiKxpyBefHQ1k04ZSABQBkNrHAPbWntL/HJOviIgspnHjSJuBFABFAKT0LoDm7k0mXhER+XmqckNPioaxnQZSABQBkLq7AAb+4eQtTzbxiojIA+8GeKNhFABFAKTslYBNXW826YqIyK8nhEOiQexHhlEAFAGQkscA1nfdHs94Bl0REXnQ1BVGXxQNYguGUQAUAZBw6zsXals7jzThiojIw6Y+P/JpgygAigBIegnQ/VmTrYiIPGJqCiPPjIawCYMoAIoASOhjAE2dk1Undz7LZCsiIvuVaABrNoQCoAiAxD4KcKqJVkRE9jtrL+h8fENhpNMQCoAiABL3SsDeIz94y+EmWhEReZR3A4y+2gAKgCIAkuWo5s51JlkRETmwIqAw8i0DKACKAEiI5u6bTLAiInLAadw4+ufR8DVrAAVAEQCVfg5A11x9rveFJlgRETm4uwHyo5cYPgFQBECl3wXQ+TGTq4iIHPzdALnS06PBa9TwCYAiACrW+EvW7/odk6uIiCzV3QAfNHgCoAiAylTV1PVvJlYREVmyVOXCYdHQtdngCYAiACpLTXPXliMuDY81sYqIyJKmMT9SZ+gEQBEAlaV2fffLTaoiIrIsaciPfs3QCYAiACrkLoBTur5uQhURkeW7GyA39CfRwLXX0AmAIgBW3b6XtnQ8z4QqIiLLWwRsHD7HwAmAIgBW+S6A9Z0fNpmKiMiyZ21u9CnRsLXLwAmAIgBWS9dQVa73qSZTERFZkURD1jsb8sMBACrOxqFQ09ITLUkdkFpVzR0nmkhFRGTFksuFQ6NB6w7DJgCKAFhZNU0dd6+7KjzGRCoiIiua+o2D/xANWguGTQAUAbByapu6qk2iIiKyKmnMj1xl0ARAEQArdRdA5xdNoCIismppKIz+QTRkTRk0AVAEwHLrnG5o6Xu2CVRERFb5boDhjYZMABQBsMx3AbR0FUyeIiKy6jny3O2HRwNWvyETAEUALJudVbnNTzJ5iohIRaR+48jrDZgAKAJgeRzV3PkGE6eIiFROQjikMT/8AwMmAIoAWHK3xbOWgVNERCoqjW3Dfx0NV/MGTAAUAbBkhwHO1zV3vsikKSIilVkEFEY+abgEQBEAS6Sl6z9MmCIiUrGpbRv83WiwKhkuAVAEwEGbqGne+kwTpoiIVCKBQfAAAAeGSURBVHQa8iPrDZYAKALgIDX3NJksRUSk4rMuFx4XDVUdBksAFAFwYKqaOnrWXtD5eJOliIgkIvWFkVcaKgFQBMABWt/xKhOliIgkKg35oRsMlQAoAuBRvxHgRpOkiIgkLmvbR58fDVSzhkoAFAGwv3cAdM5Vt/a8wCQpIiLJvBugMHSxgRIARQDsr+6PmCBFRCSxacyVnt6QHxoxUAKgCIBHNF61YeC3TZAiIpL0uwHeZ5gEQBEAj/BGgPWdHzA5iohI4lOVC4c15EfuMUwCoAiAh3TfEZeGx5ocRUQkFak/baTWIAmAIgAewoc6jjExiohIqtKwcfgrBkkAFAHwq2qaO643KYqISOqyNj/4x9EQtdcgCYAiAH5uX9X6rc81KYqISDrvBsgPn2mIBEARAP9j/dZzTIgiIpLaHHfG8JOjAWrAEAmAIgCPAXQNVuV6n2pCFBGRlN8NMPQ2AyQAigAyXwK0dL3DZCgiIqlPLhcOjYanOwyQACgCyGwBsL7zzngmMhmKiEgmUl8Y/ptoeJozQAKgCCB7Oudrmrv+3kQoIiKZSmN+6CLDIwCKALKn+yKToIiIZC5rc6NPiQanHYZHABQBZOgugN0OAxQRkcymvjC0zuAIgCKArDiquXOdCVBERDKdaGj6msERAEUAqT8M8JTOr5v8REQk86kpjDyzIT80YnAEQBFAaguAps6RqpM7n2XyExERWbwbYOR4QyMAigBSaX3HQuRVJj4REZFfKQKGLzE0AqAIIG2qmrs+atITERF5QKpyvb/RkB+5x9AIgCKAFLnviA13PMGkJyIi8iCpbxt6YTQw7TU0AqAIIAWvA9xb3drzAhOeiIjIw6Rx48gbDYwAKAJIvq53muxERET2qwgYPsfACIAigOQeBrj1HBOdiIjIfiaXC4dGw9L1BkYAFAEk7iDA9R3fXndVeIyJTkRE5FHkuDOGnxwNS5sNjAAoAkiKmuaOLVW53qea5ERERA4g9fmhP23MDw8bGAFQBJCAMwCGqk7p+hMTnIiIyEGkcePgC6JhaczACIAigIq9A6Cpo1TbuvVvTW4iIiJLkKM3jh4ZDUuTBkYAFAFU4KsA99S1dFaZ2ERERJYwDaeN1kfD0l4DIwCKACrIvprmzmNNaiIiIstRBOSHXh0NS3MGRgAUAVSA2aOaO9eZ0ERERJYxjYWRV0TD0rSBEQBFAKt5B0BV09Z/MpmJiIisRBFw2nB1Q36oHAkAkCobB0NNS3e0ZG6lQtU0dUxVr9/6MhOZiIjICubojSN/Gw1LIwZGABQBrKDxuuatLzaJiYiIrELWto8+PxqWdhgYAVAEsOyaOwbrc70vNIGJiIisZhGQG31WNCzdYWAEQBHAsj0CsH7rPQ0tW55t8hIREamANJy1+4kNG4euNjACoAhg6XVc03DS3U80cYmIiFRSQjikMT/0oWhgmjc0AqAI4KCt71ioXr/1nHjGMGiJiIhUaI7OD77KmwMAUARwkMq1Lb3Hm6xERESSUATkdv1RNDD90NAIgCKAR38HwNY7qk/e8mcmKhERkQSlKhcOa8gPboiGpjmDIwCKAPbj9v+5+Pb/Iy4NjzVJiYiIJDR1hd0vaigMdRscAVAE8DC217V0VpmcREREUnFXwPhTo6Hp45EFwyMAigB+6eT/+ermrR+vyvU+1cQkIiKSursChl4cDU73Gh4BUARQ09Tx09rWrS8xIYmIiKQ48XN+9fmh90fD04QBEgBFQCZ/+z9d09JRWJcLjzMZiYiIZCS1ud3Padg4dLVHBABQBGTm4L+FmqaOa2taOv/YJCQiIpLRHL1x5G8bC8PfMUQCoAhIr6qmzu9Vt3b8X5OPiIiILKYxv7suGqLuMEgCoAhI0XP/6zvurD1ly9EmHREREfn1hHDI0fnBV0WD1K2GSQAUAYm+9f9HVeu3vDr+/+0GHBEREXnENGwcPqI+P/zpaKCaM1QCoAhIyOv+1m/9Rk1zx0tNMiIiInJAOTo//GcN+cFLoqGqbLAEQBFQkcpVTVsvq1q/9bkmFxEREVmSVOV6f6O+MLQuGqyud3cAAIqACvitf1PHrdXNnf9Sldv8JJOKiIiILFsa8ruf3ZAf3NBQGOo0ZAKgCFjRZ/07a5o78g0tW55tIhEREZEVT21u93Pq80Pvb8gPfzsatmYNnAAoApb8N/4/qWnpKNQ0b/07k4eIiIhUTiHQNvi79RuH3x4NXJ+P7DB4AqAIOCADNU0dX6xq6XpX1b9v/j0ThoiIiCQi8WMDjYXBNzQUBi+t3zj4U2cJAKAI+LXb++eqmzruq27e+vGqpo43156y9TkmCBEREUlFjjx3++GNbcN/Xb9x8PUNG4c2NeYHvxwNZV0N+cF9hlMAUl4E7Ktq2toTLfxfrW3pOrOquetN1a1dRxz5wVsONyGIiIhI5hI/SnB02+Bf1ueHXtaYH3pLfX64NfqvT28oDF0c30nQmB+8IvqfX9VYGPrmz84fAIADNfjtmubu71U1dR6c9Vu/XdPUcW3kqurmjsurm7ouqV6/9Zzq5q2nRf/7t9c0dx5b3drzArf0i0il5P8HdnU4ne2AY+8AAAAASUVORK5CYII=;" vertex="1" parent="1">
                    <mxGeometry x="520" y="294.25" width="66.26" height="59" as="geometry"/>
                </mxCell>
                <mxCell id="44" value="" style="shape=image;imageAspect=0;aspect=fixed;verticalLabelPosition=bottom;verticalAlign=top;fontColor=#000000;image=data:image/png,iVBORw0KGgoAAAANSUhEUgAAAgAAAAIACAYAAAD0eNT6AAAACXBIWXMAAAsTAAALEwEAmpwYAAAAAXNSR0IArs4c6QAAAARnQU1BAACxjwv8YQUAAC8dSURBVHgB7d1PjF1Hdt/xU/e92xLNpuYRcGQPYmQeFzaQRaCmIw6MIIFeU5SMAQKIjB3AYwdgM0E2yYJkVpmhGDYhS8rGYHPlJZubjJE/Zms1iESyH3fOjMZ8gwABjBjgUzKBZqQ4bA3JEafvu1Wput1NtSiy+f7cP1X3fj+A0i2KUjwku8+vTp2qEgEAAAAAAAAAAAAAAAAAAAAAAAAAAAAAAAAAAAAAAAAAAAAAAAAAAAAAAAAAAAAAAAAAAAAAAAAAAAAAAAAAAAAAAAAAAAAAAAAAAAAAAAAAAAAAAAAAAAAAAAAAAAAAAAAAAAAAAAAAAAAAAAAAAAAAAAAAAAAAAAAAAAAAAAAAAAAAAAAAAAAAAAAAAAAAAAAAAAAAAAAAAAAAAACABlECIFgf936nu/XZqBu1TEcZ+5dEHS3ScT+qRH1j9883Stl/bjpP+m8ZURv239949AORbBhtPtv61H4uesP++xs6VRst+3NTaW18vf8XQwEQJAIA4KE7vYXO8/J8J2olC66oG4m6WTFX0rX/uOuKuC3YHfGA/b/FBYOhTRAb9q+hEfORCwwjLQMXFF7s/3AgALxDAAAq5FbwrshHRnVtQX/JLrUXbBF1hb0rNZKFBFED+8lAafMR4QCoHgEAKIFb0c9Le8EV+J1Cb1f2XV9W8VV5FAxEhvbX48cuGDyU0eBQf7AhAApFAAAK8EnvyIKKTC8r9kp6UrMVfeFsp8AYNYyMvmW06tMpAPJHAABmtLO6N231hm3fL9hV7ULTV/Z52+kUGGNuaS19ugTA7AgAwIS+aOdHrxhlevaHeoIq9HcCwdf7H/YFwEQIAMAY3LBeOxodN0q9wQrfP65DoCXqK2PeS3ViA8FgKAD2RAAAnuLT3su97bb+cWEPPyxK3MxAPx2Z9+gOAE9GAAB22Sn6diW5xCq/NobiwkBqrhIGgC8QANB4FP1GGQphAMgQANBIFH3IdhiQVC5zzBBNRABAY2TT+9HcaaOM29NfEOAL7irjiwwQokkIAKi9bLXfUheE43oYg+0IrYmkV3/txo/WBKgxAgBqaWe1L0qfocWPKQ2VUasjvXmVrgDqiACAWmG1j4KsMjiIuiEAIHhutb8/io/bP80nhcKPYmWzAi/e/OGqAIEjACBYtPlRIYYGETwCAIJD4YdHhpLdK5BcJAggNAQABOPj3kK3Hc2dpPDDU6sEAYSEAADvucLfasVusG9JAP8RBBAEAgC8tdXqjy8YJWcECA9BAF4jAMA77PGjTpRRy9wlAB8RAOANCj9qbKhNdPnXb/63FQE8QQCAFz45emTJ/ml0+/xdAeqLewTgDQIAKsXNfWioYZomi2wLoEoEAFSCyX4gw6AgKkMAQOk+PfrNC+zzA48wH4BKEABQmu12/xVhnx94kuFmKid+o//DgQAlIACgcJznBybCtgBKQQBAodx0v1LmEu1+YCKcFkDhCAAoxPaQn2v39wTAtOgGoDCRADn7m1ePnG632reF4g/MaskG6fXsngwgZ3QAkBtW/UCh6AYgVwQA5OJnr37zeCT6Cnv9QKGYDUBuCACYCRP+QPmUkpX7o+Tiof5gQ4ApEQAwNc71A5XiOmHMhCFATMUN+tnivy4Uf6AqbubmTnazJjAFOgCYiGv572/F14RBP8AbRtSaTjfP0g3AJAgAGBstf8Brw81ITvzGB1wljPGwBYCx0PIHvNed03KbLQGMiw4A9rTd8r8kPNsLBINTAhgHAQBPtX2xD6t+IEycEsCe2ALAE7n9/u3rfLsCIERZgP/Ja0cWBHgCAgC+Yme/n1v9gOAxF4CnYgsAX/Lp0SOXuNUPqB9l1PLfuvmDiwJsIwAgw/l+oP7cfQG/SDdPMRwIhwAAhv2AZmE4EBlmABqO4g80TvY1/6dLl7qCRiMANNgnvYUFJv2B5rn19d/t/qff/Je3e2/f54RAgxEAGur/vvrNk9KKbzPpDzSLLf7yp3/337pPO7YA3O698/lJQSMRABrIHfPTYlYFQKPsKv6PRCZdPfrOfU7+NBABoGE+PfbyhVRkRQA0ypOK/yNGLh199wF3BTQMpwAaxBV/Y9SyAGiUPYv/bpFavvmd/dwV0BAEgIag+APNNHbx30EIaAwCQANQ/IFmmrj47yAENAIBoOYo/kAzTV38dxACao8AUGMUf6CZZi7+OwgBtUYAqCmKP9BMuRX/HYSA2iIA1BDFH2im3Iv/DkJALREAaobiDzRTYcV/ByGgdggANULxB5qp8OK/Q8nZm9+d5yKxmiAA1IS725/rfYHmKa34b9OqtdT/7r6rguARAGrg097LPdNS6wKgUcou/ju0Nov98wf6gqARAAL3cW+h65705VU/oFmqKv7bNrTIYv/c/EAQLB4DCpgr/q1WvE7xB5ql4uLvdCJR13rLd7uCYNEBCNRO8befdgVAY3hQ/HdRQ51sHu4vH9wQBIcOQKBa7fiaUPyBRvGr+Dumq+ay70UIEAEgQJ8ePXJJjCwIgMbwr/hvUUZ6R9+5f0kQHAJAYLKz/krOCIDG8LX4P2LkzNF3H1wQBIUZgID87NVvHldiaLcBDeJ98d+F44FhIQAEguN+QPOEVPy3begkcUOBQ4H32AIIwJ3eQofjfkCzBFj8nU4Uz633lu/yvSoABIAAzLfaV4SJf6AxAi3+20w3mpu7IvAeAcBz2dCfqOMCoBHCLv7bjDnOUKD/mAHwGHf8A81Si+K/C0OBfiMAeIqb/oBmqVvx38ZQoMfYAvAUN/0BzVHT4u901FzMPICnCAAecvv+3PQHNEONi3+GmwL9xRaAZ9j3B5qj7sV/N+YB/EMA8Aj7/kBzNKn4b+HlQN+wBeARW/zdsZmuAKi15hV/h/sBfEMA8MTfvHrktP2wJABqrZnFf5u7H+Cd+zxm5gm2ADzAPf9AMzS6+H+Bo4GeoAPgAXfkj+IP1BvF/xGOBnqCDkDFsqt+jVoWIG9GNuxX+Ib9xA1dbQ1eGTXc899Rprv9mQ2kNpQa+1EJ4XRGFP8nUHL25nfnVwSVIQBUaHvq/44A0xkqMQMbIDe0mB9HojdEtwaptDa+3v+LoeTo497vdKU96kbG2FCgFoxSnUjMS+5zAsLeKP5PxVZAxQgAFfrk1SO37Qcu/MHespW8GWpRtyKTDlyRfyD7h4f6fS+OU93p9TrPt+8vKG3/LCvVzYKBqJ6A4v8MRkl//bvzi4JKEAAq4qb+UxHaX/gqW/CVMv3UyC0TyeDhaH7gS7GfxMfHXu65UNBS8ortUvSa1img+I+JrYDKEAAqwNQ/vsr07Wrolhbpf/36h32poZ1AECl5o+4dAor/RNgKqAgBoAK29e8mYJcEzbXV1h+I0Vcf6BfWQlzhzyKbKYjSXluZN2wQPi41QvGfHFsB1SAAlOyTo0eW7K86R2Aay/SbWvSfJpshiB4cr0MYoPhPT2l94sb5F9YEpSEAlOhOb6GzvxW7wb+uoEFMXxt573M9v0rR39tOZ6ClzGn77SmoAVmK/6x4K6BsbUFp5tvt08ZQ/BvBtvi1kqtGmbW67ukXYfv44qr765PekQXTkjN2lXJSPEfxz4N7KyB7D+WsoBR0AErCmf+GsIXfRObyL0bzK6z28/GoKyDqwq6LirxB8c+XTpJDDASWgwBQEgb/6s4d21NXv37zh6uCwnx89MiST0GA4p8/BgLLQwAoAYN/dWYLv5KLtPnL5UMQoPgXR2uz2D9/oC8oFAGgBHb171r/XUGNUPh9UFUQoPgXjYHAMvAaYMHcjX9C8a8NY9QwNXLqxRsfLlL8q+e2XF68+YND7vfkmQ8d5YTiXwbTjVrtM4JC0QEo0Pbg37oQAMLHcF8Qfnbs5WWlo5NFdQQo/qXa2B4I5OutIHQACmSLvzvS0hWEbvWB3n/o165/uEzx95v7PUp1tGhErkrOKP6l69AFKBYdgIJw7K8O1CBV+iyt/jD9pHdkYS5S1/LoBlD8q8OxwOLQASjI9uofIXLtfmUuvnjjB4cp/uH6jf4PB24+wP1eygwo/tWKYr6XFoUOQAFY/YfM9NO0fWr7RjrUhLtMqBXp9Um7ARR/P3AssBh0AArA6j9MWpmz2XQ/xb923O/ppN0Air8/VEvxPbUAdAByxuo/PO5on9LmxIu2ZSyovXG6ARR//9AFyB8dgJyx+g+LFrn8C/0rhyn+zeG6AbHePPy0kwIUfz/RBcgfHYAcsfoPiHutLzIXf/36hyuCxvrp0ZfPREpd2vl7ir/f6ALkiw5Ajlj9h8G1/O3Sf5Hij1+/+eFKmrYOuVsEKf7+owuQLzoAOWH1HwrTf5DOn+BCH+zm5gL+2evXrxgjPYHX6ALkhw5ATlj9+8/t97spf4o/HufmAm64J2j1bHcGoHh0AfJDByAHrP79Z9v+F3/t5g+WBXiGo2/dW5aIIuMzbgfMBx2AHLD695iRDfvXKYo/xnXz/IFlLfqU/ZROkad4IyAfdABmxOrfY674a1nkiB+m0Xv7/oJdIbnXPDsC3/BSYA7oAMyoFcU9gXfcpH+qW5zvx9T65+YHOkrcfQFDgW94KTAHBIBZKaH97xlX/LWOuNIXM+t/5+DQRMkiIcBDkTrdW75Ld2YGBIAZfHL0yJL90BV4g+KPvBECvNWJ4vi4YGptwfSUOdmkMQr1XCpqX5p9Hn1t84sfez7d898zD1tiftl69Pf6s7mtjxtzkieKP4riQkDv3buLouN1Rej3hlFivwfLqmAqDAFO6Se9IwtzLbktNRF1NrOi/qW/bHF3H12B3yn4edsJBy4UuM/dx9T+lf29/fH0p/u+FB6e+t+h+KMENgR0FSHAK1wMND06AFOyxf+0BMgV+vbfuf+oyMf283FW8UVx//8+K2C4YJB+si8LBunP9m19visYUPxRlp1OgA0BLvyz/+yBqBW578V9wcToAEwhlKN/O8W+/eLnj4p+VYW+CDvBQI1krXXo3uX2/dFAneDsNorHEUGvcCRwSgSAKWTDf0quiGfa37gvLVvs3areFfw6FfsJDJSSgU7lVpom/X3fYnALxei99fPjURRdE1RPm4vuAifBRAgAU/jk1SNu9d+VirkVfvybnzW94O9JucltZduDRr/Xupf26RAgT0f/+P4Z++frkqBSStTgxrn9hwUTIQBMqOrhP7fKn3NF/7c+K2wwr+b6qZH3zChZozuAPPB2gB8YBpwcAWBCdvXvWv9LUqKdoj/39/4fq/x8DVx3wKRyde71hBsDMbWj7zy4JsZwJr1K2ly22wDcDjgBAsCEymr/U/TL5bYKRkYu0xnANNyNdCqOb3M8sFIMA06IADCBoof/3HG857/5qTz38qcU/Wr1jZar8YNkjZkBjMvdERBxPLBaqZy6+e/mVwVj4SrgCShl3pACuNX+gT/6a+n8m/8uz//Dn1L8q9dTkVwZHWjfGd2Ir2y+Hy8I8AzujgCts2eEURHTzm4GxJjoAIwp77P/rPaDk3UF5l5PVgXYw9G37q24h2oElbDbAAfZBhgPHYAx5fXsr1vt7//H/4vVfni2ugLX4zub1587/fn32evFk7lBNOMGTFGJqB0vCcZCABhX9vDP9Hba/Af+8K+zwT6EyX5j7yrRK+04zrYHCAJ4EhMlJ+wHVqEVMJEUslVbR2wBjGGW9r8r/PvsSt9d1IN6UkpWk83kIqcHsBuXBFWHbYDx0AEYwzTt/90rfop/vRkjS3QE8Libb86vKMUjNVVgG2A8BIBxTND+p/A3F0EAj0tV4k4FsBItGdsA42EL4BnGbf/T6sdXKFkZbSaX2RpoNrYCqsE2wLPRAXiGZ7X/3XE+N9XPih9fYeRMHMfrm+/TjmwytgKqwTbAsxEAnuFpl/+4wr/vH/1Uvvav/gdT/Xiq7NTAzvFBgkBjsRVQPrYBno0A8CxG9R7/Idfuf+Ff/BXn+DG2R0GA+YBGcrcEusdqBKVRRhbcGw2CpyIA7OHjYy/3jPriXm/3/O78793J2v08xYtpbA8K3k5uzPF8bMPodLRig+BQUJaOtNpc470HAsAeWkY9mv5/7sin8sI//yuJf+szAWbUsUlg2W0L0A1oDjeQZrQ+KyiNLXA80bwHAsAelJgFt9J3x/p+5dj/od2PXLltAXdskG5Ac/TPv7DGQGCJoog5gD1wDPAp3PG/X/mdjTv72OdHCewX4jBJkkWODNZf7617vShS64JymP3dm2+qjwRfQQB4AteWtSuzK/bTngBlUmo5fnXzoqDWXn3n/roxfH8phVJrenPzrN2CGQq+hC2Ax4z+69zxdty+LRR/VIHZgEZIjTALUBZjjkfx3PrRt+8vCb6EALDNXJNOciO+ZFr2M1EcHUFl3GwAFwjVW//c/MAYfVVQEtO1/8+Vo+8+YN5mF7YAZLvl346v2V8NjozAL0pW4lcTVos11Hv3bjfS070yilmooU42F9kSIACIbbeeNGJWWPXDVwwI1hezAFVRQ9sVuHjz3PyqNFijtwCylr/IKsUfPtvZEhhdb3GmuWbS1DDwWQm2BJxGdgDcfv/ogG35M+iH0HBKoHboAlSswacEGtcBcPv96YGYKX+EyZhl17kS1AZdgIptnxLoLd/tSsM0qgOQfNDu2f/FTPmjDgajJDnBXEA9LL59/479ZtwVVEgNtdan+ucP9KUhGtMB2Lwen7atnnWKP2piwc0FcF9APShtOBJYOdN1NzQefef+GWmIRgSA5Eb7gk3XKwLUyK77Aji+Gjj3UqD9sCGonpFLTRkOrH0AcO+vi1HLAtSQCwEqktvuOKsgWO6lQKEL4A9tlm0noPazNrUNANmkvy3+7v11AWrOHWflVcGwaZE1gT+MnDn69v0rUmO1HALMiv98vM7NfmgcjgkGzRacu/YDc0oesUVykCbJYtalqZnadQAo/mi07JggnYBgaXNZ4BXbXVtoxbE7Jli7YFarAPDojD/FH01GCAiWbo9WBd6pawioTQBwxd9NRBvO0gKEgED1v3NwqJT0Bd6pYwioRQBwbX+KP/AYQkCQTGpuCbxUtxAQfADY2fOn+ANPQAgIDtsAfqtTCAg6ADDwB4yBEBAUtw1gPwwF3toJARK4oAPA6IX2FYo/MAYbArgsKCDavCfwmgsBod8TEGwAyF5EM4r30YExucuCRtdbfM0EgEuBgrEU8o2BQQYAd7e/u6VJAEzESHSFtwMCkI4GwtsAYXA3Bgb6dkBwASB71Y+7/YFpdaJIrvGKoN/crXNKyUAQhq23A4JblAYVAJIP2j1e9QNms/OKoFnnylmfpVqYAwiJkUu9t+71JCDBBIBsxaLkmgCYmQsBozTm68lnxtABCEwUqWu95btdCUQQAWDnlj8RxYoFyE8vG6aFn5gDCFEniueCuSMgiADQjuMrXPQDFMDImYcfPMdArYeYAwiV6aq5MLpr3geAbOLfrlQEQCFaSl/gZICfTGp+LAiOMtIL4WSA1wHAflNaYuIfKFx2MoChQA9FzAEES5vlV9/6udf3bngbANy+v4oM+5NACdwWW5oyD+AbHaV9QbBMFF3xeSjQ2wDA0B9QIiOD1r39ZwVe2X4XgEHAcHVacXzN16FALwOAm0xm6A8oiS3+7fv7F9WJDQqNhxQPAwXNvRkQzcVezgN4FwC29v255hcoBcXfe9poBgFDZ2uaj5cEeRUA3L5/FAnPlgJloPgHQRk1FATPx0uCvAoAsW2T0PoHSkDxD0dkhoI66Ki52Kvng70JAO6RH2NkSQAUi+IfFC0pRwFrIrsfwKNHg7wIANmRPzHLAqBYFP/wRJwCqBUjF3zZCvAiALirfjnyBxSM4h+k7aOAqA9vtgIqDwDZ1D9X/QLFoviHbiioDV+2AioNAEz9AyWg+AdPcRlQ/WxtBVTa+a40ADD1DxSM4l8LRjgJUEOdKK72+u3KAsDoeus4U/9AgSj+tWGM+UxQR0tVXhBUYQcg4uERoCgU/1pRRvH7WFNRFFU2EFhJAEhutGn9A0Wh+NcRv5e1ZbpH37q3LBUoPQBkZ/6NWhIA+aP415JWdABqLVKnqxgILD0AMPgHFITiX1uR0vye1lunihcDSw0AbvXP4B9QAIo/EDb3YuDb9xekRKUGgNjTN5GBoFH8gVpQSkodji8tACQftHus/oGcUfyB2nA3BJZ5LLC8DoDixj8gVxR/oHZUS5VWK0sJAFv3/aueAMgHxR+opTK7AKUEAO77B3JE8QdqrawuQOEBwK3+OfYH5ITiD9ReWV2AwgOAisxJATA7ij/QGGV0AQoNAG7yn71/IAcUf6BRyugCFNsBUHJaAMyG4g80UtFdgMICgLv1z/6ff1wATI/iDzRW0V2AwgIAt/4BM6L4A41ni3RhC+lCAgB3/gMzovgDcCJ1sqiXAgsJAK1W3BMA06H4A/hCJ2q1z0gBlBRgdD2+w9n/+lFKhsaYgdHqI2npQWRkI0nigftn+771cPi0f+/z7z/fbbdHXfd5KmrB/ntdFZmX7N8u2P9q6W9ge43ijzFkK8I47oo2nSgy9qPqShS9ZL8+u/brtNQX5VCKjZvn5g9KznIPAKPrreNGomuCGjB9W5Bu2U/67fvzgyKKkgsHcZwsaB0djyJ5pdHBkeKPHGThoNVesO3dnlLqFaOkJwie1maxf/5AX3KUewBIrrevMf0fKuMKz8AoczX++YG1KgqRCwSqnR5vKfNGo+6QoPijIC4QRHFsvycr+zVl+N4cKBvk+uvfnV+UHOUaANzwXzuO7wgCY/qpUe89d3//qk8FyIWBVitdrn1ngOKPkuyEAWXkJJ2B8OgkOdhfPpjb94lcA4C7919FckUQALOhRK3ZPcOr8Wujvnhu68+WOW3/yNZrf5Pij4r03r3bVWlrWamI69pDoc3Fm+cPLEtOcg0ADP+FwLb5jVy2e/orIRad7Hpp5V6XrMH2AMUfHiAIhMMu2gY3zu0/LDnJLQBsfWNW6wJv2d/s1SRpXdxrYj8UriPgnpkONnBS/OEZgkAY8hwGzO0eABUp/tB4y03zm8X2seRUHYq/M/d6smr/9xwyWk7ZYDOUkFD84aH+dw4O1998YUlH9usqtK+pBsnzZsD8LgIyDJT4x2wYI2fjY6PFEPb5p+GCgO1qLNogcFVCQPGH57IgcG7+kP2zetb+LX9OfZPjYjuXLQDa/z4y/VHSrs2KfxzebwtQ/BGYbFtAx9eUcLmQT/LaBsilA0D73zuX3aq/ScXf2ekG2E8H4huKPwK03Q047KbPBd7Iaxsgny0A2v+ecBP+ZjE+lhRyb3QIXOix//sP218Hf75hUfwROHf0TGt9gtkAT+S06J45ALj2P0f/qucG4WzL/3Bd9/onZX8dls3WHma1KP6oif75F9ZMlCwSArzQ6b11ryczmjkAGFXcW8UYky0yrXv7Dzet5f8sc68lK64jIlUNMlH8UTNuS2A7BPi3zdYw7q0HmdHMAcCuPF8RVMisUWSeznVEjJbF0o8KUvxRU1kISJJFUWpNUBnTUjPX3plOAXD3f7VsCr86dyxZEjzT1quD6Xop21UUfzTE4h//fJWLg6oz69sAM3UAWq24J6iIWaP4j89tj2yfECi2KFP80SDu4iClpC+oRBTFM23BzxQAVOSebEXpXJG5N39KMBEXAtx2gBQVAij+aKB0MznBTEBFZtwGmC0A1O1ltgBk0/6j1gmKzHTmXk8GNgTkfzqA4o+Gci1oNxPA6YAqmGo6AJvvxwsc/yuXK/6ujc20/2zchUG53hNA8UfDZSEgSqo7cdNcnaN/bL4hU5qlA8Dqv2ypOkvxz0d2T4Dk8H4AxR/IuNMBWpsTgpI9mPrXfOoAwP5/yYy62P7dTY7d5ChuJWdmOh5I8Qe+JLufXpvLgvIo9ZJMafoAwP5/aVyRil/bXBbkSi3KhtYyXXqm+ANPdPP8gTOcDChVT6Y0VQBw5//Z/y/P9vE1FMANBepJ5wEo/sCeUpW4U0p8fZTCdKedA5gqAMRxi9V/WWzrn33/Yj332mhZxj3GRPEHnsnNA9ivFV4QLIt+MNUicaoAoEX1BIWj9V8iY559NJDiD4zt5pvzK2wFlESZqRblUwUAW5imHjrA+Gj9l2frFcU9hpco/sDE0tSjZ7lrzLSmGwSccgiQAcCi2ZC1Suu/XO1WthXw1QJP8Qem4k4FGKNnP26LPSkj5XQA3ACg/dARFMqu/knOJctOBZjHugAUf2AmppUuC4o21YVAEweAdrvdFRSK1X915tqjFdnpAlD8gZllzwfTBSicNvcOy4QmDgAp7f/CsfqvzqMuAMUfyA1dgOJFKurKhCYOAC1lZnp9CHtj9V891wWg+AP5yY4FiuEm0yJNcSNgWybH/n+BHmrhGs2KuS4Ad5gA+dL2e1sUyUyv1+HpjEx+FHCKUwBsARRoMP96wrvaAGrHnQjgXoDiqClu550oAJj1bPVPB6AghtU/gBpLtbwnKEqnt3x3ovo8UQAYjdqs/guUpq2+AEBdjZJVYX+tOHHcneSnTxQAlDKs/guijXqP4T8AddZfPrhhtwHY5ixIlE52IdBkHQAz+TEDjEcZJmQB1B/bAAWKpLgtgEiZrqAQtP8BNMLWNgCKYCar0ZNtAYhM9eYwnmlA+x9AE2TbAMI2QCGi6GsT/XSZDDMABTAitwQAGsJow/e8ApgiOwBCACiESXVfAKAhlJi+IHdKqe4kP3/CADDZfxzjmZtL+wIADZGmfM/zAR2A6m1sXT0LAM3g5gDsh6EgZwVtAWzfAoj8MQwDoIEM3/sKMMltgGMHgIcPnycAFMCI/FgAoGm0fCTIXdTujH0SYOwA0GqlBIACaEMbDEDzaKWGgkqNHQC4BrgYSuuhAEDDtAzf+4qgzf1D4/7cKZ4DRp6iSDEACKBx0igdCipFAKhYO2rfEQBomojTT1UjAFQteviZAEDT/JIAUAyT/ykAE/EQUBG4AwBAE23fBYCcRSbKPwAAAID6IAAAANBABAAAABqIAAAAQE1opceerRj/IiDNrU1FMDee/4YAQMP03r3bFRRA5R8AAADIjeaBuaoRACo20qOxr20EgNrQbQJAxca/B8BwZW0RjOF+BQDN0xLel6na2AEgTVsEgAIYpboCAA1jRC0Ichep+bGvl2cLoGItpRgCBNA8kbwkqNTYAWDftx4OBbkzIqRgAI2jlGILoAA331QfjftzJ+0AsA2Qv64AQMMYIz1BpSYKAEoRAArQuf9+TBcAQGP03r7L97xCTHZfz0QBwBhDAChAW5GEATRHJCx6imBr9HCSnz/pFsBQkDsbABiGAdAg5g1B5SYKAFqrzwS5MyLHBQAaI6IDUAClCtwCEDVZewFj6yQftHsCADXXe+tezy57uoL8aT32CQBnsiHAiABQFC1RTwCg5iI6nsUxBXYAIsMpgKK0InNSAKDuooj9/4JoVeAQYJLEA0EhjJEu2wAA6mzr+B/t/8JEk73ZM1EA4DbAYhmlaI0BqK1I4tOCwvTPzU+0SJ/4LQClOApYFCVy0qzzRjaAulI9QSGMyMQd+okDgDGGbYDidH45ipcEAGrm6Nv3l2j/F2iKGb3JA4DIRMcMMJm2ElpkAGpIXRAURhnzY5nQ5M8BKzoARbIBi2FAALXC6r8EE14C5EweANKIAFA0RVIGUCd8TyuanmJ7fuIAEMfJUFC03ub7zAIACB+r/5Kko+IDgFqUDU4CFC+K5AInAgCEj9V/0dwJgP7yweKHAJ00lVuCQrlZgM3R3BkBgEAdfffBBVb/ZTBTDedPFQCMEuYAShApc/rz70tXACAwvXfvdu3G9LKgcMqovkxhqgDQEk4ClKTTjuMrAgCBUYbvXWXRU97PM1UAaLdHBIDy9B5+8BxbAQCC0fv3vzitjPQEpeifP9CXKUwVANwgoN0I6AtK0VL6wub78YIAgOdc6z9K9bKgFMZIX6Y0VQBwUqPeE5SlE0VyjVMBAHzWW77bifTcuv2U71UlMUquypSmDgDPtZNV+2HiYweYjjsVkOr4kgCAp6K5mKn/siXJmkxp6gDANkD5bKtnKbkxx5laAN7JjvwZYV6pXKvTnP/fMXUAyBi5LCiXMcuj6/FJAQBP9N75/CRH/sqntZ5pK17JjJLr8V1hv6d8xizGr436AgAV6r19dyGS+LagVHZbeLh+bv6QzGC2DoBk5w/pAlRBqWucDABQpe3ivy4onV2992VGMwcAZdTUAwiYSUdFsk4IAFCFXcWfDnAFdJJclBnNHADmXk8GDANWxoWA28wEAChT7617PYp/ddzZ//7ywaHMaOYA4HAnQLXsXtAqpwMAlMEN/EWRovhXaJaz/7vlEgC4E8ADxiwTAgAUyR31i0y6KqjSxixn/3eb+RTAjs3r7RUl6rSgaoNRkpzY9y0ZCgDkwN3wp+bia9zv74XVm+fmT0kOcukAOPYPBsOAfliI43h9dL11XABgRtl+fzx3m+LvhzyG/3bk1gFwkuttuy+kegI/KFlpR8nFrVsbAWB82b3+7mpfbvfzhhv+W39zflFyklsHwDFa5TKYgJzYL9w0jW9vvh8vCQCMaWfVT/H3S17Dfzty7QC41+pGaXxHmA71jlKymmwmF5kNAPA02VO+2j3oI0sCr+Rx89/jcu0AuFYzNwP6yT0k1I7jO6Mb8ZXPvy9dAYBtrt2fTfjr7ErfJYF38rj57wn/zXxtdwHuCrxGRwBAts//3Nxp0ca1+uncekwnyaE8Lv/ZLfcA4CTX29fsf5opdI/9z9HX5F9/9g/k5yZeVSa9+uG31/oCoBGyPX6l3rAVYEko/CHI7ejfbsUEgA/aPbvE5IEIT+0U/3smfvRj9g/C0CizOtL66uDba0MBUCs7q31jTI8jfWHRIof75+YHkrNCAoDDkUA/Pan4f4WSgRjVFzN6j84AEK5spd+OXqHohyvvo3+7FRcA6AJ4Z6zi/1XuDgEbCMwtE+lBNJLhD/9oLfckCmA2veXPu61WsmBU1JVIvWK/ZntCez94dvV/yq7+V6UAhQUAZ3Q9vmOEiXMfTFn8ny7rEshGtnVgzEfuh+wf1KEgGK3kb8uB//22IDBadbOPUfQN+3XYsYXePQneEYp97RRx9G+3thRoZORyS8klQaVyL/6OkYWtD5IdKXByPVOKwqloU/hdC9Cj3zKz/QWIurK/vbld+/skhX7180pg9Qop/gCAQrnVf1Gt/x2FBgAuBqoWxR8AwlT06t8pvP831x6tCF2A0lH8ASBMbvUvSdKXghUeAOgClI/iDwDhUtpczfvWvycpZQKILkB5KP4AEC63+tfpaFVKUEoAoAtQDoo/AIStrNW/U9oZILoAxaL4A0DYylz9O6UFALoAxaH4A0D4ylz9O6XeAkIXIH8UfwAIX9mrf6fUAEAXIF8UfwCoh7JX/07p94DSBcgHxR8A6qGK1b9TegCgCzA7ij8A1Ie79a/s1b9TyUsgdAGmR/EHgPoo487/p6kkALgugNFyVjARij8A1EsZd/4/TWVvgc69nr0UOBCMheIPAPVS5erfqfYxcGPoAoyB4g8A9VPl6t+pNADEr4369pegL3gqij8A1I8x0q9y9e9U2wFwTLUJyGcUfwCoJzNKTknFKg8A210AjgU+huIPALW1WsWxv8dV3wGw2q3RsnAs8BGKPwDUU3bpT5J40fn2IgBwOdAXKP4AUF9VXPn7NEo8Mroe37HpqCsNRfFHmaLRr8r8R38iAMrhVv/r5+YPiSe86ADsMMZUPhRRFYo/ANRb1cf+HudVAGjqsUCKPwDU3mrVx/4e51UAcEZJ23UBGjMQSPEHgPrzZfBvN+8CwL5vPRw2ZSCQ4g8ADaDNRV8G/3bzaghwt7oPBFL8UTWGAIHi+Tb4t5t3HYAddR4IpPgDQDPYAHBCPOVtAKjrDYEUfwBoDDf45+2rt94GAKduNwRS/AGgGXy68e9pvA4A7oZAJboWWwEUfwBoDnfm38fBv928DgBO+1i6FvrdABR/AGgU7878P4n3AcAJ+W4Aij8ANEcIrf8dQQQAdzeAMX5doTgOij8ANEsIrf8dQQQAZ+61ZMX+0q5JICj+ANA4QbT+dwQTAJx2a3RK2faKeI7iDwDNst36PysBCSoAuFMBSdJa9DkEUPwBoFlc8TdJsmhb/0HNqgUVABw3D+BCgHg4FEjxB4CmMRvbxX8ogQkuADjZUKAWr0IAxR8AmkfLKMji7wQZAJy515OBDQFe7LdQ/AGgebTIqf65g95e9fsswQYAx4aAVRsCKr0pkOIPAA1k5GxIE/9PEnQAcFwIEGMquSOA4g8ADaTNxZtvzq9I4IIPAE782mi57BBA8QeABnLF//yBZamBWgQAp8wQQPEHgAaqUfF3ahMAnDJCAMUfABqoZsXfqVUAcFwIMKaY0wEUfwBooBoWf6d2AcBx7wbkfTqA4g8AzeOO+tWx+Du1DACOOx2gRJ+QHC4LovgDQNOYja1z/mEf9dtLbQOA0z6WrrkbA2d5O4DiDwBN44r/aLHOxd+pdQBw3I2B0z4gRPEHgGbZetVvdDjkG/7GVfsA4Ox6QGjs31CKPwA0iy3+g1Af9plGIwKA40JAfCw5bH+LLz/r51L8AaBZjNFXm1T8nbY0THxsdCb5oL0hSl140j+n+ANAw2hzcf38C8vSMI3pAOzm7gpwJwQenwug+ANAk2xN+tf1mN+zNDIAOO6EwO7hQIo/ADTHF8N+9Z7030tjA4Dj5gJareTwz0bPXab4A0AzbO/3H27Sfv+TNG4G4HFq0V0UdP/Mb//Z3DASc0kAADVlNsSoi+tvvhD8U755aHQHYLe//IP/vDIy6SEjZigAgFrJWv4yWrz55jzFfxsBYJfBt9eGP/qDP7chQJ55VBAAEAhtLmct/wZc7jMJJXiiv/8ffu+4ROaSEtUVoIai0a/K/Ed/IkB9mQ2t5UT//IG+4CvoADzFj/7wv6ylRi8aI1cFABAWZdZ0MjpE8X86OgBj+O3v/ZMlpeQC3QDUCR0A1JPZUDo6deP8/jXBnugAjOEvv/3nq1k3gNkAAPCX3et3q36K/3joAExo4XvHuy0VrdMNQOjoAKAuskd8tDlLu38yBIAp/faf/f4ZJfo0QQChIgAgfGZDtFxu6lW+s2ILYEru3gCGBAGgMquu3U/xnx4dgBxk2wJR65IyclyAQNABQIjsoqtvjLlIu392BIAccXcAQkIAQEgo/PkjABSAY4MIAQEAIXBX+Nq/Ljb51b6iEAAKRBCAzwgA8BmFv3gEgBIQBOAjAgB8lLX6lVyl8BePAFAiNyOgIjltP+0JUDECAHzCHn/5CAAVyE4NSGvZdgVOClARAgCqZzZsGVrT2lyl8JePAFAhFwQiiXpsD6AKBABUZ+sCH52OVvrLBzcElSAAeOLl7/1+z4hZoiuAshAAUDba/H4hAHhmpysQKeVmBRYEKAgBAGXIir7IezJKVlnt+4UA4LEsDJgoGxxkiwB5IwCgQEOx+/o6Umv9c/MDgZcIAIE48h//6UI6SntRpNwWAZ0BzIwAgDy5lb4y5pYW6dPiDwMBIECPtgki9Yb9ouvZ38SOABMiAGA2ZsMYNaC9Hy4CQA24AUIR3ROlXhHuGMCYCACY1O5VvqSjAUU/bASAGtodCGw6X6BDgCchAGBv7ox+1Ne24NvKP6Dg1w8BoAHc/IAe6a79tKcieYlQAIcAgF2GthwMROuPJDIDncT9/vK+oaDWCAANtXDleKf9fHtBi+5GIl2J1EtipEM4aA4CQNNke/ZDpbJC/1lW6CUaSJIMWdk3EwEAX+HCQbw/7prUdFxAcMEgUtKx3zi+YexH9/fbP9UGBrMrLKgO4SEcBIAQZVfnfqlYK+NW7/afKJV9dKt4rdRGpPSG1vbH0rb98YcbFHkAAAAAAAAAAAAAAAAAAAAAAAAAAAAAAAAAAAAAAAAAAAAAAAAAAAAAAAAAAAAAAAAAAAAAAAAAAAAAAAAAAAAAAAAAAAAAAAAAAAAAAAAAAAAAAAAAAAAAAAAAAAAAAAAAAAAAAAAAAAAAAAAAAAAAAAAAAAAAAAAAAAAAAAAAAAAAAAAAAAAAAAAAAAAAAAAAAAAAAAAAAAAAAAAAAAAAAAAAAAAAAAAAAAAAAAAAAAAAAAAAAAAAAAAAAAAAQFH+P4Ygl9gEElE5AAAAAElFTkSuQmCC;" vertex="1" parent="1">
                    <mxGeometry x="591.75" y="218" width="34" height="34" as="geometry"/>
                </mxCell>
            </root>
        </mxGraphModel>
    </diagram>
</mxfile>